<?xml version="1.0" encoding="UTF-8"?>
<svg version="1.1" xmlns="http://www.w3.org/2000/svg" width="512" height="512">
<path d="M0 0 C1.01790619 0.00215515 2.03581238 0.0043103 3.08456421 0.00653076 C17.69363523 0.05620146 32.02575853 0.30709809 46.375 3.3125 C47.34985352 3.51117676 48.32470703 3.70985352 49.32910156 3.91455078 C88.46706278 12.1015107 124.71208214 27.78530345 156.375 52.3125 C157.27347656 52.99828125 158.17195313 53.6840625 159.09765625 54.390625 C174.64697517 66.51465814 189.2952143 80.73068469 201.375 96.3125 C202.14972656 97.27027344 202.92445313 98.22804688 203.72265625 99.21484375 C238.26056965 142.61986011 256.81394766 197.76289597 256.69067383 253.03979492 C256.6875221 255.97938487 256.71104926 258.9179558 256.73632812 261.85742188 C256.78098737 275.23056192 255.57551542 288.12666711 253.375 301.3125 C253.09281616 303.01805054 253.09281616 303.01805054 252.80493164 304.75805664 C245.77946967 343.86954746 228.79665906 381.05202178 204.375 412.3125 C203.61574219 413.28445313 202.85648437 414.25640625 202.07421875 415.2578125 C189.73986402 430.63741644 175.93895499 445.19015196 160.375 457.3125 C159.43914062 458.07691406 158.50328125 458.84132813 157.5390625 459.62890625 C125.58628299 485.2157721 86.41988322 501.72551276 46.375 509.3125 C45.56562988 509.47621094 44.75625977 509.63992188 43.92236328 509.80859375 C13.88110013 515.67977137 -20.7615176 514.58512909 -50.625 508.3125 C-52.14794678 507.99901611 -52.14794678 507.99901611 -53.70166016 507.67919922 C-90.84546555 499.78695344 -125.70945445 483.68345578 -155.625 460.3125 C-156.59695312 459.55324219 -157.56890625 458.79398437 -158.5703125 458.01171875 C-173.94991644 445.67736402 -188.50265196 431.87645499 -200.625 416.3125 C-201.77162109 414.90871094 -201.77162109 414.90871094 -202.94140625 413.4765625 C-228.5282721 381.52378299 -245.03801276 342.35738322 -252.625 302.3125 C-252.78871094 301.50312988 -252.95242187 300.69375977 -253.12109375 299.85986328 C-258.59069558 271.87335724 -258.46977511 238.21828161 -252.625 210.3125 C-252.42632324 209.33764648 -252.22764648 208.36279297 -252.02294922 207.35839844 C-241.93598313 159.13741149 -219.89911449 114.53770064 -185.40722656 79.14160156 C-183.63301167 77.32072238 -181.87518486 75.48496071 -180.1171875 73.6484375 C-173.01562574 66.30860161 -165.60158994 59.73928631 -157.40917969 53.64355469 C-155.59628085 52.2910746 -153.80174757 50.91656557 -152.0078125 49.5390625 C-143.60124472 43.15234877 -134.85975388 37.61076633 -125.65234375 32.45166016 C-123.78933792 31.40484113 -121.94116361 30.33571119 -120.09375 29.26171875 C-83.4933446 8.69459905 -41.63834482 -0.15855121 0 0 Z M-136.625 66.3125 C-137.20233887 66.73144531 -137.77967773 67.15039062 -138.37451172 67.58203125 C-147.02323413 73.90119056 -154.90900744 80.89398593 -162.625 88.3125 C-163.17188477 88.83215332 -163.71876953 89.35180664 -164.28222656 89.88720703 C-172.56602146 97.78429512 -179.81157241 106.12384296 -186.625 115.3125 C-187.0487793 115.87549805 -187.47255859 116.43849609 -187.90917969 117.01855469 C-212.36186577 149.59081063 -227.41046895 187.96925198 -232.625 228.3125 C-232.7192627 229.01318604 -232.81352539 229.71387207 -232.91064453 230.43579102 C-240.06227297 290.96876051 -221.29108752 352.74160462 -184.125 400.5625 C-178.93814203 407.11035717 -173.4032246 413.28439575 -167.625 419.3125 C-167.12242676 419.84230469 -166.61985352 420.37210937 -166.10205078 420.91796875 C-158.1905107 429.22151098 -149.83272174 436.48493586 -140.625 443.3125 C-140.06200195 443.7362793 -139.49900391 444.16005859 -138.91894531 444.59667969 C-90.88189332 480.65911745 -29.03725318 496.79428971 30.5625 489.1875 C81.00166605 481.8566242 126.64653592 459.51847954 163.375 424.3125 C163.90480469 423.80992676 164.43460937 423.30735352 164.98046875 422.78955078 C173.28401098 414.8780107 180.54743586 406.52022174 187.375 397.3125 C188.01066895 396.46800293 188.01066895 396.46800293 188.65917969 395.60644531 C213.35448115 362.711013 228.34592311 324.07109197 233.375 283.3125 C233.4692627 282.5891748 233.56352539 281.86584961 233.66064453 281.12060547 C240.69151019 220.8614331 221.84184909 159.62703909 184.875 112.0625 C179.68814203 105.51464283 174.1532246 99.34060425 168.375 93.3125 C167.62114014 92.51779297 167.62114014 92.51779297 166.85205078 91.70703125 C158.9405107 83.40348902 150.58272174 76.14006414 141.375 69.3125 C140.81200195 68.8887207 140.24900391 68.46494141 139.66894531 68.02832031 C107.09668937 43.57563423 68.71824802 28.52703105 28.375 23.3125 C27.67431396 23.2182373 26.97362793 23.12397461 26.25170898 23.02685547 C-30.78605477 16.28816585 -90.38844289 32.52658725 -136.625 66.3125 Z " fill="#000000" transform="translate(255.625,-0.3125)"/>
<path d="M0 0 C2.82424288 2.19022918 4.41508603 3.83017207 6 7 C6.09208771 8.46984187 6.12193188 9.94381162 6.12025452 11.41653442 C6.12231651 12.80899384 6.12231651 12.80899384 6.12442017 14.22958374 C6.12082489 15.25097443 6.11722961 16.27236511 6.11352539 17.32470703 C6.11367142 18.39789185 6.11381744 19.47107666 6.1139679 20.57678223 C6.11326917 24.13714595 6.10547861 27.69745787 6.09765625 31.2578125 C6.09579193 33.72118094 6.09436809 36.18454976 6.09336853 38.6479187 C6.08954446 45.14167295 6.07971511 51.63540495 6.06866455 58.12915039 C6.05844806 64.75146178 6.0538704 71.37377676 6.04882812 77.99609375 C6.03809276 90.99740534 6.021209 103.99870149 6 117 C6.5613798 116.99631283 7.12275959 116.99262566 7.70115089 116.98882675 C21.37263709 116.90041692 35.04407308 116.83451741 48.71578407 116.79275131 C55.32739538 116.77187449 61.93880039 116.74355434 68.55029297 116.69824219 C74.93045455 116.65478899 81.31041766 116.63086361 87.69071579 116.62049103 C90.12519836 116.61309881 92.55967004 116.59866366 94.99406815 116.57707977 C98.40334824 116.54805385 101.81180768 116.54404381 105.22119141 116.54589844 C106.22820099 116.53151733 107.23521057 116.51713623 108.2727356 116.50231934 C114.152751 116.53694347 117.52439805 117.07186268 122 121 C123.85726616 124.71453232 123.58501089 128.95579425 123 133 C120.80977082 135.82424288 119.16982793 137.41508603 116 139 C114.53015813 139.09208771 113.05618838 139.12193188 111.58346558 139.12025452 C110.19100616 139.12231651 110.19100616 139.12231651 108.77041626 139.12442017 C107.74902557 139.12082489 106.72763489 139.11722961 105.67529297 139.11352539 C104.06551575 139.11374443 104.06551575 139.11374443 102.42321777 139.1139679 C98.86285405 139.11326917 95.30254213 139.10547861 91.7421875 139.09765625 C89.27881906 139.09579193 86.81545024 139.09436809 84.3520813 139.09336853 C77.85832705 139.08954446 71.36459505 139.07971511 64.87084961 139.06866455 C58.24853822 139.05844806 51.62622324 139.0538704 45.00390625 139.04882812 C32.00259466 139.03809276 19.00129851 139.021209 6 139 C6.00368717 139.5613798 6.00737434 140.12275959 6.01117325 140.70115089 C6.09958308 154.37263709 6.16548259 168.04407308 6.20724869 181.71578407 C6.22812551 188.32739538 6.25644566 194.93880039 6.30175781 201.55029297 C6.34521101 207.93045455 6.36913639 214.31041766 6.37950897 220.69071579 C6.38690119 223.12519836 6.40133634 225.55967004 6.42292023 227.99406815 C6.45194615 231.40334824 6.45595619 234.81180768 6.45410156 238.22119141 C6.47567322 239.73170578 6.47567322 239.73170578 6.49768066 241.2727356 C6.46305653 247.152751 5.92813732 250.52439805 2 255 C-1.71453232 256.85726616 -5.95579425 256.58501089 -10 256 C-12.82424288 253.80977082 -14.41508603 252.16982793 -16 249 C-16.09208771 247.53015813 -16.12193188 246.05618838 -16.12025452 244.58346558 C-16.12231651 243.19100616 -16.12231651 243.19100616 -16.12442017 241.77041626 C-16.11902725 240.23833023 -16.11902725 240.23833023 -16.11352539 238.67529297 C-16.11367142 237.60210815 -16.11381744 236.52892334 -16.1139679 235.42321777 C-16.11326917 231.86285405 -16.10547861 228.30254213 -16.09765625 224.7421875 C-16.09579193 222.27881906 -16.09436809 219.81545024 -16.09336853 217.3520813 C-16.08954446 210.85832705 -16.07971511 204.36459505 -16.06866455 197.87084961 C-16.05844806 191.24853822 -16.0538704 184.62622324 -16.04882812 178.00390625 C-16.03809276 165.00259466 -16.021209 152.00129851 -16 139 C-16.84206969 139.00553076 -16.84206969 139.00553076 -17.70115089 139.01117325 C-31.37263709 139.09958308 -45.04407308 139.16548259 -58.71578407 139.20724869 C-65.32739538 139.22812551 -71.93880039 139.25644566 -78.55029297 139.30175781 C-84.93045455 139.34521101 -91.31041766 139.36913639 -97.69071579 139.37950897 C-100.12519836 139.38690119 -102.55967004 139.40133634 -104.99406815 139.42292023 C-108.40334824 139.45194615 -111.81180768 139.45595619 -115.22119141 139.45410156 C-116.22820099 139.46848267 -117.23521057 139.48286377 -118.2727356 139.49768066 C-124.152751 139.46305653 -127.52439805 138.92813732 -132 135 C-133.85726616 131.28546768 -133.58501089 127.04420575 -133 123 C-130.80977082 120.17575712 -129.16982793 118.58491397 -126 117 C-124.53015813 116.90791229 -123.05618838 116.87806812 -121.58346558 116.87974548 C-120.6551593 116.87837082 -119.72685303 116.87699615 -118.77041626 116.87557983 C-117.74902557 116.87917511 -116.72763489 116.88277039 -115.67529297 116.88647461 C-114.60210815 116.88632858 -113.52892334 116.88618256 -112.42321777 116.8860321 C-108.86285405 116.88673083 -105.30254213 116.89452139 -101.7421875 116.90234375 C-99.27881906 116.90420807 -96.81545024 116.90563191 -94.3520813 116.90663147 C-87.85832705 116.91045554 -81.36459505 116.92028489 -74.87084961 116.93133545 C-68.24853822 116.94155194 -61.62622324 116.9461296 -55.00390625 116.95117188 C-42.00259466 116.96190724 -29.00129851 116.978791 -16 117 C-16.00368717 116.4386202 -16.00737434 115.87724041 -16.01117325 115.29884911 C-16.09958308 101.62736291 -16.16548259 87.95592692 -16.20724869 74.28421593 C-16.22812551 67.67260462 -16.25644566 61.06119961 -16.30175781 54.44970703 C-16.34521101 48.06954545 -16.36913639 41.68958234 -16.37950897 35.30928421 C-16.38690119 32.87480164 -16.40133634 30.44032996 -16.42292023 28.00593185 C-16.45194615 24.59665176 -16.45595619 21.18819232 -16.45410156 17.77880859 C-16.46848267 16.77179901 -16.48286377 15.76478943 -16.49768066 14.7272644 C-16.46305653 8.847249 -15.92813732 5.47560195 -12 1 C-8.28546768 -0.85726616 -4.04420575 -0.58501089 0 0 Z " fill="#000000" transform="translate(261,128)"/>
</svg>
