<?xml version="1.0" encoding="UTF-8"?>
<svg version="1.1" xmlns="http://www.w3.org/2000/svg" width="512" height="512">
<path d="M0 0 C5.26119631 2.99604143 9.28405123 6.99728869 13.53483582 11.26741028 C14.27288509 12.00092844 15.01093437 12.73444661 15.77134877 13.49019259 C18.23800046 15.94420506 20.69746951 18.40528942 23.15698242 20.86645508 C24.92597723 22.62946448 26.69538147 24.39206315 28.46516418 26.15428162 C32.76873728 30.44202568 37.06751372 34.73452301 41.36373588 39.02962855 C44.85613785 42.52107895 48.3501174 46.01094275 51.84520912 49.49970055 C61.75989839 59.39678797 71.67039507 69.29804635 81.57553681 79.20468918 C82.10901542 79.73824771 82.64249404 80.27180624 83.19213867 80.8215332 C83.72626939 81.35574568 84.26040011 81.88995816 84.81071661 82.4403589 C93.47177836 91.10223397 102.14277928 99.75408302 110.8183281 108.4014459 C119.73172636 117.28611402 128.63764346 126.17822093 137.5358246 135.07812995 C142.52948897 140.07245802 147.52618163 145.06366666 152.53093529 150.04688454 C157.23593655 154.73176867 161.93050922 159.42692168 166.61817741 164.12915993 C168.34047197 165.85354893 170.06619213 167.57452426 171.79555893 169.29182053 C174.15510512 171.63596018 176.50199688 173.99208585 178.84611511 176.35163879 C179.53365456 177.02889112 180.22119401 177.70614344 180.92956799 178.40391856 C184.82363425 182.35490033 187.57128741 185.57701256 189 191 C188.29515447 198.09879945 185.28755319 201.57446734 180.31045532 206.44471741 C179.61484226 207.14898485 178.91922919 207.8532523 178.20253694 208.57886118 C175.87385204 210.92909239 173.5243741 213.25733634 171.17431641 215.58618164 C169.49767766 217.26931531 167.82232464 218.95373057 166.14816284 220.639328 C162.07183367 224.73634362 157.9816904 228.81916527 153.88458891 232.89540107 C150.55163143 236.21204833 147.22479223 239.53472063 143.90220261 242.86175346 C143.19176289 243.57313919 143.19176289 243.57313919 142.46697085 244.29889635 C141.50466203 245.26255132 140.54236993 246.22622299 139.58009438 247.18991118 C130.55955804 256.22237909 121.52112827 265.23676645 112.47619383 274.24479365 C104.73161858 281.95852177 97.00135559 289.68634626 89.28173828 297.42504883 C80.30474093 306.42421468 71.31973626 315.41525231 62.32138956 324.39307493 C61.3595712 325.35273052 60.39775967 326.31239295 59.43595505 327.2720623 C58.9628066 327.74414438 58.48965816 328.21622646 58.00217188 328.70261406 C54.68411281 332.0142304 51.37177551 335.33148637 48.06132889 338.65071297 C43.59282148 343.12981653 39.11204857 347.59628699 34.62175369 352.053545 C32.9808833 353.68624627 31.34418084 355.32314939 29.71212006 356.96465683 C15.59868264 371.15075229 2.14223777 381.86609923 -18.8125 382.375 C-20.5439772 382.28765545 -22.27405955 382.16362127 -24 382 C-24.84304687 381.94070313 -25.68609375 381.88140625 -26.5546875 381.8203125 C-38.29234498 380.39228889 -49.01478998 374.42317425 -57.41040039 366.2956543 C-58.033816 365.70292819 -58.65723162 365.11020208 -59.29953861 364.49951458 C-69.64142405 354.59845701 -79.7422888 344.44226393 -89.87351489 334.32667375 C-91.70058701 332.50256556 -93.52823065 330.6790318 -95.35603523 328.85565758 C-101.10021275 323.12507726 -106.84244335 317.39255692 -112.58177322 311.65712148 C-119.16282112 305.08056736 -125.75039138 298.51063879 -132.34360927 291.94628602 C-137.4762928 286.83528308 -142.60313461 281.71846739 -147.72565609 276.59727973 C-150.77040693 273.55357022 -153.81747117 270.51227218 -156.87069511 267.47706032 C-159.73800353 264.62634905 -162.59791956 261.76841615 -165.45257759 258.90503883 C-166.4931572 257.86369567 -167.53624561 256.82485162 -168.58218384 255.78889084 C-182.5361757 241.96012213 -193.20143559 227.74473099 -193.375 207.5 C-193.08936985 180.88976279 -174.43195811 165.28006486 -156.94360352 147.79833984 C-155.35223494 146.20397295 -153.76106942 144.60940337 -152.17008972 143.01464844 C-147.88376618 138.71955823 -143.59426835 134.42765232 -139.30387998 130.13662291 C-136.62156651 127.45359581 -133.93996749 124.76985677 -131.25861931 122.08586502 C-122.38145395 113.19995127 -113.50225441 104.31607734 -104.62033737 95.43491356 C-104.14371442 94.95833056 -103.66709147 94.48174756 -103.17602539 93.99072266 C-102.69881556 93.5135537 -102.22160572 93.03638475 -101.72993498 92.54475613 C-93.96941868 84.78464766 -86.21392403 77.01954164 -78.46064449 69.25220339 C-70.48164429 61.25885 -62.49884046 53.26931165 -54.51231903 45.2834717 C-50.03536387 40.8067717 -45.55998107 36.32852675 -41.08844185 31.84641647 C-36.89277657 27.6411003 -32.69237781 23.44057151 -28.48823738 19.24372864 C-26.94493926 17.70147947 -25.40335609 16.15751203 -23.86359787 14.61172867 C-21.7660252 12.50647839 -19.66242073 10.40744813 -17.55714417 8.30990601 C-16.94596522 7.6935835 -16.33478628 7.077261 -15.70508677 6.44226205 C-15.13959618 5.88137026 -14.57410559 5.32047847 -13.99147892 4.74258995 C-13.50684305 4.25773672 -13.02220719 3.77288348 -12.52288538 3.27333772 C-8.55062002 -0.04801225 -5.12814707 -0.53049797 0 0 Z M-8.31677967 31.17837417 C-8.93641856 31.79956166 -9.55605744 32.42074915 -10.19447327 33.0607605 C-10.84869607 33.71271774 -11.50291887 34.36467499 -12.17696661 35.03638852 C-14.38739648 37.24044474 -16.59419174 39.44810515 -18.80102539 41.65576172 C-20.37730616 43.2290531 -21.95379305 44.80213798 -23.5304718 46.37503052 C-27.82612897 50.66182131 -32.11850439 54.95188389 -36.41004872 59.24279165 C-39.98559819 62.81739431 -43.56251088 66.39063138 -47.13936132 69.96393216 C-55.09118221 77.90806499 -63.04064654 85.85454966 -70.98828752 93.8028637 C-71.70431835 94.51895447 -71.70431835 94.51895447 -72.43481445 95.24951172 C-73.15171375 95.96647233 -73.15171375 95.96647233 -73.88309585 96.697917 C-81.63232236 104.44755013 -89.38652625 112.19218161 -97.14300079 119.93455969 C-105.09757082 127.87478663 -113.04833597 135.81880694 -120.99539751 143.76655018 C-125.46101884 148.23242727 -129.92820121 152.69671586 -134.39921761 157.15719223 C-138.6019123 161.35025034 -142.79983886 165.54802262 -146.99406242 169.74955368 C-148.53875369 171.29529633 -150.08517272 172.8393145 -151.63339233 174.38152313 C-153.73772513 176.47821082 -155.83588044 178.58088615 -157.93251038 180.68527222 C-158.86531479 181.61036128 -158.86531479 181.61036128 -159.81696373 182.55413902 C-162.94741599 185.26982311 -162.94741599 185.26982311 -164 189 C-57.74 189 48.52 189 158 189 C153.91079409 184.22925977 149.83547142 179.69157571 145.40080261 175.27381897 C144.44474521 174.31542159 144.44474521 174.31542159 143.46937352 173.33766264 C141.35067734 171.215004 139.22845636 169.09590649 137.10620117 166.97680664 C135.57965742 165.44890682 134.05332626 163.92079457 132.52719116 162.39248657 C128.39564854 158.25639642 124.26096286 154.12346185 120.12555861 149.99123311 C115.79902951 145.66723869 111.47494401 141.34080173 107.15046692 137.01475525 C99.89515917 129.75763022 92.63774955 122.50261215 85.37915039 115.2487793 C76.975877 106.85095998 68.57622879 98.4495276 60.17843074 90.04623324 C52.97084911 82.83412256 45.7613318 75.62395122 38.55017453 68.4154157 C34.24164693 64.10845045 29.93380581 59.80080442 25.62770653 55.49141121 C21.58591225 51.44674083 17.54170369 47.40450047 13.49557114 43.36417007 C12.00672114 41.87664857 10.51873298 40.38826392 9.03164482 38.89898109 C7.01148104 36.87610957 4.98830279 34.8563039 2.96427917 32.83729553 C2.36818775 32.23897338 1.77209632 31.64065124 1.15794152 31.02419811 C-3.66297198 26.2266427 -3.502217 26.39156645 -8.31677967 31.17837417 Z M-170 211 C-168.35402109 224.16783128 -160.94808458 230.49348144 -151.90112305 239.50292969 C-150.66153687 240.74822517 -149.42258057 241.99414789 -148.1842041 243.24064636 C-144.83371097 246.60902122 -141.47378794 249.96783522 -138.1114881 253.32441998 C-135.30051006 256.13229981 -132.49414641 258.94476911 -129.6877349 261.75721192 C-123.06597684 268.39299644 -116.43647395 275.02097166 -109.80200195 281.64404297 C-102.96640945 288.46814828 -96.14370676 295.30494721 -89.32726449 302.14817691 C-83.46428236 308.03333194 -77.59355359 313.91067881 -71.71654159 319.7818234 C-68.21091109 323.28408791 -64.70822063 326.78916662 -61.21289635 330.30171967 C-57.92630384 333.60380503 -54.63010726 336.89599589 -51.32637787 340.180933 C-50.11844171 341.38519022 -48.91387475 342.59283827 -47.71302986 343.80416679 C-39.11964576 352.46680047 -31.89350031 359.00053095 -19.0625 359.4375 C-17.83660156 359.49808594 -16.61070312 359.55867187 -15.34765625 359.62109375 C-2.32838644 358.60022966 6.75665053 348.07813555 15.30566406 339.39135742 C16.69529804 338.00166796 18.0862507 336.61329609 19.47840881 335.22613525 C23.22881614 331.48168525 26.9604642 327.71904593 30.68872929 323.95256591 C34.59794153 320.009415 38.52390177 316.08300721 42.44793701 312.15461731 C49.0241991 305.56642703 55.58945172 298.96743804 62.14697266 292.3605957 C71.40880841 283.02914621 80.69081887 273.71796494 89.97670794 264.41045988 C97.18114983 257.18775179 104.37998895 249.9594604 111.578125 242.73046875 C112.73892562 241.56491097 112.73892562 241.56491097 113.92317677 240.37580657 C118.35774367 235.92247829 122.78951674 231.46640459 127.21691704 227.00595093 C128.56093964 225.65257534 129.90581102 224.3000421 131.25156593 222.94838905 C133.07936515 221.11219193 134.90403833 219.27294731 136.72784424 217.43278503 C137.26828251 216.89116688 137.80872078 216.34954873 138.36553597 215.79151791 C140.87905724 213.73957531 140.87905724 213.73957531 142 211 C39.04 211 -63.92 211 -170 211 Z " fill="#000000" transform="translate(214,24)"/>
<path d="M0 0 C0.69842776 -0.00350607 1.39685551 -0.00701215 2.11644775 -0.01062447 C4.46836655 -0.01996497 6.82003918 -0.0150084 9.17196846 -0.01015663 C10.87056434 -0.01389156 12.56915849 -0.01849244 14.26774991 -0.02388728 C18.94459686 -0.03615214 23.62137246 -0.03585272 28.29823184 -0.03349853 C33.3385528 -0.03309124 38.37885061 -0.04412102 43.41916084 -0.05361366 C53.29734641 -0.07024351 63.17550812 -0.0757241 73.05370651 -0.07683842 C81.08083331 -0.07778791 89.10795222 -0.08189325 97.13507652 -0.08823967 C119.88011566 -0.10585714 142.6251359 -0.1150777 165.3701819 -0.11357872 C166.59698613 -0.11349881 167.82379035 -0.1134189 169.08777046 -0.11333656 C170.31606788 -0.1132548 171.5443653 -0.11317304 172.80988385 -0.1130888 C192.72251013 -0.11227566 212.63506081 -0.13141919 232.54766522 -0.1596133 C252.98071046 -0.18831664 273.41371879 -0.20215501 293.84678471 -0.20042574 C305.32367972 -0.19976098 316.80049547 -0.20529102 328.27737236 -0.22678185 C338.04802024 -0.24496008 347.81855294 -0.24936863 357.58921038 -0.235763 C362.57626835 -0.22921648 367.56310513 -0.22917672 372.55014229 -0.2464695 C377.11357552 -0.26213097 381.67661089 -0.25940786 386.240034 -0.24190123 C387.89277108 -0.23881601 389.54553735 -0.24252066 391.19824003 -0.25362138 C393.44222468 -0.26769787 395.68480511 -0.25719317 397.92874146 -0.24050903 C399.17585305 -0.24094377 400.42296465 -0.24137851 401.7078675 -0.24182642 C405.74551286 0.35396446 407.91626213 1.74059353 411.09021187 4.25726891 C413.09564153 7.12622635 413.35661452 9.24428109 413.02771187 12.69476891 C412.97486031 13.43597984 412.92200874 14.17719078 412.86755562 14.94086266 C411.7113714 18.38617542 409.87467479 19.95418534 407.09021187 22.25726891 C403.80756855 22.88401473 403.80756855 22.88401473 399.99211311 22.88647461 C399.28547842 22.89374181 398.57884373 22.90100902 397.85079587 22.90849644 C395.47652962 22.92678366 393.10387133 22.90937568 390.72961617 22.89218712 C389.01293898 22.89794689 387.29626796 22.90588703 385.57960987 22.91582334 C380.85733778 22.93673991 376.13556943 22.92635971 371.41329527 22.91089225 C366.32254362 22.89960231 361.23188 22.91702973 356.14114571 22.93079185 C346.16645402 22.953054 336.19195018 22.9482098 326.21725106 22.93372865 C318.11241947 22.92244812 310.00764061 22.92090037 301.90280342 22.92634773 C300.1741596 22.92749698 300.1741596 22.92749698 298.41059369 22.92866945 C296.069638 22.93026803 293.72868232 22.9318891 291.38772666 22.9335324 C269.42372843 22.94779863 247.45983444 22.93138346 225.4958533 22.90453057 C206.63955862 22.88219103 187.78341783 22.88607091 168.92712593 22.90912437 C147.04306217 22.93586693 125.15908984 22.94642525 103.27501202 22.93106306 C100.94254813 22.92947027 98.61008423 22.92789842 96.27762032 22.92634773 C95.12992894 22.92557635 93.98223757 22.92480498 92.79976767 22.92401022 C84.70233609 22.91968859 76.60496237 22.92698975 68.50753975 22.9387455 C58.64279242 22.95275187 48.77824408 22.94900976 38.91351962 22.92234178 C33.87794143 22.90917854 28.84269529 22.90409388 23.80711937 22.92058754 C19.2005047 22.93544824 14.59453099 22.92736332 9.98797476 22.90069978 C8.31846999 22.89509828 6.64891146 22.89799249 4.97944105 22.91007872 C2.71495409 22.92521949 0.45268075 22.90976195 -1.81168938 22.88647461 C-3.07078967 22.88566285 -4.32988997 22.88485109 -5.62714481 22.88401473 C-9.7970449 22.08786748 -11.27276383 20.5090077 -13.90978813 17.25726891 C-15.04760412 14.24231871 -15.20300626 11.46011313 -14.90978813 8.25726891 C-11.37082812 1.04827629 -7.68555024 0.00868455 0 0 Z " fill="#000000" transform="translate(56.90978813171387,425.74273109436035)"/>
<path d="M0 0 C3.04246387 2.25822629 4.88889426 4.83867064 6.890625 7.9921875 C7.51638428 8.95705078 7.51638428 8.95705078 8.15478516 9.94140625 C9.62825496 12.2380524 11.07486724 14.5498785 12.515625 16.8671875 C13.08667969 17.78467773 13.65773438 18.70216797 14.24609375 19.64746094 C51.89449056 80.51504491 51.89449056 80.51504491 46.328125 107.4296875 C42.39863131 122.82020446 33.13920629 134.68335372 19.515625 142.8671875 C4.90204593 149.78380866 -10.11136943 150.7746524 -25.484375 145.8671875 C-37.92024375 141.0353182 -48.06139628 132.65082021 -54.484375 120.8671875 C-61.59871737 104.14386322 -62.17476472 89.71480101 -55.67089844 72.74462891 C-45.4906696 47.68863933 -31.37929962 20.27803221 -13.484375 -0.1328125 C-8.80425077 -1.69285391 -4.49423234 -2.04925689 0 0 Z M-7.484375 30.8671875 C-8.71219846 32.39481246 -8.71219846 32.39481246 -9.8828125 34.43359375 C-10.35638184 35.21774658 -10.82995117 36.00189941 -11.31787109 36.80981445 C-11.82656738 37.67437256 -12.33526367 38.53893066 -12.859375 39.4296875 C-13.38740723 40.32067139 -13.91543945 41.21165527 -14.45947266 42.12963867 C-33.45952771 71.50485279 -33.45952771 71.50485279 -36.78125 104.65234375 C-33.23344464 114.61927152 -26.86354257 120.25498958 -17.484375 124.8671875 C-9.3453554 127.64185327 0.66125607 126.73655453 8.33984375 123.1171875 C15.86730262 118.79261508 21.40994553 112.28757214 24.15234375 103.92578125 C26.1259739 92.74187708 23.25223976 83.84845307 18.515625 73.8671875 C18.22655273 73.24505371 17.93748047 72.62291992 17.63964844 71.98193359 C11.08344891 57.97286716 3.73582605 43.31037919 -5.484375 30.8671875 C-6.144375 30.8671875 -6.804375 30.8671875 -7.484375 30.8671875 Z " fill="#000000" transform="translate(422.484375,257.1328125)"/>
</svg>
