<?xml version="1.0" encoding="UTF-8"?>
<svg version="1.1" xmlns="http://www.w3.org/2000/svg" width="512" height="512">
<path d="M0 0 C6.87356082 4.87948515 12.68733076 11.54483256 18.62280273 17.4934082 C19.66647597 18.53572364 20.71036121 19.57782683 21.75444031 20.61973572 C24.5661906 23.42696015 27.37480866 26.23729829 30.18270373 29.04837823 C33.12754726 31.99576649 36.07484448 34.94069955 39.02174377 37.8860321 C43.96185094 42.82432545 48.89985767 47.76471172 53.83666992 52.70629883 C59.54710446 58.42219258 65.26115691 64.13445063 70.97706646 69.84486896 C75.89114452 74.75441499 80.80327876 79.66589948 85.71378094 84.57902211 C88.6441608 87.51096191 91.57521448 90.44221951 94.50802422 93.3717289 C97.25917188 96.11999595 100.00787713 98.87068231 102.75468636 101.62328529 C103.76447299 102.63439772 104.77511812 103.64465359 105.78666687 104.65400314 C107.16321947 106.02783768 108.53641159 107.40503694 109.90940857 108.78242493 C111.06496073 109.93854263 111.06496073 109.93854263 112.24385738 111.11801624 C114.3428294 113.36739576 114.92355556 114.59866667 115.5 117.625 C114.17273724 126.58402362 102.84891706 134.29443901 96.59321594 140.54049683 C95.438997 141.69658654 94.28499371 142.85289159 93.13118619 144.0093919 C89.97592765 147.17074123 86.81757878 150.32898695 83.6586827 153.48670101 C80.24655645 156.89862259 76.83729742 160.3134072 73.42764282 163.72779846 C66.7551993 170.40853242 60.07999457 177.08650076 53.40368382 183.76336984 C47.97935441 189.18817484 42.5558164 194.61376978 37.13283348 200.03992081 C21.75757056 215.42398325 6.38021989 230.80595447 -8.99981871 246.18524252 C-9.82818176 247.01356561 -10.65654481 247.84188871 -11.51000977 248.6953125 C-12.33938353 249.52464539 -13.1687573 250.35397828 -14.02326361 251.20844246 C-27.4842747 264.66904652 -40.94028237 278.13464004 -54.39404621 291.60248731 C-68.20830689 305.43109481 -82.02627537 319.2559877 -95.84814388 333.0769912 C-103.60825283 340.83676777 -111.36680531 348.59808615 -119.12137413 356.36339951 C-125.71844613 362.96955387 -132.3189405 369.57226456 -138.92395862 376.17047457 C-142.29505858 379.53829882 -145.66450435 382.90773632 -149.02964592 386.28151512 C-152.10748616 389.3671742 -155.18986779 392.44821819 -158.27599917 395.52558424 C-159.39402304 396.64206298 -160.510345 397.76024902 -161.62482258 398.88026772 C-163.13536551 400.39782502 -164.65189062 401.90913824 -166.17011547 403.41900444 C-167.43344905 404.68266407 -167.43344905 404.68266407 -168.72230452 405.97185218 C-172.34664406 409.19910376 -175.45960706 410.24329561 -180.19044495 411.03775024 C-181.24023026 411.21719681 -182.29001556 411.39664337 -183.37161255 411.58152771 C-185.09140823 411.86529015 -185.09140823 411.86529015 -186.84594727 412.15478516 C-188.05781204 412.35990219 -189.26967682 412.56501923 -190.51826477 412.77635193 C-193.84018089 413.33698005 -197.16297092 413.89171774 -200.48639417 414.44329882 C-203.26708058 414.9055367 -206.04709956 415.37172065 -208.82713264 415.83786905 C-215.39394535 416.93887034 -221.96186595 418.03307467 -228.53051758 419.12304688 C-235.28593432 420.2441285 -242.03940375 421.37641443 -248.7919994 422.51435435 C-254.60344008 423.49328717 -260.41602276 424.46521781 -266.22955555 425.43164861 C-269.69522684 426.00784134 -273.16042359 426.58656574 -276.62454414 427.17201614 C-280.49746368 427.82617552 -284.37272456 428.46570438 -288.24829102 429.10400391 C-289.94683228 429.39383904 -289.94683228 429.39383904 -291.6796875 429.68952942 C-308.93990641 432.49446431 -308.93990641 432.49446431 -314.6875 429.6875 C-318.4300015 422.02428263 -315.4918524 411.33629179 -314.13574219 403.2800293 C-313.83814247 401.44865166 -313.83814247 401.44865166 -313.53453064 399.58027649 C-312.99357918 396.26537762 -312.44472744 392.95200116 -311.89121532 389.63919044 C-311.42838625 386.86365452 -310.97077074 384.08726835 -310.51298928 381.31089622 C-309.4328336 374.76144673 -308.34311132 368.21363811 -307.24755859 361.66674805 C-306.11991713 354.92692173 -305.00970336 348.1843836 -303.90773845 341.4403159 C-302.95768697 335.63021687 -301.99632672 329.82206454 -301.02604604 324.01530963 C-300.44808418 320.55553511 -299.8744917 317.09518081 -299.31203461 313.63284874 C-298.68506697 309.77674962 -298.0345571 305.92482572 -297.38183594 302.07299805 C-297.19985153 300.93365814 -297.01786713 299.79431824 -296.83036804 298.62045288 C-296.64817215 297.56791824 -296.46597626 296.51538361 -296.27825928 295.43095398 C-296.0514982 294.06692963 -296.0514982 294.06692963 -295.8201561 292.67534924 C-294.09451342 287.04630274 -290.18407198 282.93414564 -286.09367943 278.84479046 C-285.61185349 278.36035724 -285.13002755 277.87592401 -284.63360083 277.376811 C-283.02332041 275.76025124 -281.40603354 274.1508941 -279.78866577 272.54142761 C-278.61889509 271.37006808 -277.4495624 270.19827102 -276.28062975 269.02607518 C-273.07137002 265.8104071 -269.85590814 262.60100426 -266.63938951 259.39259923 C-263.17020797 255.92999868 -259.70679707 252.46163449 -256.24266052 248.99398804 C-249.45812344 242.20441033 -242.66825916 235.42018418 -235.87657689 228.6377547 C-227.97238091 220.74394076 -220.07341267 212.84490436 -212.17464955 204.94565479 C-198.0863651 190.85686975 -183.99325526 176.77292146 -169.89746094 162.69165039 C-156.20860813 149.01689432 -142.52327187 135.3386317 -128.84179688 121.65649414 C-127.99865883 120.81331614 -127.15552078 119.97013813 -126.28683309 119.10140928 C-125.44517444 118.25971027 -124.60351579 117.41801126 -123.73635232 116.55080622 C-108.17210496 100.98586976 -92.60457325 85.42422189 -77.03550278 69.8641099 C-71.52279514 64.35442314 -66.01106873 58.84375593 -60.49964523 53.33278465 C-53.7894432 46.62326342 -47.07736207 39.91562847 -40.36289905 33.21037128 C-36.93462427 29.7867258 -33.50715373 26.36228528 -30.08181953 22.93569756 C-26.95064087 19.80342854 -23.81718481 16.67345732 -20.68183608 13.54536263 C-19.54377448 12.40912294 -18.40656607 11.27202797 -17.2702667 10.13402595 C-15.73400335 8.59571449 -14.19474142 7.06046957 -12.65463829 5.52600384 C-11.36949965 4.24192183 -11.36949965 4.24192183 -10.0583986 2.93189877 C-6.72426375 -0.19733529 -4.5426298 -0.67298219 0 0 Z M-5.9155246 22.66597694 C-6.70458345 23.45525316 -7.49364229 24.24452937 -8.30661201 25.05772305 C-9.21627696 25.9627892 -10.12594191 26.86785535 -11.06317246 27.80034775 C-12.07924312 28.82143441 -13.09522042 29.84261399 -14.1111145 30.86387634 C-15.184863 31.93603825 -16.259049 33.00776216 -17.33363712 34.07908255 C-20.29805544 37.03705738 -23.2561575 40.00128064 -26.21330857 42.96651828 C-29.39853428 46.15829819 -32.58949349 49.34433673 -35.77975464 52.53108215 C-42.03347069 58.77974588 -48.28181499 65.033755 -54.52838434 71.28956216 C-61.79481866 78.56635778 -69.06645419 85.83794643 -76.33831416 93.1093194 C-89.30794792 106.07845204 -102.27273722 119.05241684 -115.23486328 132.02905273 C-127.82824267 144.63652198 -140.42512112 157.24048133 -153.02587891 169.84057617 C-153.80197231 170.61662962 -154.57806571 171.39268307 -155.3776771 172.19225328 C-156.15239579 172.96693162 -156.92711448 173.74160995 -157.72530949 174.53976339 C-172.04842781 188.86219274 -186.36825732 203.18790625 -200.68655131 217.51515843 C-205.76034182 222.59197168 -210.83511449 227.66780193 -215.91019058 232.74333 C-222.08990148 238.92372143 -228.26772769 245.10598975 -234.44317211 251.29064434 C-237.59730384 254.44940879 -240.75223424 257.60736456 -243.90930939 260.76318741 C-246.79434548 263.64713454 -249.67708861 266.53335244 -252.55794655 269.42147309 C-253.60545814 270.4708093 -254.65382909 271.51928842 -255.70310308 272.56686234 C-257.1193812 273.98109817 -258.53233343 275.39866244 -259.94507027 276.81643581 C-260.73380441 277.60587438 -261.52253855 278.39531295 -262.33517373 279.20867389 C-264.11346165 280.71449869 -264.11346165 280.71449869 -264 282 C-263.28569824 281.96970703 -262.57139648 281.93941406 -261.83544922 281.90820312 C-225.80334908 280.39888364 -225.80334908 280.39888364 -221 282 C-220.86424561 282.825 -220.72849121 283.65 -220.58862305 284.5 C-217.01649315 306.28929093 -217.01649315 306.28929093 -213 328 C-207.46506832 329.34029736 -201.92659041 330.36745491 -196.296875 331.21875 C-195.26161682 331.37549194 -195.26161682 331.37549194 -194.20544434 331.53540039 C-191.32253442 331.96915203 -188.43903988 332.39869765 -185.5546875 332.82275391 C-183.42625376 333.13696489 -181.2990513 333.45865162 -179.171875 333.78125 C-177.9147168 333.96751953 -176.65755859 334.15378906 -175.36230469 334.34570312 C-172.31727517 334.93825897 -169.77418661 335.62379842 -167 337 C-165.45179349 340.09641302 -165.85471019 343.35363128 -165.875 346.75 C-165.87693359 347.52972168 -165.87886719 348.30944336 -165.88085938 349.11279297 C-165.95129613 359.08546295 -166.4770046 369.04266168 -167 379 C-160.81853941 373.88869018 -155.17464569 368.31243474 -149.51539612 362.63565063 C-148.4618686 361.58255972 -147.40812114 360.52968879 -146.35417408 359.47701776 C-143.47174284 356.59681407 -140.59242472 353.71351597 -137.71362126 350.82968688 C-134.60373751 347.71547376 -131.49095305 344.60416236 -128.37852478 341.49249268 C-122.99075552 336.10524707 -117.60481627 330.71617752 -112.2201252 325.32585526 C-104.43481838 317.53241205 -96.64674284 309.74174048 -88.85799467 301.95173673 C-76.22051076 289.31206567 -63.58526038 276.67016432 -50.95141602 264.02685547 C-38.68077964 251.74703628 -26.40909059 239.46827064 -14.13598633 227.19091797 C-13.37912852 226.43379743 -12.6222707 225.6766769 -11.84247781 224.89661331 C-8.04543537 221.09826581 -4.24837224 217.29993898 -0.45129883 213.50162244 C31.03567476 182.00428671 62.51902308 150.50332922 94 119 C92.44160712 115.72435295 90.77863939 113.52749048 88.2043457 110.95037842 C87.41355621 110.15394928 86.62276672 109.35752014 85.80801392 108.53695679 C84.93937714 107.67236847 84.07074036 106.80778015 83.17578125 105.91699219 C82.26186615 104.99957245 81.34795105 104.08215271 80.40634155 103.13693237 C77.90280956 100.62428947 75.3930007 98.11800576 72.88174057 95.61308956 C70.25581186 92.9922245 67.63476641 90.36648321 65.01293945 87.74151611 C60.61150255 83.33644192 56.20586784 78.93559909 51.79785156 74.53710938 C46.69648441 69.44663982 41.60238056 64.34898692 36.51196384 59.24756885 C32.14362843 54.8701699 27.77142312 50.49666497 23.3959341 46.12641644 C20.78145779 43.51506325 18.1683637 40.90236546 15.55874634 38.2861557 C12.65292697 35.37350865 9.73903738 32.46907071 6.82421875 29.56542969 C5.95558197 28.69274445 5.08694519 27.8200592 4.19198608 26.92092896 C3.00580185 25.74320419 3.00580185 25.74320419 1.7956543 24.54168701 C1.1069072 23.85369396 0.4181601 23.16570091 -0.29145813 22.45685959 C-2.78462861 20.33095365 -3.46109031 20.53129752 -5.9155246 22.66597694 Z M-251.23779297 297.79956055 C-252.8184552 297.8908956 -254.39918433 297.98108098 -255.97998047 298.07006836 C-258.27066663 298.19903654 -260.56112327 298.33156974 -262.8515625 298.46484375 C-263.5477066 298.50343002 -264.24385071 298.5420163 -264.96109009 298.58177185 C-269.67451739 298.86140941 -274.31960427 299.37444144 -279 300 C-280.00350058 305.58559404 -281.0002041 311.17234307 -281.99072266 316.76025391 C-282.32838987 318.65967244 -282.66788802 320.55876645 -283.00927734 322.45751953 C-283.50063046 325.1921933 -283.9853128 327.92797968 -284.46875 330.6640625 C-284.62186646 331.50804596 -284.77498291 332.35202942 -284.93273926 333.22158813 C-285.32765338 335.47696322 -285.66808044 337.73468931 -286 340 C-286.18820312 341.01312256 -286.37640625 342.02624512 -286.5703125 343.07006836 C-285.60545021 348.02696576 -281.95054522 350.79993638 -278.40625 354.21484375 C-277.62616577 354.98880997 -276.84608154 355.76277618 -276.0423584 356.56019592 C-273.54194901 359.03366474 -271.0212495 361.48529617 -268.5 363.9375 C-266.83201668 365.58395365 -265.16533448 367.23172656 -263.5 368.88085938 C-257.05468099 375.238466 -250.63843699 381.56574856 -243.74055481 387.4356842 C-242.02078612 388.98131856 -240.49876826 390.60186627 -238.98046875 392.34375 C-238.51447266 392.86710937 -238.04847656 393.39046875 -237.56835938 393.9296875 C-236.63719697 394.98860486 -235.72847107 396.06762359 -234.84179688 397.1640625 C-232.64635995 399.56127483 -231.08132755 400.89025866 -227.78442383 401.22485352 C-224.80342822 401.00444876 -221.94176315 400.5350223 -219 400 C-217.64328904 399.77598302 -216.28625207 399.55393456 -214.92895508 399.33349609 C-210.38166857 398.58046568 -205.84737394 397.76146128 -201.3125 396.9375 C-199.72468626 396.65256601 -198.13679608 396.36805765 -196.54882812 396.08398438 C-192.69832085 395.39422143 -188.84889053 394.69872559 -185 394 C-184.67973854 390.60485555 -184.37045857 387.20878067 -184.0625 383.8125 C-183.97548828 382.89146484 -183.88847656 381.97042969 -183.79882812 381.02148438 C-182.87289375 370.69903081 -182.44985222 360.35191382 -182 350 C-183.25135742 349.80889648 -184.50271484 349.61779297 -185.79199219 349.42089844 C-190.43887479 348.70680212 -195.08213323 347.9711633 -199.72460938 347.22900391 C-201.73345261 346.91094787 -203.74322822 346.59872321 -205.75390625 346.29248047 C-208.64588769 345.85096749 -211.53385459 345.388511 -214.421875 344.921875 C-215.31992859 344.78940369 -216.21798218 344.65693237 -217.14324951 344.52044678 C-220.72562785 343.92445673 -223.40866628 343.37574029 -226.49438477 341.41503906 C-228.68521823 337.90089529 -229.1208497 334.50045049 -229.66796875 330.4375 C-229.79311356 329.60919678 -229.91825836 328.78089355 -230.04719543 327.92749023 C-230.44287704 325.28702174 -230.81574211 322.64393246 -231.1875 320 C-231.57500176 317.35700231 -231.96707794 314.71471544 -232.35993958 312.07250977 C-232.60235081 310.43038652 -232.84070576 308.78765808 -233.07450867 307.14428711 C-233.56687782 303.70869494 -234.11701043 300.35586732 -235 297 C-240.40876221 297 -245.83841772 297.48598016 -251.23779297 297.79956055 Z M-290 366 C-291.00350058 371.58559404 -292.0002041 377.17234307 -292.99072266 382.76025391 C-293.32838987 384.65967244 -293.66788802 386.55876645 -294.00927734 388.45751953 C-294.50063046 391.1921933 -294.9853128 393.92797968 -295.46875 396.6640625 C-295.62186646 397.50804596 -295.77498291 398.35202942 -295.93273926 399.22158813 C-296.6889444 403.54031502 -297.17448129 407.59434735 -297 412 C-286.92534501 411.44070668 -277.1553192 409.7472861 -267.25 407.9375 C-265.66675852 407.65248409 -264.08342564 407.36797542 -262.5 407.08398438 C-258.66558993 406.39515454 -254.83247492 405.69951287 -251 405 C-255.30150522 399.86187175 -259.80662025 395.0461448 -264.55078125 390.31640625 C-265.25019333 389.61603745 -265.94960541 388.91566864 -266.67021179 388.19407654 C-268.13544009 386.72817238 -269.60191334 385.26351161 -271.06958008 383.80004883 C-273.32685682 381.54817756 -275.57868445 379.2909546 -277.83007812 377.03320312 C-279.25749154 375.60644965 -280.68521465 374.18000594 -282.11328125 372.75390625 C-283.12724724 371.73690392 -283.12724724 371.73690392 -284.16169739 370.69935608 C-284.78291977 370.08128586 -285.40414215 369.46321564 -286.04418945 368.82641602 C-286.59234818 368.27905289 -287.1405069 367.73168976 -287.70527649 367.16773987 C-288.8331743 365.88837451 -288.8331743 365.88837451 -290 366 Z " fill="#000000" transform="translate(356,41)"/>
</svg>
