<?xml version="1.0" encoding="UTF-8"?>
<svg version="1.1" xmlns="http://www.w3.org/2000/svg" width="512" height="512">
<path d="M0 0 C0.65582152 -0.00367669 1.31164304 -0.00735338 1.98733795 -0.01114148 C4.16505928 -0.0220754 6.34273276 -0.0260043 8.52047729 -0.02983093 C10.08973336 -0.03610289 11.65898795 -0.04275033 13.22824097 -0.04974365 C18.36063624 -0.07068229 23.4930315 -0.08112978 28.62545776 -0.09111023 C30.39571015 -0.09516024 32.16596237 -0.09927724 33.93621445 -0.10346031 C42.24691134 -0.12248186 50.55759946 -0.1367247 58.86831391 -0.14507228 C68.45610339 -0.15486304 78.04366314 -0.18124298 87.63137162 -0.22157317 C95.04979052 -0.2517075 102.46814338 -0.26653821 109.88662231 -0.26985329 C114.31505361 -0.27220488 118.74323858 -0.28118099 123.17160416 -0.30631447 C127.33316639 -0.32955637 131.49431931 -0.33384429 135.65592957 -0.32355309 C137.18255346 -0.32305683 138.70919728 -0.32940379 140.23575974 -0.34310913 C142.32075123 -0.36078111 144.40426569 -0.35374754 146.48925781 -0.34057617 C148.2385493 -0.3441587 148.2385493 -0.3441587 150.02318001 -0.34781361 C153.7721268 0.25186061 155.42598658 1.52280924 158.11764526 4.14717102 C159.97619808 7.86427665 159.69672966 12.09994383 159.11764526 16.14717102 C156.59088488 19.49342126 155.07830984 20.82694949 151.11764526 22.14717102 C149.09518975 22.2420251 147.06970602 22.27617318 145.04502869 22.2784729 C143.13852791 22.28448517 143.13852791 22.28448517 141.19351196 22.2906189 C139.78158567 22.29014376 138.3696594 22.28960764 136.95773315 22.28901672 C135.47251787 22.29204872 133.98730351 22.29557029 132.50209045 22.29954529 C129.29858865 22.30743889 126.09509801 22.31258128 122.89158821 22.31583595 C117.80727384 22.32175923 112.72302903 22.33831771 107.63874817 22.35717773 C105.8947802 22.36351588 104.15081219 22.36984149 102.40684414 22.3761549 C101.09627916 22.38090362 101.09627916 22.38090362 99.75923812 22.38574827 C87.9253509 22.42770526 76.09149437 22.46072157 64.25753784 22.47309875 C56.27443283 22.48153405 48.29149874 22.50423329 40.30847925 22.54245442 C36.09249169 22.56205007 31.87675866 22.57467582 27.66072273 22.56962013 C-11.62625725 22.53146519 -44.33629531 29.47379913 -73.56985474 57.39717102 C-85.58310442 69.82948755 -94.60275812 84.74669974 -100.19485474 101.08467102 C-100.54048462 102.08385559 -100.54048462 102.08385559 -100.89309692 103.10322571 C-105.34826618 116.97901719 -106.32931964 130.59794058 -106.31472778 145.03779602 C-106.3237684 146.87265167 -106.33410116 148.70750132 -106.34561157 150.54234314 C-106.3729379 155.47100699 -106.38243257 160.39955551 -106.38846564 165.32828522 C-106.39791346 170.49859086 -106.42412149 175.66881248 -106.44847107 180.83906555 C-106.49196478 190.60623963 -106.52061656 200.37339723 -106.54379445 210.14063835 C-106.57093848 221.27022982 -106.61484394 232.39973603 -106.66008317 243.52926636 C-106.75268384 266.40185487 -106.82447652 289.27447012 -106.88235474 312.14717102 C-106.15404418 311.78025036 -106.15404418 311.78025036 -105.41102028 311.40591717 C-93.56198184 305.43710763 -81.70839887 299.47741054 -69.84993935 293.52733898 C-64.1152646 290.64958245 -58.38211054 287.76888027 -52.65237427 284.88130188 C-47.11864685 282.09264329 -41.58100178 279.31191188 -36.04059982 276.53653908 C-33.93179475 275.47845271 -31.82439546 274.41755957 -29.7184639 273.35376549 C-26.75939771 271.85962931 -23.7954049 270.37572186 -20.83010864 268.89399719 C-19.53753143 268.23692276 -19.53753143 268.23692276 -18.21884155 267.5665741 C-11.1988822 264.08008809 -3.62760084 260.78401705 4.33639526 260.74873352 C5.20651245 260.74486633 6.07662964 260.74099915 6.97311401 260.73701477 C7.84580933 260.74861633 8.71850464 260.7602179 9.61764526 260.77217102 C10.49034058 260.76056946 11.36303589 260.7489679 12.26217651 260.73701477 C23.21153181 260.78567857 32.05954216 264.81120198 41.74264526 269.58467102 C42.81280884 270.10456604 43.88297241 270.62446106 44.98556519 271.16011047 C50.65701053 273.9247172 56.3042999 276.73606661 61.94186401 279.56904602 C63.57550903 280.38997742 63.57550903 280.38997742 65.24215698 281.22749329 C67.33084577 282.28047523 69.41720701 283.33808977 71.50094604 284.40083313 C72.4430896 284.87786682 73.38523315 285.35490051 74.35592651 285.84638977 C75.18132935 286.26751038 76.00673218 286.68863098 76.85714722 287.12251282 C83.85778869 290.29582444 92.48969683 290.18399865 99.80514526 288.08467102 C104.98998122 286.07195295 108.93028666 282.73447201 113.11764526 279.14717102 C114.140435 278.28442334 115.16391299 277.42249114 116.18795776 276.56123352 C118.41744055 274.6822313 120.64026289 272.79568046 122.85983276 270.90498352 C125.74998525 268.44928731 128.67543262 266.04039938 131.61764526 263.64717102 C135.65747663 260.35893619 139.64856591 257.01995676 143.61764526 253.64717102 C148.46723907 249.52615468 153.36925333 245.47725748 158.30514526 241.45967102 C161.43565174 238.88569903 164.52900616 236.27106334 167.61764526 233.64717102 C187.48915166 216.80328499 203.20597628 205.19489142 230.11764526 207.14717102 C251.58402913 210.95326745 265.63380134 228.51760818 280.24264526 243.20967102 C281.78668151 244.75873301 283.33095052 246.30756302 284.87545776 247.8561554 C288.62554094 251.61715745 292.37274215 255.38101141 296.11764526 259.14717102 C296.12129089 258.54661896 296.12493652 257.94606689 296.12869263 257.32731628 C296.17056978 251.0650542 296.23995205 244.80352146 296.32516479 238.54170227 C296.35335455 236.20616457 296.37457896 233.87053182 296.38864136 231.53486633 C296.41009772 228.17336943 296.45676433 224.81301295 296.50827026 221.45185852 C296.5094989 220.41101105 296.51072754 219.37016357 296.51199341 218.29777527 C296.63282922 212.2888781 297.10664498 208.72452961 301.11764526 204.14717102 C303.98660271 202.14174136 306.10465745 201.88076837 309.55514526 202.20967102 C310.2963562 202.26252258 311.03756714 202.31537415 311.80123901 202.36982727 C315.40604166 203.57953339 316.80096347 205.10646436 319.11764526 208.14717102 C319.86557718 211.83112858 319.7903929 215.46517616 319.74874878 219.21357727 C319.75948174 220.89045624 319.75948174 220.89045624 319.77043152 222.60121155 C319.78736095 226.30444532 319.76786923 230.00647425 319.74655151 233.70967102 C319.74738074 236.2978068 319.74984216 238.88594252 319.75386047 241.47407532 C319.75672263 246.9115054 319.74252618 252.34849342 319.71456909 257.7858429 C319.68277379 264.01652487 319.68243091 270.24657845 319.69978386 276.4773035 C319.71584377 282.51561235 319.70867385 288.55366068 319.69184685 294.59196472 C319.68671771 297.13682044 319.68708162 299.68169417 319.6933918 302.22654724 C319.75929244 344.83525493 306.88658421 380.04128963 276.70016479 410.58125305 C249.78471827 437.33038374 214.0414487 448.64980193 176.79440308 448.55122375 C174.81613788 448.55694176 172.83787598 448.56391148 170.85961914 448.57202148 C165.53702306 448.58981237 160.21459311 448.58881097 154.89197636 448.5830791 C150.42447079 448.57996599 145.95699617 448.58610326 141.48949504 448.59211785 C130.93648194 448.60611601 120.38354986 448.60464185 109.83053589 448.59321594 C98.99860351 448.5817461 88.16691907 448.59580228 77.33501935 448.62261242 C67.98493896 448.64487543 58.63493578 448.65138286 49.28483081 448.64553601 C43.72260516 448.64218966 38.16053824 448.64442475 32.59833527 448.66178703 C27.36136927 448.67742371 22.1247661 448.67311822 16.88781357 448.65448189 C14.98412767 448.65084141 13.08041387 448.65376871 11.176754 448.66436768 C-26.79406684 448.85936303 -60.29684817 435.17985106 -87.88235474 409.14717102 C-88.61969849 408.4742804 -89.35704224 407.80138977 -90.11672974 407.10810852 C-105.47880949 392.56316067 -116.11401282 373.28426092 -122.88235474 353.39717102 C-123.28212524 352.23097229 -123.28212524 352.23097229 -123.68997192 351.04121399 C-128.42102466 336.13503165 -129.32746502 321.33722384 -129.28640747 305.82392883 C-129.29212548 303.84566364 -129.2990952 301.86740173 -129.3072052 299.8891449 C-129.32499608 294.56654882 -129.32399468 289.24411887 -129.31826282 283.92150211 C-129.31514971 279.45399655 -129.32128698 274.98652193 -129.32730156 270.5190208 C-129.34129972 259.96600769 -129.33982556 249.41307562 -129.32839966 238.86006165 C-129.31692981 228.02812927 -129.33098599 217.19644483 -129.35779613 206.36454511 C-129.38005915 197.01446472 -129.38656657 187.66446154 -129.38071972 178.31435657 C-129.37737338 172.75213092 -129.37960847 167.19006399 -129.39697075 161.62786102 C-129.41260743 156.39089503 -129.40830194 151.15429185 -129.3896656 145.91733932 C-129.38602513 144.01365343 -129.38895243 142.10993962 -129.39955139 140.20627975 C-129.59773881 101.61387818 -115.51614487 67.79288328 -88.88235474 40.14717102 C-88.24040161 39.44205383 -87.59844849 38.73693665 -86.93704224 38.01045227 C-65.74003739 15.39113757 -30.97267365 0.11342502 0 0 Z M193.11764526 242.14717102 C190.96023318 243.99149689 188.78799996 245.81810923 186.61764526 247.64717102 C185.51344088 248.5846266 184.40927388 249.52212621 183.30514526 250.45967102 C179.55359848 253.63405676 175.74143461 256.73245876 171.93014526 259.83467102 C168.7996486 262.40863494 165.70592066 265.02286188 162.61764526 267.64717102 C157.76447927 271.77122287 152.85951561 275.8238264 147.91842651 279.84248352 C145.40053582 281.914388 142.91260066 284.01513768 140.43356323 286.13301086 C137.67458896 288.4866186 134.89895939 290.82002988 132.11764526 293.14717102 C131.53547241 293.63572571 130.95329956 294.1242804 130.35348511 294.62763977 C118.08045854 304.85124867 106.39990242 311.49825374 89.99264526 311.52217102 C89.13155151 311.54666321 88.27045776 311.5711554 87.38327026 311.59638977 C71.31288394 311.66749767 57.62377029 303.16629911 43.74264526 296.02217102 C40.76577267 294.49585427 37.78741591 292.97269608 34.80523682 291.45677185 C32.96215086 290.51937252 31.12213059 289.5759122 29.2857666 288.62541199 C20.4062072 284.09897304 11.49802905 281.0515018 1.50303078 283.88959408 C-4.82330996 286.25924505 -10.89097461 288.93119289 -16.92776489 291.95991516 C-17.86410767 292.42385178 -18.80045044 292.88778839 -19.76516724 293.36578369 C-22.82036208 294.88179903 -25.87108933 296.40654576 -28.92141724 297.93232727 C-31.05552743 298.99582868 -33.18975581 300.05909295 -35.32409668 301.12213135 C-39.77576866 303.34127107 -44.22506205 305.56509701 -48.67288208 307.79194641 C-54.38298768 310.64996449 -60.10030312 313.49322691 -65.81962013 316.332757 C-70.21867803 318.51939897 -74.61314627 320.71513783 -79.00632858 322.91355705 C-81.1139636 323.96652613 -83.22319995 325.01629614 -85.33403397 326.0628376 C-88.2711565 327.5203927 -91.20170922 328.990386 -94.13088989 330.46382141 C-95.00768402 330.89558685 -95.88447815 331.32735229 -96.7878418 331.77220154 C-97.58107849 332.17442429 -98.37431519 332.57664703 -99.19158936 332.99105835 C-99.88431757 333.3370662 -100.57704578 333.68307405 -101.29076576 334.03956699 C-103.21276002 335.141632 -103.21276002 335.141632 -103.88235474 338.14717102 C-103.17019954 340.97195399 -102.38118625 343.64680445 -101.44485474 346.39717102 C-101.17334595 347.19840393 -100.90183716 347.99963684 -100.62210083 348.82514954 C-94.73878362 365.53092631 -84.97490224 379.30160774 -72.88235474 392.14717102 C-72.34352661 392.75045227 -71.80469849 393.35373352 -71.24954224 393.97529602 C-59.82326357 406.26285197 -43.73067371 415.04515413 -28.00735474 420.45967102 C-27.3496106 420.69009094 -26.69186646 420.92051086 -26.01419067 421.15791321 C-11.70909786 425.77267787 2.73136054 426.5925392 17.63058472 426.55122375 C19.52180378 426.55694274 21.41301941 426.56391282 23.30422974 426.57202148 C28.38916525 426.5898006 33.47392678 426.58881338 38.55888391 426.5830791 C42.82765801 426.57996459 47.09639976 426.58610471 51.36516923 426.59211785 C61.44829793 426.60611181 71.53134182 426.60464507 81.61447144 426.59321594 C91.9635964 426.58174342 102.31246193 426.59580773 112.66155273 426.62261242 C121.59633511 426.6448744 130.5310367 426.65138318 139.46584481 426.64553601 C144.7804427 426.64218979 150.09487447 426.644424 155.40944862 426.66178703 C160.41249626 426.67742239 165.4151641 426.67311973 170.41819763 426.65448189 C172.236838 426.65084121 174.05550758 426.65376935 175.87412071 426.66436768 C209.78257579 426.84663587 239.96834565 415.14115115 264.30514526 391.39717102 C279.00348728 376.52613308 288.63479645 358.20648245 294.11764526 338.14717102 C294.29698608 337.49119934 294.4763269 336.83522766 294.66110229 336.15937805 C295.71141257 332.06973894 296.30173017 328.05292818 296.77088928 323.87234497 C297.01402901 321.96149673 297.31206331 320.05721253 297.65031433 318.16088867 C299.33951231 308.16969316 300.65119511 297.21703379 294.87295532 288.3457489 C288.28038474 279.39452788 279.82373359 271.92554875 271.6244812 264.48786926 C268.26870739 261.40990617 265.00430322 258.23786826 261.72702026 255.07685852 C244.09994416 236.65141057 244.09994416 236.65141057 220.86764526 228.77217102 C209.08116865 229.07810416 201.66946707 234.55713947 193.11764526 242.14717102 Z " fill="#000000" transform="translate(160.88235473632813,31.852828979492188)"/>
<path d="M0 0 C14.64313165 -0.66738134 28.57248091 3.9940872 39.81640625 13.34375 C49.89999441 22.84010757 56.69770678 35.85934578 57.4921875 49.80859375 C57.69258258 66.89227457 53.71701036 80.27927769 41.70703125 92.953125 C30.16316362 103.88156835 16.16054887 108.84733642 0.3515625 108.484375 C-14.31403518 107.32459559 -27.33483451 100.91761854 -37.30078125 90.203125 C-46.11851057 79.37032302 -50.30343175 68.27639632 -50.1484375 54.3671875 C-50.14013916 53.40192139 -50.13184082 52.43665527 -50.12329102 51.44213867 C-49.75328999 35.80597451 -42.96179895 23.37163808 -31.71484375 12.60546875 C-22.39574013 5.27379425 -11.74438898 1.04921054 0 0 Z M-18.9609375 31.9921875 C-26.02434157 39.43027116 -28.10702236 46.99651176 -27.984375 57.078125 C-27.15632501 66.6598463 -22.06463743 73.6682656 -14.9140625 79.77734375 C-8.56802243 84.59303345 -1.29034455 86.6537831 6.671875 86.06640625 C16.25828331 84.57886013 23.81295323 79.74640811 29.88671875 72.2578125 C34.48537278 65.64804793 36.0412023 58.22322648 35.2890625 50.2421875 C33.43246042 40.34555437 28.52605542 33.05653545 20.2890625 27.2421875 C6.80318127 19.80862913 -7.61317391 21.31440257 -18.9609375 31.9921875 Z " fill="#000000" transform="translate(177.7109375,105.7578125)"/>
<path d="M0 0 C0.81670166 0.53262451 1.63340332 1.06524902 2.47485352 1.61401367 C3.31663902 2.13335732 3.31663902 2.13335732 4.1754303 2.66319275 C6.22226728 3.94352328 8.22374079 5.27901386 10.22485352 6.62963867 C10.96058594 7.12308777 11.69631836 7.61653687 12.4543457 8.12493896 C14.00582328 9.16812991 15.55559561 10.21386091 17.10375977 11.26196289 C19.46042506 12.85426496 21.82658827 14.43168347 24.19360352 16.00854492 C25.70462562 17.02717865 27.21506196 18.04668194 28.72485352 19.06713867 C29.42707031 19.53299377 30.12928711 19.99884888 30.8527832 20.4788208 C35.46631985 23.62936155 40.40236531 27.18205141 42.13891602 32.73901367 C42.02312464 38.29699967 40.45053508 40.73299119 36.47485352 44.61401367 C33.21631654 46.24328216 29.99598907 46.15902422 26.47485352 45.61401367 C23.40924792 44.27315895 20.72973066 42.50161468 17.97485352 40.61401367 C17.24782227 40.13706055 16.52079102 39.66010742 15.77172852 39.16870117 C13.99533047 38.00001825 12.23351504 36.80922053 10.47485352 35.61401367 C10.47120789 36.30226227 10.46756226 36.99051086 10.46380615 37.69961548 C10.42196008 44.87015414 10.35259875 52.040054 10.26733398 59.21020508 C10.23692408 61.88546577 10.21791307 64.56011921 10.20385742 67.2355957 C10.18242448 71.08352288 10.13576835 74.93044892 10.08422852 78.77807617 C10.08238556 80.56902206 10.08238556 80.56902206 10.08050537 82.39614868 C9.96957521 88.70086848 9.84498369 92.88089889 5.47485352 97.61401367 C1.7603212 99.47127983 -2.48094074 99.19902457 -6.52514648 98.61401367 C-9.34938937 96.4237845 -10.94023252 94.78384161 -12.52514648 91.61401367 C-12.64459125 89.82746837 -12.70236966 88.03665116 -12.73046875 86.24633789 C-12.75041397 85.12532684 -12.77035919 84.0043158 -12.79090881 82.84933472 C-12.80762131 81.63472565 -12.8243338 80.42011658 -12.84155273 79.16870117 C-12.86233383 77.92855255 -12.88311493 76.68840393 -12.90452576 75.41067505 C-12.95892354 72.11289545 -13.00914744 68.81508647 -13.05737305 65.51721191 C-13.10759883 62.15228714 -13.16327926 58.78745317 -13.21850586 55.42260742 C-13.32576206 48.81981513 -13.42751838 42.21695496 -13.52514648 35.61401367 C-14.58733398 36.33588867 -15.64952148 37.05776367 -16.74389648 37.80151367 C-18.17035081 38.73997046 -19.59746991 39.67741734 -21.02514648 40.61401367 C-21.72124023 41.0909668 -22.41733398 41.56791992 -23.13452148 42.05932617 C-28.21130087 45.34983133 -31.47903989 46.24673144 -37.52514648 45.61401367 C-40.62225211 44.07427615 -42.96319617 41.73791429 -44.52514648 38.61401367 C-45.31996223 31.91485235 -45.31996223 31.91485235 -43.4611969 28.87269592 C-39.50118552 24.34453826 -35.23077988 20.94570223 -30.23999023 17.61010742 C-29.46128067 17.08256363 -28.68257111 16.55501984 -27.88026428 16.01148987 C-26.2458669 14.90970819 -24.60781684 13.81332715 -22.96630859 12.72216797 C-20.45239571 11.04467349 -17.96062872 9.33733226 -15.46850586 7.62768555 C-13.87275522 6.55745319 -12.27579095 5.4890277 -10.67749023 4.42260742 C-9.93466293 3.90927353 -9.19183563 3.39593964 -8.42649841 2.86705017 C-3.27311136 -0.500318 -3.27311136 -0.500318 0 0 Z " fill="#000000" transform="translate(417.525146484375,29.385986328125)"/>
</svg>
