<?xml version="1.0" encoding="UTF-8"?>
<svg version="1.1" xmlns="http://www.w3.org/2000/svg" width="512" height="512">
<path d="M0 0 C2.5 1.5 2.5 1.5 4 4 C4.60845647 7.31885345 4.85612632 8.86468795 4 12 C2.63978549 13.9224408 2.63978549 13.9224408 0.88045198 15.8343392 C0.24384245 16.53016543 -0.39276708 17.22599166 -1.04866781 17.94290353 C-3.91928263 20.96910873 -6.81940053 23.95698684 -9.77473164 26.90057278 C-10.42210298 27.54939756 -11.06947432 28.19822235 -11.73646298 28.86670849 C-13.89416416 31.02804278 -16.05538744 33.18581908 -18.21662903 35.34361267 C-19.7847559 36.91289241 -21.35266482 38.48238997 -22.92037505 40.05208594 C-27.21964715 44.35552833 -31.52202747 48.65585139 -35.82493436 52.95565903 C-39.99099359 57.1196877 -44.15470335 61.2860635 -48.3184912 65.45236323 C-57.35633738 74.49546891 -66.39703529 83.53571933 -75.43895685 92.57474997 C-83.34798143 100.48125824 -91.256075 108.38869624 -99.16324425 116.29706001 C-99.68789825 116.8217904 -100.21255225 117.34652079 -100.75310486 117.8871521 C-102.88282049 120.01717906 -105.01253258 122.14720956 -107.14223886 124.27724586 C-127.1106126 144.24867712 -147.08189904 164.21719343 -167.05449351 184.18440361 C-184.8079056 201.93306608 -202.55872494 219.68431772 -220.30737305 237.43774414 C-240.24731356 257.38303496 -260.18886302 277.32671486 -280.13302535 297.26778418 C-282.25729828 299.39173638 -284.38156726 301.51569253 -286.50583458 303.63965034 C-287.02888826 304.16262495 -287.55194195 304.68559956 -288.09084574 305.22442188 C-295.99933404 313.13177133 -303.90658514 321.04035655 -311.81324196 328.94953728 C-320.79616887 337.93531735 -329.78086826 346.91932084 -338.7679405 355.90095507 C-343.35672681 360.48710438 -347.94469347 365.07406603 -352.53051567 369.6631794 C-356.72187439 373.85750083 -360.91550347 378.04953776 -365.11101695 382.23970313 C-366.63458813 383.76215007 -368.15730209 385.28545541 -369.67910645 386.80966841 C-371.73528091 388.86884947 -373.79445887 390.92497755 -375.85447407 392.98031521 C-376.45526603 393.58344834 -377.05605799 394.18658147 -377.67505577 394.80799136 C-382.79321202 399.90267839 -382.79321202 399.90267839 -387.875 400.3125 C-390.82968653 400.25340627 -391.89058393 400.06564964 -394.5 398.5 C-396.19051182 395.6824803 -396.74621266 393.42621681 -396.5816905 390.1302712 C-395.85862296 387.48224798 -394.73432276 386.18029451 -392.88045198 384.1656608 C-392.24384245 383.46983457 -391.60723292 382.77400834 -390.95133219 382.05709647 C-388.08071737 379.03089127 -385.18059947 376.04301316 -382.22526836 373.09942722 C-381.57789702 372.45060244 -380.93052568 371.80177765 -380.26353702 371.13329151 C-378.10583584 368.97195722 -375.94461256 366.81418092 -373.78337097 364.65638733 C-372.2152441 363.08710759 -370.64733518 361.51761003 -369.07962495 359.94791406 C-364.78035285 355.64447167 -360.47797253 351.34414861 -356.17506564 347.04434097 C-352.00900641 342.8803123 -347.84529665 338.7139365 -343.6815088 334.54763677 C-334.64366262 325.50453109 -325.60296471 316.46428067 -316.56104315 307.42525003 C-308.65201857 299.51874176 -300.743925 291.61130376 -292.83675575 283.70293999 C-292.31210175 283.1782096 -291.78744775 282.65347921 -291.24689514 282.1128479 C-289.11717951 279.98282094 -286.98746742 277.85279044 -284.85776114 275.72275414 C-264.8893874 255.75132288 -244.91810096 235.78280657 -224.94550649 215.81559639 C-207.1920944 198.06693392 -189.44127506 180.31568228 -171.69262695 162.56225586 C-151.75268644 142.61696504 -131.81113698 122.67328514 -111.86697465 102.73221582 C-109.74270172 100.60826362 -107.61843274 98.48430747 -105.49416542 96.36034966 C-104.97111174 95.83737505 -104.44805805 95.31440044 -103.90915426 94.77557812 C-96.00066596 86.86822867 -88.09341486 78.95964345 -80.18675804 71.05046272 C-71.20383113 62.06468265 -62.21913174 53.08067916 -53.2320595 44.09904493 C-48.64327319 39.51289562 -44.05530653 34.92593397 -39.46948433 30.3368206 C-35.27812561 26.14249917 -31.08449653 21.95046224 -26.88898305 17.76029687 C-25.36541187 16.23784993 -23.84269791 14.71454459 -22.32089355 13.19033159 C-20.26471909 11.13115053 -18.20554113 9.07502245 -16.14552593 7.01968479 C-15.54473397 6.41655166 -14.94394201 5.81341853 -14.32494423 5.19200864 C-9.66076202 0.54921396 -6.67156762 -0.90975922 0 0 Z " fill="#000000" transform="translate(484,88)"/>
<path d="M0 0 C2.5 1.5 2.5 1.5 4 4 C4.60845647 7.31885345 4.85612632 8.86468795 4 12 C2.63978549 13.9224408 2.63978549 13.9224408 0.88045198 15.8343392 C0.24384245 16.53016543 -0.39276708 17.22599166 -1.04866781 17.94290353 C-3.91928263 20.96910873 -6.81940053 23.95698684 -9.77473164 26.90057278 C-10.42210298 27.54939756 -11.06947432 28.19822235 -11.73646298 28.86670849 C-13.89416416 31.02804278 -16.05538744 33.18581908 -18.21662903 35.34361267 C-19.7847559 36.91289241 -21.35266482 38.48238997 -22.92037505 40.05208594 C-27.21964715 44.35552833 -31.52202747 48.65585139 -35.82493436 52.95565903 C-39.99099359 57.1196877 -44.15470335 61.2860635 -48.3184912 65.45236323 C-57.35633738 74.49546891 -66.39703529 83.53571933 -75.43895685 92.57474997 C-83.34798143 100.48125824 -91.256075 108.38869624 -99.16324425 116.29706001 C-99.68789825 116.8217904 -100.21255225 117.34652079 -100.75310486 117.8871521 C-102.88282049 120.01717906 -105.01253258 122.14720956 -107.14223886 124.27724586 C-127.1106126 144.24867712 -147.08189904 164.21719343 -167.05449351 184.18440361 C-184.8079056 201.93306608 -202.55872494 219.68431772 -220.30737305 237.43774414 C-240.24731356 257.38303496 -260.18886302 277.32671486 -280.13302535 297.26778418 C-282.25729828 299.39173638 -284.38156726 301.51569253 -286.50583458 303.63965034 C-287.02888826 304.16262495 -287.55194195 304.68559956 -288.09084574 305.22442188 C-295.99933404 313.13177133 -303.90658514 321.04035655 -311.81324196 328.94953728 C-320.79616887 337.93531735 -329.78086826 346.91932084 -338.7679405 355.90095507 C-343.35672681 360.48710438 -347.94469347 365.07406603 -352.53051567 369.6631794 C-356.72187439 373.85750083 -360.91550347 378.04953776 -365.11101695 382.23970313 C-366.63458813 383.76215007 -368.15730209 385.28545541 -369.67910645 386.80966841 C-371.73528091 388.86884947 -373.79445887 390.92497755 -375.85447407 392.98031521 C-376.45526603 393.58344834 -377.05605799 394.18658147 -377.67505577 394.80799136 C-382.79321202 399.90267839 -382.79321202 399.90267839 -387.875 400.3125 C-390.82968653 400.25340627 -391.89058393 400.06564964 -394.5 398.5 C-396.19051182 395.6824803 -396.74621266 393.42621681 -396.5816905 390.1302712 C-395.85862296 387.48224798 -394.73432276 386.18029451 -392.88045198 384.1656608 C-392.24384245 383.46983457 -391.60723292 382.77400834 -390.95133219 382.05709647 C-388.08071737 379.03089127 -385.18059947 376.04301316 -382.22526836 373.09942722 C-381.57789702 372.45060244 -380.93052568 371.80177765 -380.26353702 371.13329151 C-378.10583584 368.97195722 -375.94461256 366.81418092 -373.78337097 364.65638733 C-372.2152441 363.08710759 -370.64733518 361.51761003 -369.07962495 359.94791406 C-364.78035285 355.64447167 -360.47797253 351.34414861 -356.17506564 347.04434097 C-352.00900641 342.8803123 -347.84529665 338.7139365 -343.6815088 334.54763677 C-334.64366262 325.50453109 -325.60296471 316.46428067 -316.56104315 307.42525003 C-308.65201857 299.51874176 -300.743925 291.61130376 -292.83675575 283.70293999 C-292.31210175 283.1782096 -291.78744775 282.65347921 -291.24689514 282.1128479 C-289.11717951 279.98282094 -286.98746742 277.85279044 -284.85776114 275.72275414 C-264.8893874 255.75132288 -244.91810096 235.78280657 -224.94550649 215.81559639 C-207.1920944 198.06693392 -189.44127506 180.31568228 -171.69262695 162.56225586 C-151.75268644 142.61696504 -131.81113698 122.67328514 -111.86697465 102.73221582 C-109.74270172 100.60826362 -107.61843274 98.48430747 -105.49416542 96.36034966 C-104.97111174 95.83737505 -104.44805805 95.31440044 -103.90915426 94.77557812 C-96.00066596 86.86822867 -88.09341486 78.95964345 -80.18675804 71.05046272 C-71.20383113 62.06468265 -62.21913174 53.08067916 -53.2320595 44.09904493 C-48.64327319 39.51289562 -44.05530653 34.92593397 -39.46948433 30.3368206 C-35.27812561 26.14249917 -31.08449653 21.95046224 -26.88898305 17.76029687 C-25.36541187 16.23784993 -23.84269791 14.71454459 -22.32089355 13.19033159 C-20.26471909 11.13115053 -18.20554113 9.07502245 -16.14552593 7.01968479 C-15.54473397 6.41655166 -14.94394201 5.81341853 -14.32494423 5.19200864 C-9.66076202 0.54921396 -6.67156762 -0.90975922 0 0 Z " fill="#000000" transform="translate(420,24)"/>
<path d="M0 0 C2.5 1.5 2.5 1.5 4 4 C4.72957588 7.97950483 5.09405994 10.40761548 2.76573354 13.79645258 C2.21748015 14.39504208 1.66922676 14.99363157 1.10435963 15.61036015 C0.46591669 16.30801994 -0.17252625 17.00567974 -0.83031595 17.72448075 C-4.94472319 22.039585 -9.13637616 26.27360813 -13.35725403 30.48423767 C-14.3974059 31.52554361 -15.43733999 32.56706713 -16.47707671 33.6087876 C-19.31695664 36.45282119 -22.15992145 39.293753 -25.00343168 42.13415635 C-28.07606742 45.20452218 -31.14581518 48.27777316 -34.21594238 51.35064697 C-40.22204783 57.36119113 -46.23084389 63.36903843 -52.24062011 69.37591206 C-57.12261355 74.25564526 -62.00362781 79.13635589 -66.88394737 84.01776314 C-67.57903717 84.71300617 -68.27412696 85.4082492 -68.99028009 86.1245602 C-70.40234712 87.53694696 -71.81441191 88.94933596 -73.22647449 90.36172719 C-86.45461812 103.59271972 -99.68582074 116.82064979 -112.9180769 130.04752923 C-124.27939965 141.40437856 -135.6380897 152.76385549 -146.99487305 164.12524414 C-160.18438863 177.3201057 -173.37551762 190.51335082 -186.56924361 203.70400244 C-187.97454166 205.10898193 -189.37983761 206.51396352 -190.78513145 207.91894722 C-191.47657679 208.61023828 -192.16802213 209.30152935 -192.88042036 210.01376862 C-197.76064413 214.89312776 -202.63970407 219.7736488 -207.51832008 224.6546154 C-213.45633781 230.59543131 -219.39612087 236.53447527 -225.33820722 242.4712218 C-228.37158891 245.50196765 -231.40415123 248.53352184 -234.43456841 251.56723213 C-237.20480252 254.34043123 -239.97730757 257.11133805 -242.75169536 259.88038153 C-243.75844573 260.88600866 -244.76434127 261.8924924 -245.76932404 262.899886 C-247.12842193 264.2619956 -248.4908616 265.62076844 -249.85349751 266.97933865 C-250.99038422 268.11598183 -250.99038422 268.11598183 -252.15023834 269.2755875 C-255.26903546 272.18303923 -257.77489006 272.3545022 -262.0234375 272.26953125 C-264 272 -264 272 -266.5 270.5 C-268.19484714 267.67525477 -268.75321564 265.42040821 -268.56769627 262.11627251 C-267.88027991 259.55370442 -266.89278988 258.34226902 -265.10435963 256.38963985 C-264.46591669 255.69198006 -263.82747375 254.99432026 -263.16968405 254.27551925 C-259.05527681 249.960415 -254.86362384 245.72639187 -250.64274597 241.51576233 C-249.6025941 240.47445639 -248.56266001 239.43293287 -247.52292329 238.3912124 C-244.68304336 235.54717881 -241.84007855 232.706247 -238.99656832 229.86584365 C-235.92393258 226.79547782 -232.85418482 223.72222684 -229.78405762 220.64935303 C-223.77795217 214.63880887 -217.76915611 208.63096157 -211.75937989 202.62408794 C-206.87738645 197.74435474 -201.99637219 192.86364411 -197.11605263 187.98223686 C-196.42096283 187.28699383 -195.72587304 186.5917508 -195.00971991 185.8754398 C-193.59765288 184.46305304 -192.18558809 183.05066404 -190.77352551 181.63827281 C-177.54538188 168.40728028 -164.31417926 155.17935021 -151.0819231 141.95247077 C-139.72060035 130.59562144 -128.3619103 119.23614451 -117.00512695 107.87475586 C-103.81561137 94.6798943 -90.62448238 81.48664918 -77.43075639 68.29599756 C-76.02545834 66.89101807 -74.62016239 65.48603648 -73.21486855 64.08105278 C-72.52342321 63.38976172 -71.83197787 62.69847065 -71.11957964 61.98623138 C-66.23935587 57.10687224 -61.36029593 52.2263512 -56.48167992 47.3453846 C-50.54366219 41.40456869 -44.60387913 35.46552473 -38.66179278 29.5287782 C-35.62841109 26.49803235 -32.59584877 23.46647816 -29.56543159 20.43276787 C-26.79519748 17.65956877 -24.02269243 14.88866195 -21.24830464 12.11961847 C-20.24155427 11.11399134 -19.23565873 10.1075076 -18.23067596 9.100114 C-16.87157807 7.7380044 -15.5091384 6.37923156 -14.14650249 5.02066135 C-13.38857802 4.26289923 -12.63065355 3.50513711 -11.84976166 2.7244125 C-8.32446356 -0.56199365 -4.63529204 -0.63208528 0 0 Z " fill="#000000" transform="translate(292,24)"/>
<path d="M0 0 C2.5 1.5 2.5 1.5 4 4 C4.72957588 7.97950483 5.09405994 10.40761548 2.76573354 13.79645258 C2.21748015 14.39504208 1.66922676 14.99363157 1.10435963 15.61036015 C0.46591669 16.30801994 -0.17252625 17.00567974 -0.83031595 17.72448075 C-4.94472319 22.039585 -9.13637616 26.27360813 -13.35725403 30.48423767 C-14.3974059 31.52554361 -15.43733999 32.56706713 -16.47707671 33.6087876 C-19.31695664 36.45282119 -22.15992145 39.293753 -25.00343168 42.13415635 C-28.07606742 45.20452218 -31.14581518 48.27777316 -34.21594238 51.35064697 C-40.22204783 57.36119113 -46.23084389 63.36903843 -52.24062011 69.37591206 C-57.12261355 74.25564526 -62.00362781 79.13635589 -66.88394737 84.01776314 C-67.57903717 84.71300617 -68.27412696 85.4082492 -68.99028009 86.1245602 C-70.40234712 87.53694696 -71.81441191 88.94933596 -73.22647449 90.36172719 C-86.45461812 103.59271972 -99.68582074 116.82064979 -112.9180769 130.04752923 C-124.27939965 141.40437856 -135.6380897 152.76385549 -146.99487305 164.12524414 C-160.18438863 177.3201057 -173.37551762 190.51335082 -186.56924361 203.70400244 C-187.97454166 205.10898193 -189.37983761 206.51396352 -190.78513145 207.91894722 C-191.47657679 208.61023828 -192.16802213 209.30152935 -192.88042036 210.01376862 C-197.76064413 214.89312776 -202.63970407 219.7736488 -207.51832008 224.6546154 C-213.45633781 230.59543131 -219.39612087 236.53447527 -225.33820722 242.4712218 C-228.37158891 245.50196765 -231.40415123 248.53352184 -234.43456841 251.56723213 C-237.20480252 254.34043123 -239.97730757 257.11133805 -242.75169536 259.88038153 C-243.75844573 260.88600866 -244.76434127 261.8924924 -245.76932404 262.899886 C-247.12842193 264.2619956 -248.4908616 265.62076844 -249.85349751 266.97933865 C-250.99038422 268.11598183 -250.99038422 268.11598183 -252.15023834 269.2755875 C-255.26903546 272.18303923 -257.77489006 272.3545022 -262.0234375 272.26953125 C-264 272 -264 272 -266.5 270.5 C-268.19484714 267.67525477 -268.75321564 265.42040821 -268.56769627 262.11627251 C-267.88027991 259.55370442 -266.89278988 258.34226902 -265.10435963 256.38963985 C-264.46591669 255.69198006 -263.82747375 254.99432026 -263.16968405 254.27551925 C-259.05527681 249.960415 -254.86362384 245.72639187 -250.64274597 241.51576233 C-249.6025941 240.47445639 -248.56266001 239.43293287 -247.52292329 238.3912124 C-244.68304336 235.54717881 -241.84007855 232.706247 -238.99656832 229.86584365 C-235.92393258 226.79547782 -232.85418482 223.72222684 -229.78405762 220.64935303 C-223.77795217 214.63880887 -217.76915611 208.63096157 -211.75937989 202.62408794 C-206.87738645 197.74435474 -201.99637219 192.86364411 -197.11605263 187.98223686 C-196.42096283 187.28699383 -195.72587304 186.5917508 -195.00971991 185.8754398 C-193.59765288 184.46305304 -192.18558809 183.05066404 -190.77352551 181.63827281 C-177.54538188 168.40728028 -164.31417926 155.17935021 -151.0819231 141.95247077 C-139.72060035 130.59562144 -128.3619103 119.23614451 -117.00512695 107.87475586 C-103.81561137 94.6798943 -90.62448238 81.48664918 -77.43075639 68.29599756 C-76.02545834 66.89101807 -74.62016239 65.48603648 -73.21486855 64.08105278 C-72.52342321 63.38976172 -71.83197787 62.69847065 -71.11957964 61.98623138 C-66.23935587 57.10687224 -61.36029593 52.2263512 -56.48167992 47.3453846 C-50.54366219 41.40456869 -44.60387913 35.46552473 -38.66179278 29.5287782 C-35.62841109 26.49803235 -32.59584877 23.46647816 -29.56543159 20.43276787 C-26.79519748 17.65956877 -24.02269243 14.88866195 -21.24830464 12.11961847 C-20.24155427 11.11399134 -19.23565873 10.1075076 -18.23067596 9.100114 C-16.87157807 7.7380044 -15.5091384 6.37923156 -14.14650249 5.02066135 C-13.38857802 4.26289923 -12.63065355 3.50513711 -11.84976166 2.7244125 C-8.32446356 -0.56199365 -4.63529204 -0.63208528 0 0 Z " fill="#000000" transform="translate(484,216)"/>
<path d="M0 0 C2.5 1.5 2.5 1.5 4 4 C4.71828263 7.91790525 5.0953259 10.38051663 2.82538319 13.73671818 C-2.95569634 20.06358043 -8.98944909 26.13030869 -15.05395508 32.18334961 C-16.26375634 33.39450809 -17.47334524 34.60587872 -18.68273926 35.81744385 C-21.94655656 39.08579443 -25.21349792 42.35100504 -28.4811728 45.6154983 C-31.90502205 49.03680614 -35.32641995 52.46056402 -38.74821472 55.88392639 C-44.48684092 61.62436761 -50.22756324 67.36270626 -55.96948242 73.09985352 C-62.61241136 79.73732555 -69.25170921 86.37841335 -75.88916284 93.02136034 C-81.5927576 98.72948671 -87.29829071 104.43567012 -93.00546187 110.1402207 C-96.41247827 113.54567659 -99.81881173 116.95180819 -103.22339821 120.35969353 C-106.41816707 123.5573423 -109.61535549 126.75255162 -112.81446075 129.94586182 C-113.9900543 131.12012908 -115.16479025 132.2952556 -116.33862114 133.47128487 C-117.93580046 135.07118043 -119.53600144 136.66798983 -121.13703918 138.26402283 C-122.48120265 139.60762076 -122.48120265 139.60762076 -123.85252094 140.97836208 C-127.15070119 144.08327071 -129.4784455 144.36043109 -134.0234375 144.26953125 C-136 144 -136 144 -138.5 142.5 C-140.19692674 139.67178877 -140.75647293 137.41764614 -140.56106853 134.10963535 C-138.32732727 125.71069787 -127.05719505 117.91624727 -120.94604492 111.81665039 C-119.73624366 110.60549191 -118.52665476 109.39412128 -117.31726074 108.18255615 C-114.05344344 104.91420557 -110.78650208 101.64899496 -107.5188272 98.3845017 C-104.09497795 94.96319386 -100.67358005 91.53943598 -97.25178528 88.11607361 C-91.51315908 82.37563239 -85.77243676 76.63729374 -80.03051758 70.90014648 C-73.38758864 64.26267445 -66.74829079 57.62158665 -60.11083716 50.97863966 C-54.4072424 45.27051329 -48.70170929 39.56432988 -42.99453813 33.8597793 C-39.58752173 30.45432341 -36.18118827 27.04819181 -32.77660179 23.64030647 C-29.58183293 20.4426577 -26.38464451 17.24744838 -23.18553925 14.05413818 C-22.0099457 12.87987092 -20.83520975 11.7047444 -19.66137886 10.52871513 C-18.06419954 8.92881957 -16.46399856 7.33201017 -14.86296082 5.73597717 C-13.96685184 4.84024522 -13.07074286 3.94451326 -12.14747906 3.02163792 C-8.45958107 -0.4501512 -4.91450965 -0.67016041 0 0 Z " fill="#000000" transform="translate(164,24)"/>
<path d="M0 0 C2.5 1.5 2.5 1.5 4 4 C4.71828263 7.91790525 5.0953259 10.38051663 2.82538319 13.73671818 C-2.95569634 20.06358043 -8.98944909 26.13030869 -15.05395508 32.18334961 C-16.26375634 33.39450809 -17.47334524 34.60587872 -18.68273926 35.81744385 C-21.94655656 39.08579443 -25.21349792 42.35100504 -28.4811728 45.6154983 C-31.90502205 49.03680614 -35.32641995 52.46056402 -38.74821472 55.88392639 C-44.48684092 61.62436761 -50.22756324 67.36270626 -55.96948242 73.09985352 C-62.61241136 79.73732555 -69.25170921 86.37841335 -75.88916284 93.02136034 C-81.5927576 98.72948671 -87.29829071 104.43567012 -93.00546187 110.1402207 C-96.41247827 113.54567659 -99.81881173 116.95180819 -103.22339821 120.35969353 C-106.41816707 123.5573423 -109.61535549 126.75255162 -112.81446075 129.94586182 C-113.9900543 131.12012908 -115.16479025 132.2952556 -116.33862114 133.47128487 C-117.93580046 135.07118043 -119.53600144 136.66798983 -121.13703918 138.26402283 C-122.48120265 139.60762076 -122.48120265 139.60762076 -123.85252094 140.97836208 C-127.15070119 144.08327071 -129.4784455 144.36043109 -134.0234375 144.26953125 C-136 144 -136 144 -138.5 142.5 C-140.19692674 139.67178877 -140.75647293 137.41764614 -140.56106853 134.10963535 C-138.32732727 125.71069787 -127.05719505 117.91624727 -120.94604492 111.81665039 C-119.73624366 110.60549191 -118.52665476 109.39412128 -117.31726074 108.18255615 C-114.05344344 104.91420557 -110.78650208 101.64899496 -107.5188272 98.3845017 C-104.09497795 94.96319386 -100.67358005 91.53943598 -97.25178528 88.11607361 C-91.51315908 82.37563239 -85.77243676 76.63729374 -80.03051758 70.90014648 C-73.38758864 64.26267445 -66.74829079 57.62158665 -60.11083716 50.97863966 C-54.4072424 45.27051329 -48.70170929 39.56432988 -42.99453813 33.8597793 C-39.58752173 30.45432341 -36.18118827 27.04819181 -32.77660179 23.64030647 C-29.58183293 20.4426577 -26.38464451 17.24744838 -23.18553925 14.05413818 C-22.0099457 12.87987092 -20.83520975 11.7047444 -19.66137886 10.52871513 C-18.06419954 8.92881957 -16.46399856 7.33201017 -14.86296082 5.73597717 C-13.96685184 4.84024522 -13.07074286 3.94451326 -12.14747906 3.02163792 C-8.45958107 -0.4501512 -4.91450965 -0.67016041 0 0 Z " fill="#000000" transform="translate(484,344)"/>
</svg>
