<?xml version="1.0" encoding="UTF-8"?>
<svg version="1.1" xmlns="http://www.w3.org/2000/svg" width="512" height="512">
<path d="M0 0 C0.80902771 -0.00979385 1.61805542 -0.01958771 2.45159912 -0.02967834 C63.48479683 -0.61587661 114.29218747 19.45938237 158.28515625 61.92578125 C191.03217227 95.0332204 213.1167751 144.1913534 213.5859375 190.890625 C213.59573135 191.69965271 213.60552521 192.50868042 213.61561584 193.34222412 C214.20181411 254.37542183 194.12655513 305.18281247 151.66015625 349.17578125 C145.66767868 355.10302189 139.0853326 360.19676032 132.34765625 365.23828125 C131.51621094 365.86476563 130.68476563 366.49125 129.828125 367.13671875 C99.30493981 389.28812742 60.61975956 404.09555603 22.6953125 404.4765625 C21.88628479 404.48635635 21.07725708 404.49615021 20.24371338 404.50624084 C-40.78948433 405.09243911 -91.59687497 385.01718013 -135.58984375 342.55078125 C-141.51708439 336.55830368 -146.61082282 329.9759576 -151.65234375 323.23828125 C-152.27882812 322.40683594 -152.9053125 321.57539063 -153.55078125 320.71875 C-175.70218992 290.19556481 -190.50961853 251.51038456 -190.890625 213.5859375 C-190.90041885 212.77690979 -190.91021271 211.96788208 -190.92030334 211.13433838 C-191.50650161 150.10114067 -171.43124263 99.29375003 -128.96484375 55.30078125 C-122.97236618 49.37354061 -116.3900201 44.27980218 -109.65234375 39.23828125 C-108.82089844 38.61179688 -107.98945313 37.9853125 -107.1328125 37.33984375 C-76.60962731 15.18843508 -37.92444706 0.38100647 0 0 Z M-129.13110352 78.97583008 C-145.56587054 97.47338042 -157.43229969 118.98050606 -165.65234375 142.23828125 C-165.90209961 142.94484863 -166.15185547 143.65141602 -166.40917969 144.37939453 C-168.08961855 149.2727113 -169.45451616 154.20613224 -170.65234375 159.23828125 C-170.9464917 160.45620361 -170.9464917 160.45620361 -171.24658203 161.69873047 C-176.9023809 186.30584886 -177.63047623 215.5857117 -171.65234375 240.23828125 C-171.47541992 241.01042969 -171.29849609 241.78257812 -171.11621094 242.578125 C-167.12294654 259.82019925 -160.98565302 275.64846087 -152.65234375 291.23828125 C-152.32476074 291.85477539 -151.99717773 292.47126953 -151.65966797 293.10644531 C-129.25155901 334.88578946 -89.06776128 366.82458685 -43.9140625 380.73828125 C-29.3700634 385.00913813 -14.43224613 388.34979563 0.7734375 388.44140625 C1.55447845 388.44842056 2.33551941 388.45543488 3.14022827 388.46266174 C5.6469302 388.4800735 8.15339607 388.48651392 10.66015625 388.48828125 C11.51558014 388.48895599 12.37100403 388.48963074 13.25234985 388.49032593 C25.53209161 388.47490618 37.36231611 388.14467002 49.34765625 385.23828125 C50.11980469 385.06135742 50.89195312 384.88443359 51.6875 384.70214844 C68.92957425 380.70888404 84.75783587 374.57159052 100.34765625 366.23828125 C100.96415039 365.91069824 101.58064453 365.58311523 102.21582031 365.24560547 C143.92537824 342.87492595 175.95668486 302.57995646 189.84765625 257.5 C194.11851313 242.9560009 197.45917063 228.01818363 197.55078125 212.8125 C197.55779556 212.03145905 197.56480988 211.25041809 197.57203674 210.44570923 C197.5894485 207.9390073 197.59588892 205.43254143 197.59765625 202.92578125 C197.59833099 202.07035736 197.59900574 201.21493347 197.59970093 200.33358765 C197.58428118 188.05384589 197.25404502 176.22362139 194.34765625 164.23828125 C194.17073242 163.46613281 193.99380859 162.69398438 193.81152344 161.8984375 C189.81825904 144.65636325 183.68096552 128.82810163 175.34765625 113.23828125 C175.02007324 112.62178711 174.69249023 112.00529297 174.35498047 111.37011719 C151.11250189 68.03511229 109.69659729 36.81260039 63.09765625 22.48828125 C60.19617535 21.66881538 57.28054199 20.9364107 54.34765625 20.23828125 C53.12973389 19.9441333 53.12973389 19.9441333 51.88720703 19.64404297 C-14.90399612 4.29248472 -83.4951964 29.21106758 -129.13110352 78.97583008 Z " fill="#000000" transform="translate(244.65234375,53.76171875)"/>
<path d="M0 0 C0.99 0.01933594 0.99 0.01933594 2 0.0390625 C2.66 0.02617187 3.32 0.01328125 4 0 C7.1811159 1.05622989 8.20712568 2.87714473 10 5.6640625 C10.36707205 8.46953672 10.50849277 10.87060264 10.45410156 13.66723633 C10.45468567 14.45800568 10.45526978 15.24877502 10.45587158 16.06350708 C10.45309404 18.66648897 10.42201885 21.26831295 10.390625 23.87109375 C10.38316141 25.67998123 10.37746903 27.48887681 10.37347412 29.29777527 C10.35822706 34.05071472 10.31895331 38.80316253 10.2746582 43.5559082 C10.23368544 48.40894928 10.21545883 53.26207006 10.1953125 58.11523438 C10.15245811 67.63172601 10.08421804 77.14785332 10 86.6640625 C11.50550667 86.65073883 11.50550667 86.65073883 13.04142761 86.637146 C22.50228727 86.55604242 31.96307635 86.4960886 41.42420483 86.45681381 C46.28824037 86.43594333 51.15199517 86.4076355 56.01586914 86.36230469 C60.71023122 86.31882774 65.40432334 86.29492133 70.09887123 86.28455353 C71.88945071 86.27716548 73.68001549 86.26273824 75.47047997 86.24114227 C77.97958623 86.21208325 80.48757857 86.20810747 82.99682617 86.20996094 C83.73625961 86.19557983 84.47569305 86.18119873 85.23753357 86.16638184 C88.88380011 86.19550588 90.86142538 86.57491496 93.95869446 88.56744385 C96 90.6640625 96 90.6640625 96.6640625 92.6640625 C96.65117187 93.3240625 96.63828125 93.9840625 96.625 94.6640625 C96.63789063 95.3240625 96.65078125 95.9840625 96.6640625 96.6640625 C95.60783261 99.8451784 93.78691777 100.87118818 91 102.6640625 C88.19452578 103.03113455 85.79345986 103.17255527 82.99682617 103.11816406 C81.81067215 103.11904022 81.81067215 103.11904022 80.60055542 103.11993408 C77.99757353 103.11715654 75.39574955 103.08608135 72.79296875 103.0546875 C70.98408127 103.04722391 69.17518569 103.04153153 67.36628723 103.03753662 C62.61334778 103.02228956 57.86089997 102.98301581 53.1081543 102.9387207 C48.25511322 102.89774794 43.40199244 102.87952133 38.54882812 102.859375 C29.03233649 102.81652061 19.51620918 102.74828054 10 102.6640625 C10.00888245 103.66773361 10.01776489 104.67140472 10.0269165 105.70549011 C10.10802008 115.16634977 10.1679739 124.62713885 10.20724869 134.08826733 C10.22811917 138.95230287 10.256427 143.81605767 10.30175781 148.67993164 C10.34523476 153.37429372 10.36914117 158.06838584 10.37950897 162.76293373 C10.38689702 164.55351321 10.40132426 166.34407799 10.42292023 168.13454247 C10.45197925 170.64364873 10.45595503 173.15164107 10.45410156 175.66088867 C10.46848267 176.40032211 10.48286377 177.13975555 10.49768066 177.90159607 C10.46855662 181.54786261 10.08914754 183.52548788 8.09661865 186.62275696 C6 188.6640625 6 188.6640625 4 189.328125 C3.34 189.31523437 2.68 189.30234375 2 189.2890625 C1.34 189.30195313 0.68 189.31484375 0 189.328125 C-3.1811159 188.27189511 -4.20712568 186.45098027 -6 183.6640625 C-6.36707205 180.85858828 -6.50849277 178.45752236 -6.45410156 175.66088867 C-6.45468567 174.87011932 -6.45526978 174.07934998 -6.45587158 173.26461792 C-6.45309404 170.66163603 -6.42201885 168.05981205 -6.390625 165.45703125 C-6.38316141 163.64814377 -6.37746903 161.83924819 -6.37347412 160.03034973 C-6.35822706 155.27741028 -6.31895331 150.52496247 -6.2746582 145.7722168 C-6.23368544 140.91917572 -6.21545883 136.06605494 -6.1953125 131.21289062 C-6.15245811 121.69639899 -6.08421804 112.18027168 -6 102.6640625 C-7.50550667 102.67738617 -7.50550667 102.67738617 -9.04142761 102.690979 C-18.50228727 102.77208258 -27.96307635 102.8320364 -37.42420483 102.87131119 C-42.28824037 102.89218167 -47.15199517 102.9204895 -52.01586914 102.96582031 C-56.71023122 103.00929726 -61.40432334 103.03320367 -66.09887123 103.04357147 C-67.88945071 103.05095952 -69.68001549 103.06538676 -71.47047997 103.08698273 C-73.97958623 103.11604175 -76.48757857 103.12001753 -78.99682617 103.11816406 C-79.73625961 103.13254517 -80.47569305 103.14692627 -81.23753357 103.16174316 C-84.88380011 103.13261912 -86.86142538 102.75321004 -89.95869446 100.76068115 C-92 98.6640625 -92 98.6640625 -92.6640625 96.6640625 C-92.65117187 96.0040625 -92.63828125 95.3440625 -92.625 94.6640625 C-92.63789063 94.0040625 -92.65078125 93.3440625 -92.6640625 92.6640625 C-91.60783261 89.4829466 -89.78691777 88.45693682 -87 86.6640625 C-84.19452578 86.29699045 -81.79345986 86.15556973 -78.99682617 86.20996094 C-78.20605682 86.20937683 -77.41528748 86.20879272 -76.60055542 86.20819092 C-73.99757353 86.21096846 -71.39574955 86.24204365 -68.79296875 86.2734375 C-66.98408127 86.28090109 -65.17518569 86.28659347 -63.36628723 86.29058838 C-58.61334778 86.30583544 -53.86089997 86.34510919 -49.1081543 86.3894043 C-44.25511322 86.43037706 -39.40199244 86.44860367 -34.54882812 86.46875 C-25.03233649 86.51160439 -15.51620918 86.57984446 -6 86.6640625 C-6.00888245 85.66039139 -6.01776489 84.65672028 -6.0269165 83.62263489 C-6.10802008 74.16177523 -6.1679739 64.70098615 -6.20724869 55.23985767 C-6.22811917 50.37582213 -6.256427 45.51206733 -6.30175781 40.64819336 C-6.34523476 35.95383128 -6.36914117 31.25973916 -6.37950897 26.56519127 C-6.38689702 24.77461179 -6.40132426 22.98404701 -6.42292023 21.19358253 C-6.45197925 18.68447627 -6.45595503 16.17648393 -6.45410156 13.66723633 C-6.46848267 12.92780289 -6.48286377 12.18836945 -6.49768066 11.42652893 C-6.46855662 7.78026239 -6.08914754 5.80263712 -4.09661865 2.70536804 C-2 0.6640625 -2 0.6640625 0 0 Z " fill="#000000" transform="translate(254,161.3359375)"/>
</svg>
