<?xml version="1.0" encoding="UTF-8"?>
<svg version="1.1" xmlns="http://www.w3.org/2000/svg" width="512" height="512">
<path d="M0 0 C1.45108658 0.00273422 1.45108658 0.00273422 2.93148804 0.00552368 C17.26440977 0.05095174 31.21023917 0.55983928 45.3125 3.3125 C46.65803955 3.55395752 46.65803955 3.55395752 48.03076172 3.80029297 C107.84088904 14.62287989 165.35495829 48.68064457 202.3125 97.3125 C202.72918945 97.85277832 203.14587891 98.39305664 203.57519531 98.94970703 C211.2584873 108.9447116 218.00092968 119.40459036 224.3125 130.3125 C224.70679199 130.98974121 225.10108398 131.66698242 225.50732422 132.36474609 C238.68961173 155.2833756 247.29510918 180.85822563 252.625 206.6875 C252.77243652 207.39817627 252.91987305 208.10885254 253.07177734 208.84106445 C256.05713787 224.48358366 256.6873098 240.11919606 256.625 256 C256.62226578 257.45108658 256.62226578 257.45108658 256.61947632 258.93148804 C256.57404826 273.26440977 256.06516072 287.21023917 253.3125 301.3125 C253.15152832 302.20952637 252.99055664 303.10655273 252.82470703 304.03076172 C242.00212011 363.84088904 207.94435543 421.35495829 159.3125 458.3125 C158.77222168 458.72918945 158.23194336 459.14587891 157.67529297 459.57519531 C147.6802884 467.2584873 137.22040964 474.00092968 126.3125 480.3125 C125.63525879 480.70679199 124.95801758 481.10108398 124.26025391 481.50732422 C101.3416244 494.68961173 75.76677437 503.29510918 49.9375 508.625 C49.22682373 508.77243652 48.51614746 508.91987305 47.78393555 509.07177734 C32.14141634 512.05713787 16.50580394 512.6873098 0.625 512.625 C-0.34239105 512.62317719 -1.3097821 512.62135437 -2.30648804 512.61947632 C-16.63940977 512.57404826 -30.58523917 512.06516072 -44.6875 509.3125 C-45.58452637 509.15152832 -46.48155273 508.99055664 -47.40576172 508.82470703 C-107.21588904 498.00212011 -164.72995829 463.94435543 -201.6875 415.3125 C-202.10418945 414.77222168 -202.52087891 414.23194336 -202.95019531 413.67529297 C-210.6334873 403.6802884 -217.37592968 393.22040964 -223.6875 382.3125 C-224.08179199 381.63525879 -224.47608398 380.95801758 -224.88232422 380.26025391 C-238.06461173 357.3416244 -246.67010918 331.76677437 -252 305.9375 C-252.14743652 305.22682373 -252.29487305 304.51614746 -252.44677734 303.78393555 C-255.43213787 288.14141634 -256.0623098 272.50580394 -256 256.625 C-255.99817719 255.65760895 -255.99635437 254.6902179 -255.99447632 253.69351196 C-255.94904826 239.36059023 -255.44016072 225.41476083 -252.6875 211.3125 C-252.44604248 209.96696045 -252.44604248 209.96696045 -252.19970703 208.59423828 C-241.37712011 148.78411096 -207.31935543 91.27004171 -158.6875 54.3125 C-158.14722168 53.89581055 -157.60694336 53.47912109 -157.05029297 53.04980469 C-147.0552884 45.3665127 -136.59540964 38.62407032 -125.6875 32.3125 C-125.01025879 31.91820801 -124.33301758 31.52391602 -123.63525391 31.11767578 C-100.7166244 17.93538827 -75.14177437 9.32989082 -49.3125 4 C-48.60182373 3.85256348 -47.89114746 3.70512695 -47.15893555 3.55322266 C-31.51641634 0.56786213 -15.88080394 -0.0623098 0 0 Z M-139.6875 118.375 C-149.2218161 132.37852677 -142.00843628 161.66311494 -139.08544922 177.59375 C-127.01090349 240.11004968 -93.32312482 299.85163376 -42.6875 339.3125 C-41.17736328 340.51326172 -41.17736328 340.51326172 -39.63671875 341.73828125 C-26.76414076 351.89781358 -13.14072116 360.58245459 1.3125 368.3125 C1.92609375 368.64459473 2.5396875 368.97668945 3.171875 369.31884766 C29.71477105 383.57572906 58.59817566 392.6603492 88.3125 397.3125 C89.04388184 397.42964355 89.77526367 397.54678711 90.52880859 397.66748047 C100.50294875 399.19968689 110.48013806 399.55591504 120.5625 399.6875 C121.72990723 399.71360352 122.89731445 399.73970703 124.10009766 399.76660156 C132.45392809 399.79217765 132.45392809 399.79217765 139.3125 395.3125 C142.78090911 390.87353521 143.81511715 388.00748945 143.83007812 382.39257812 C143.8370874 381.72834335 143.84409668 381.06410858 143.85131836 380.37974548 C143.86881473 378.20064543 143.85730717 376.02286149 143.84375 373.84375 C143.84644736 372.31969963 143.85033182 370.79565095 143.85534668 369.27160645 C143.86123034 366.08406115 143.85271592 362.89696551 143.83398438 359.70947266 C143.81119481 355.63390559 143.82432408 351.55939228 143.84827423 347.48386383 C143.86276327 344.33872612 143.85811215 341.19383617 143.84776306 338.0486908 C143.84510432 336.54646173 143.84833544 335.0442098 143.85768127 333.54200745 C143.86789909 331.43821058 143.85227694 329.33609429 143.83007812 327.23242188 C143.82689575 326.03806519 143.82371338 324.8437085 143.82043457 323.61315918 C143.00557924 318.31806828 140.51628527 315.26016074 136.375 312 C131.90317397 309.53593259 127.77042945 309.19900186 122.7265625 308.953125 C100.85279181 307.72292854 79.24931985 304.57001112 59.125 295.44140625 C58.41593506 295.12026855 57.70687012 294.79913086 56.97631836 294.46826172 C55.62296218 293.84465179 54.2766256 293.20545516 52.93969727 292.54736328 C47.1762955 289.84180181 42.29870495 289.35691442 36.1875 291.3125 C28.97434349 296.33034801 25.48967804 304.53204961 21.9375 312.3125 C21.48761719 313.27800781 21.03773438 314.24351562 20.57421875 315.23828125 C19.47862547 317.59264127 18.39163818 319.95056432 17.3125 322.3125 C-17.88430105 304.34164655 -45.67379217 273.87950885 -65.6875 240.3125 C-63.01857009 238.19830954 -60.4568745 236.61522706 -57.3515625 235.2265625 C-56.12566406 234.66582031 -56.12566406 234.66582031 -54.875 234.09375 C-53.17608272 233.32716538 -51.47557216 232.56410142 -49.7734375 231.8046875 C-43.65407608 228.99516936 -38.6364698 226.2359547 -34.8125 220.5 C-31.98906911 212.50027914 -34.34646006 206.94662973 -37.8125 199.6875 C-46.83167744 179.6845191 -51.27201211 158.50333859 -52.1875 136.625 C-52.56281183 125.44794384 -52.56281183 125.44794384 -58.4375 116.375 C-65.91829181 111.62757443 -73.33108969 112.00530432 -81.9609375 112.01171875 C-83.23925446 112.00743362 -84.51757141 112.0031485 -85.83462524 111.99873352 C-88.53269617 111.99130162 -91.23063618 111.99154016 -93.92871094 111.99682617 C-97.36370671 112.00261327 -100.79816193 111.98569411 -104.23306847 111.9624815 C-107.53821269 111.9440909 -110.84324258 111.94793175 -114.1484375 111.94921875 C-115.37057953 111.940009 -116.59272156 111.93079926 -117.85189819 111.92131042 C-129.96961929 111.95877572 -129.96961929 111.95877572 -139.6875 118.375 Z " fill="#000000" transform="translate(255.6875,-0.3125)"/>
</svg>
