<?xml version="1.0" encoding="UTF-8"?>
<svg version="1.1" xmlns="http://www.w3.org/2000/svg" width="512" height="512">
<path d="M0 0 C2.94288372 0.003123 5.88572088 -0.0030332 8.8285979 -0.00903875 C15.767508 -0.02299167 22.70629466 -0.02159441 29.64520597 -0.01013684 C36.78692531 0.0013953 43.92827133 -0.0128371 51.06994164 -0.03953332 C57.2308433 -0.06169467 63.39162773 -0.0683285 69.55256641 -0.06245691 C73.22020179 -0.05909437 76.88759668 -0.06145802 80.55519819 -0.07870793 C84.63329423 -0.09706144 88.71065959 -0.08298598 92.78876066 -0.06580091 C93.99505125 -0.07546887 95.20134184 -0.08513684 96.44418669 -0.09509778 C102.77178162 -0.03917004 106.73953646 0.12165977 111.51678801 4.43590808 C115.14512464 8.2552098 115.82679259 11.31869814 116.01678801 16.43590808 C115.82679259 21.55311802 115.14512464 24.61660636 111.51678801 28.43590808 C106.06446375 33.18046494 101.23320814 33.00416559 94.19745207 32.95006824 C93.06481428 32.95719333 91.93217649 32.96431842 90.76521635 32.97165942 C87.02077145 32.99095293 83.27689126 32.98265289 79.53241301 32.97497058 C76.916092 32.98488273 74.29977798 32.99682594 71.68347502 33.01070666 C65.48959607 33.04094891 59.29584508 33.05265731 53.10189843 33.05628312 C41.401377 33.06330875 29.70101344 33.09915718 18.00060606 33.14972568 C14.18223888 33.16218562 10.36404077 33.16156245 6.54565763 33.15944934 C-24.47606259 33.20878516 -52.7660044 36.48405898 -76.48321199 58.43590808 C-77.25922762 59.13200183 -78.03524324 59.82809558 -78.83477449 60.54528308 C-97.66702914 78.27737164 -106.47169607 103.01380638 -107.48321199 128.43590808 C-107.6569738 135.79193814 -107.62026967 143.15085499 -107.61260653 150.50841784 C-107.61396386 152.70923906 -107.61574565 154.91006005 -107.61791658 157.11088061 C-107.62244901 163.04822018 -107.62071934 168.98554224 -107.6175375 174.92288208 C-107.61499503 181.1478412 -107.61735641 187.37279888 -107.61892366 193.59775805 C-107.62085465 204.70602665 -107.61776208 215.81428754 -107.61266433 226.9225549 C-107.60818746 236.98991677 -107.60898203 247.05726712 -107.61358309 257.12462878 C-107.618935 268.84024385 -107.62092715 280.5558522 -107.61797082 292.27146834 C-107.61641183 298.46474329 -107.61620425 304.6580103 -107.61950731 310.85128474 C-107.62239203 316.66504911 -107.62039923 322.47879166 -107.61461306 328.29255366 C-107.61328925 330.42710339 -107.61367317 332.56165495 -107.61587572 334.69620395 C-107.61860172 337.60580657 -107.61518837 340.51533889 -107.61019564 343.42493701 C-107.61242636 344.27239554 -107.61465708 345.11985408 -107.6169554 345.99299318 C-107.60377886 349.94230551 -107.46278641 353.58019909 -106.48321199 357.43590808 C-106.0479117 356.69993396 -106.0479117 356.69993396 -105.60381746 355.94909167 C-98.58598043 344.10871294 -91.36651801 332.41915858 -83.92852449 320.83825183 C-81.69415002 317.35444909 -79.501714 313.85048264 -77.35039949 310.31481433 C-60.96072001 283.48593304 -38.60292807 262.67645191 -7.73321199 254.06090808 C-5.32315101 253.49056904 -2.90654331 252.94693244 -0.48321199 252.43590808 C0.52354582 252.2116112 1.53030363 251.98731433 2.56756926 251.75622058 C31.25770848 246.32332781 61.13864962 252.81205667 85.61835051 268.41247058 C99.38170284 278.14374223 110.55881236 290.39938993 121.07147551 303.45543933 C123.98682696 307.00881498 126.99494141 310.47311279 130.01678801 313.93590808 C136.71256684 321.61667454 143.15639455 329.474792 149.51678801 337.43590808 C150.40430754 336.4401073 150.40430754 336.4401073 151.30975676 335.42418933 C159.62005152 326.13780774 159.62005152 326.13780774 163.51678801 322.43590808 C164.11362394 321.84422839 164.71045988 321.2525487 165.32538176 320.64293933 C183.74079292 303.17364103 208.32741195 296.92382798 233.07928801 297.22106433 C259.30713994 297.95929583 281.1575261 309.95010064 299.44647551 328.09997058 C301.16844736 330.04287468 302.65184506 331.96767057 304.14618254 334.08190417 C304.5915637 334.71051349 305.03694487 335.3391228 305.49582243 335.98678088 C305.83274107 336.46499286 306.16965971 336.94320483 306.51678801 337.43590808 C306.52043364 336.1588399 306.52407927 334.88177173 306.52783537 333.56600451 C306.56477908 321.52991404 306.62254524 309.49407956 306.70069075 297.458184 C306.74019711 291.27040937 306.77237027 285.08277773 306.7877841 278.89489245 C306.80292959 272.92304508 306.83733838 266.95159074 306.88509703 260.97991824 C306.89993245 258.70180307 306.90783025 256.42363179 306.90867186 254.14546847 C306.91103666 250.9539324 306.9380787 247.76348675 306.97088957 244.57213855 C306.9658592 243.63058414 306.96082884 242.68902972 306.95564604 241.71894336 C307.04468812 236.1195404 307.77269205 232.87301015 311.51678801 228.43590808 C315.33608973 224.80757144 318.39957807 224.1259035 323.51678801 223.93590808 C328.63399794 224.1259035 331.69748629 224.80757144 335.51678801 228.43590808 C340.61125993 234.08926691 340.08393047 239.75476528 340.03436613 247.10045886 C340.04488005 249.014052 340.04488005 249.014052 340.05560637 250.96630359 C340.07380839 254.45907062 340.06677869 257.95136368 340.05409002 261.44413877 C340.04391553 265.12100351 340.0533708 268.79782946 340.05963469 272.47469592 C340.06691104 278.66350009 340.05733724 284.8521134 340.03827238 291.04088855 C340.01663818 298.14464724 340.02345601 305.2479442 340.045578 312.35169113 C340.06389477 318.48374826 340.06620797 324.61566846 340.05582333 330.7477442 C340.04965926 334.39472085 340.04854985 338.04148292 340.06196928 341.68844485 C340.13233455 363.87235126 338.50664288 383.97908563 329.51678801 404.43590808 C329.23351652 405.0901073 328.95024504 405.74430652 328.65838957 406.41832995 C318.71538493 428.94115813 301.53360833 448.60946626 280.51678801 461.43590808 C279.44428801 462.1191112 278.37178801 462.80231433 277.26678801 463.50622058 C270.87908761 467.39502892 264.37727588 470.51391905 257.39178801 473.18590808 C256.70777922 473.45548327 256.02377043 473.72505847 255.3190341 474.00280261 C237.97390066 480.29356274 220.31333633 481.02109015 202.06366301 480.9534862 C199.57102378 480.95891983 197.07838778 480.96604938 194.58575773 480.97472644 C188.56849791 480.99094574 182.55151627 480.98874784 176.5342679 480.97707587 C171.63596864 480.96797467 166.73772516 480.96684611 161.83941984 480.97117114 C161.13741162 480.97178407 160.4354034 480.972397 159.7121222 480.97302851 C158.28519549 480.97430765 156.8582688 480.97560451 155.43134212 480.97691888 C142.10812179 480.98827542 128.78501226 480.97528886 115.46181011 480.95371741 C104.07513277 480.93585091 92.68861866 480.93895641 81.30194426 480.95739245 C68.02046485 480.97888685 54.7390821 480.98717725 41.45758772 480.9749434 C40.03644388 480.97366945 38.61530003 480.97241196 37.19415617 480.97117114 C36.14580882 480.97024549 36.14580882 480.97024549 35.07628274 480.96930113 C30.19424458 480.96587381 25.31226867 480.97161943 20.43024015 480.98108935 C13.83735129 480.99359907 7.24471952 480.98446269 0.65184355 480.96151233 C-1.7521532 480.95627193 -4.1561761 480.95765768 -6.56016207 480.96656299 C-27.00167565 481.03524245 -45.66925135 478.70379896 -64.48321199 470.43590808 C-65.13741121 470.15263659 -65.79161043 469.86936511 -66.46563387 469.57750964 C-96.56070683 456.29163597 -120.26739789 430.71434522 -132.35430574 400.23961902 C-133.20485184 397.98292817 -134.0117027 395.71652762 -134.79571199 393.43590808 C-135.14146273 392.44228259 -135.14146273 392.44228259 -135.49419832 391.42858386 C-140.63593053 375.53321048 -140.92170686 359.98019215 -140.88726473 343.43688464 C-140.89297719 340.94483646 -140.89994482 338.45279089 -140.90806246 335.96074939 C-140.92406598 329.92962135 -140.9261138 323.89864346 -140.92084955 317.86750892 C-140.91678494 312.95767823 -140.91827838 308.04787815 -140.92359781 303.13804889 C-140.92434623 302.43549871 -140.92509466 301.73294853 -140.92586576 301.00910895 C-140.92739746 299.58121611 -140.92893581 298.15332328 -140.93048073 296.72543046 C-140.94416578 283.37554472 -140.93879671 270.02571779 -140.92729551 256.67583343 C-140.91737129 244.50736752 -140.93029688 232.33905385 -140.95422971 220.17061141 C-140.97871166 207.6268549 -140.98820611 195.08316902 -140.98157698 182.53938913 C-140.97810435 175.5167548 -140.98018581 168.49423732 -140.99782801 161.47162127 C-141.01422803 154.8623826 -141.00922795 148.2533848 -140.99052286 141.64413714 C-140.98686511 139.23368896 -140.98986207 136.8232189 -141.00040865 134.41279101 C-141.07191714 116.70231191 -139.8430711 99.34505701 -133.29571199 82.68590808 C-133.00091951 81.9155321 -132.70612703 81.14515613 -132.40240145 80.35143542 C-120.0257774 49.14862308 -95.20163929 23.87317536 -64.57793856 10.31481433 C-60.9248511 8.78205036 -57.22920881 7.41117058 -53.48321199 6.12340808 C-52.48958651 5.77765735 -52.48958651 5.77765735 -51.47588778 5.42492175 C-49.16199607 4.67643908 -46.83608401 4.05232553 -44.48321199 3.43590808 C-43.52484438 3.18170093 -42.56647676 2.92749377 -41.57906771 2.66558337 C-27.87186837 -0.42070422 -13.97631898 -0.02294008 0 0 Z M-28.48321199 302.43590808 C-29.06973543 302.88063464 -29.65625887 303.3253612 -30.26055574 303.78356433 C-39.79110234 311.19621168 -46.16994039 322.81572704 -52.29571199 332.99840808 C-53.34427461 334.72451154 -54.39520898 336.44915552 -55.4463315 338.17370105 C-56.48383855 339.87614095 -57.51967054 341.57960131 -58.55547762 343.28307605 C-61.17641354 347.56964728 -63.85184556 351.81991356 -66.54571199 356.06090808 C-71.14754563 363.32020556 -75.73156087 370.59034381 -80.29571199 377.87340808 C-80.90616365 378.84423327 -81.51661531 379.81505847 -82.14556551 380.81530261 C-86.39892054 387.60932993 -90.48086703 394.49122436 -94.48321199 401.43590808 C-80.48668806 423.81195007 -59.31102875 439.83223221 -33.52002072 446.00036716 C-19.8709552 448.91901455 -5.76473705 448.71604914 8.11297941 448.66295886 C10.21412987 448.66239322 12.31528072 448.66271429 14.41643095 448.66384387 C20.06191476 448.6644124 25.70731175 448.6527399 31.35277557 448.63869596 C37.27441566 448.62610442 43.19605823 448.62501151 49.11770964 448.62264514 C60.30503323 448.61645494 71.49231724 448.60007775 82.67962348 448.57994616 C95.42707215 448.55751015 108.17452281 448.54657445 120.92198634 448.53655529 C147.12027541 448.51570908 173.31852948 448.48058146 199.51678801 448.43590808 C198.56463833 447.15545936 197.6109764 445.87613508 196.65668058 444.59728503 C195.86031942 443.52846843 195.86031942 443.52846843 195.04787016 442.43805957 C193.21854097 440.04589912 191.25463248 437.82820411 189.20428801 435.62340808 C186.11596697 432.24218472 183.14611542 428.80926437 180.26678801 425.24840808 C176.60832666 420.72649869 172.83986085 416.31811909 169.01678801 411.93590808 C164.54131278 406.80374737 160.17671249 401.60405009 155.89178801 396.31090808 C152.99182925 392.80043169 150.00920663 389.36758081 147.01678801 385.93590808 C142.54144284 380.80363151 138.17671674 375.60405534 133.89178801 370.31090808 C130.99182925 366.80043169 128.00920663 363.36758081 125.01678801 359.93590808 C120.54144284 354.80363151 116.17671674 349.60405534 111.89178801 344.31090808 C108.44369961 340.13690634 104.87768318 336.06826181 101.31805754 331.98937488 C98.1038067 328.29679611 94.96263059 324.56219645 91.89178801 320.74840808 C75.9282412 301.17925143 58.27853378 287.00530659 32.51678801 283.43590808 C9.7575297 281.79963985 -11.06233005 287.26992108 -28.48321199 302.43590808 Z M181.51678801 351.43590808 C175.81836913 357.66624133 175.81836913 357.66624133 173.65350676 365.38122058 C174.80504467 368.12198504 176.41139031 370.03707622 178.32928801 372.31090808 C179.14268644 373.28028308 179.95608488 374.24965808 180.79413176 375.24840808 C181.70069329 376.31175338 182.60828103 377.37422446 183.51678801 378.43590808 C183.98616789 378.98633777 184.45554777 379.53676745 184.93915129 380.10387683 C187.44393372 383.03941802 189.95637039 385.96825609 192.47381926 388.89293933 C196.73298808 393.84461195 200.94431662 398.83657125 205.15790129 403.82702136 C206.98381172 405.98885207 208.81175024 408.14896274 210.63983488 410.30895495 C212.01441709 411.9331067 213.38864962 413.55755388 214.76288176 415.18200183 C216.6080119 417.36272936 218.45449378 419.54230224 220.30194426 421.72106433 C226.41106887 428.92848259 232.47978449 436.16793204 238.51678801 443.43590808 C244.88992792 442.31424289 250.21853076 440.46917245 255.89178801 437.37340808 C256.62856779 436.97565173 257.36534758 436.57789538 258.12445402 436.16808581 C264.54668878 432.6004898 270.12579969 428.4363681 275.51678801 423.43590808 C276.36628019 422.66633777 277.21577238 421.89676745 278.09100676 421.10387683 C284.64399904 414.89208169 289.76737554 408.08935802 294.51678801 400.43590808 C295.13682707 399.44075183 295.75686613 398.44559558 296.39569426 397.42028308 C298.10929041 392.85865429 296.09718969 389.77538927 294.22333097 385.45080066 C292.62466287 382.04423564 291.01321931 378.64420114 289.39178801 375.24840808 C288.84780363 374.07987292 288.30381926 372.91133777 287.74335051 371.70739245 C279.2180265 353.85002569 268.10961251 340.50083733 249.20428801 333.56090808 C224.28948384 324.9813518 199.24275531 332.6862527 181.51678801 351.43590808 Z " fill="#000000" transform="translate(156.48321199417114,15.564091920852661)"/>
<path d="M0 0 C6.78731639 6.24281153 13.27123226 12.77955016 19.25390625 19.80078125 C21.6440183 22.5613353 24.11860494 25.24177895 26.59375 27.92578125 C30.19488387 31.83603311 33.74137524 35.78397294 37.21875 39.8046875 C39.16036321 42.00113744 41.14820333 44.15126536 43.14306641 46.29931641 C58.4905499 62.84525704 58.4905499 62.84525704 58.37109375 73.94140625 C57.87345509 79.29627857 55.34279972 81.73918402 51.59375 85.30078125 C46.53596514 87.64903851 41.57689207 87.89675432 36.09375 86.92578125 C30.82761173 84.10038967 27.1208027 80.04734331 23.15625 75.67578125 C22.53580811 75.00119873 21.91536621 74.32661621 21.27612305 73.6315918 C17.74884477 69.7847918 14.26776355 65.90140712 10.86328125 61.9453125 C8.4849031 59.23091625 6.03854015 56.58017163 3.59375 53.92578125 C-2.10000317 47.73725523 -7.6610996 41.49987346 -12.90625 34.92578125 C-12.90771656 35.63146555 -12.90918312 36.33714985 -12.91069412 37.06421852 C-12.94775756 54.24087342 -13.00676602 71.41731275 -13.09015274 88.59380531 C-13.12994979 96.90026801 -13.16233886 105.20663587 -13.17724609 113.51318359 C-13.1902592 120.75379858 -13.217215 127.99420496 -13.26086307 135.23470247 C-13.28348576 139.06798439 -13.29916021 142.90100895 -13.29813385 146.73436356 C-13.29738769 150.34439313 -13.31531965 153.95385364 -13.34741783 157.56373596 C-13.35996384 159.51631727 -13.35284927 161.46899408 -13.34510803 163.42160034 C-13.47203896 174.0904137 -13.47203896 174.0904137 -17.90625 178.92578125 C-21.72555172 182.55411788 -24.78904006 183.23578583 -29.90625 183.42578125 C-35.02345994 183.23578583 -38.08694828 182.55411788 -41.90625 178.92578125 C-47.17061464 173.18515732 -46.48181848 167.06046182 -46.45214844 159.57666016 C-46.46089003 158.21617453 -46.47137786 156.85569918 -46.48347473 155.49523926 C-46.51128426 151.81381162 -46.51474055 148.13272028 -46.51375484 144.45120287 C-46.51688832 140.59942158 -46.54251555 136.74779079 -46.56573486 132.89608765 C-46.6062652 125.60768337 -46.62662855 118.31936849 -46.63970876 111.03086889 C-46.65558889 102.73092849 -46.69400875 94.43114001 -46.73430204 86.13128781 C-46.81666035 69.06283098 -46.87077782 51.9943986 -46.90625 34.92578125 C-47.50373047 35.58964844 -48.10121094 36.25351563 -48.71679688 36.9375 C-78.40625 69.92578125 -78.40625 69.92578125 -80.63671875 72.39453125 C-82.21441014 74.15415951 -83.77859292 75.92595542 -85.33203125 77.70703125 C-86.11964844 78.60421875 -86.90726562 79.50140625 -87.71875 80.42578125 C-88.42644531 81.24046875 -89.13414062 82.05515625 -89.86328125 82.89453125 C-93.61163987 86.62138877 -96.54431568 87.23415359 -101.78125 87.30078125 C-106.98891907 87.19941543 -110.01205633 86.62526523 -113.90625 82.92578125 C-118.32040841 78.27929871 -118.37383261 74.03785059 -118.4375 67.92578125 C-117.3078755 61.54672526 -112.40967695 57.09504255 -108.09375 52.55078125 C-107.01484921 51.39916381 -105.93671944 50.24682354 -104.859375 49.09375 C-104.34568359 48.54509277 -103.83199219 47.99643555 -103.30273438 47.43115234 C-101.61111751 45.60763669 -99.96956386 43.74559486 -98.34375 41.86328125 C-95.42827083 38.49159018 -92.42549358 35.20435258 -89.40625 31.92578125 C-86.36734823 28.62551249 -83.344689 25.31628778 -80.40625 21.92578125 C-76.52704096 17.45909584 -72.5481337 13.08577389 -68.51953125 8.75390625 C-67.03128157 7.14330421 -65.55842112 5.51729347 -64.13671875 3.84765625 C-57.16687957 -3.98679589 -46.24955998 -8.70628437 -35.96484375 -9.921875 C-22.99549807 -10.56785774 -10.30409064 -8.4484811 0 0 Z " fill="#000000" transform="translate(421.90625,41.07421875)"/>
</svg>
