<svg version="1.1" xmlns="http://www.w3.org/2000/svg" width="512px" height="512px" transform="rotate(0) scale(1, 1)">
<path d="M0 0 C2.89030883 2.35302466 5.55226976 4.88970947 8.10888672 7.59814453 C10.48748658 9.97674439 11.82813559 10.18973117 15.07421875 10.94262695 C16.10934601 11.18595261 17.14447327 11.42927826 18.21096802 11.67997742 C19.33485931 11.93527725 20.45875061 12.19057709 21.61669922 12.45361328 C22.77128632 12.7195076 23.92587341 12.98540192 25.115448 13.25935364 C27.56420426 13.82039142 30.0138717 14.37746452 32.46435547 14.9309082 C36.20107443 15.77820439 39.93224007 16.64740532 43.66357422 17.51806641 C46.04347447 18.06043567 48.42367403 18.60149355 50.80419922 19.14111328 C51.91594513 19.40248581 53.02769104 19.66385834 54.17312622 19.93315125 C60.10945937 21.25029767 65.11765905 21.93070445 71.10888672 20.59814453 C72.14126465 20.388405 73.17364258 20.17866547 74.23730469 19.96257019 C77.40229317 19.30631108 80.5608274 18.62584518 83.7173748 17.93023682 C85.8326454 17.46429723 87.94889263 17.00304885 90.06544495 16.54296875 C95.31998261 15.39990932 100.57303143 14.25007879 105.82568359 13.09838867 C110.2744525 12.12299525 114.72398256 11.15123795 119.17466927 10.18463135 C121.24529338 9.73342695 123.31470883 9.2769516 125.38414001 8.8203125 C148.4699131 3.80444532 148.4699131 3.80444532 157.37841797 8.89501953 C163.31352598 13.16741639 168.2832978 18.32224666 170.10888672 25.59814453 C171.07842834 35.11013391 169.94371542 42.32576213 163.98388672 49.84814453 C157.56745006 57.57340658 146.22600952 58.94749861 136.96826172 60.91064453 C135.59636908 61.20845476 134.22464787 61.50705567 132.85308838 61.80639648 C129.98321116 62.43070616 127.11208449 63.04873598 124.23974609 63.66162109 C119.91242192 64.58499879 115.58871572 65.52460416 111.26513672 66.46533203 C104.43393916 67.94937933 97.59515133 69.39456841 90.75268555 70.82568359 C87.45332227 71.5251265 84.16274849 72.25544894 80.87255859 72.99658203 C70.66713501 75.23136298 62.43374037 76.05414983 52.10888672 73.59814453 C50.53402668 73.25896151 48.95845004 72.92309542 47.38232422 72.58984375 C42.11172205 71.45932374 36.860339 70.2515239 31.60888672 69.03564453 C28.91187887 68.41572878 26.21450774 67.79745217 23.51672363 67.18092346 C21.85336046 66.80033163 20.19048561 66.41759678 18.52819824 66.03233337 C14.40299157 65.08374158 10.29591366 64.24014976 6.10888672 63.59814453 C5.90779297 64.36513672 5.70669922 65.13212891 5.49951172 65.92236328 C3.5368185 71.11026866 0.70080509 75.65979179 -2.14111328 80.41064453 C-7.16847824 88.9144896 -12.09390605 97.46235508 -16.89111328 106.09814453 C-22.20562029 115.65073615 -27.64659722 125.121496 -33.18603516 134.54541016 C-34.25683429 136.36818211 -35.32424292 138.19295155 -36.38769531 140.02001953 C-37.39362789 141.74503546 -38.41034569 143.46380513 -39.4375 145.17626953 C-39.90559082 145.97548828 -40.37368164 146.77470703 -40.85595703 147.59814453 C-41.27353271 148.29939453 -41.6911084 149.00064453 -42.12133789 149.72314453 C-43.19810339 151.76522607 -43.19810339 151.76522607 -41.89111328 154.59814453 C-40.2114323 155.9285003 -40.2114323 155.9285003 -38.08642578 157.09423828 C-37.28575684 157.5637793 -36.48508789 158.03332031 -35.66015625 158.51708984 C-34.78762207 159.01821289 -33.91508789 159.51933594 -33.01611328 160.03564453 C-31.16603612 161.1209792 -29.31710252 162.20826523 -27.46923828 163.29736328 C-26.53015625 163.84956543 -25.59107422 164.40176758 -24.62353516 164.97070312 C-20.62206448 167.35399508 -16.69165942 169.84238596 -12.76611328 172.34814453 C-6.26667958 176.4865313 0.27151912 180.55543961 6.84130859 184.58129883 C11.26403603 187.29203354 15.67934632 190.01469162 20.09326172 192.73974609 C21.99184501 193.90976034 23.89258902 195.07628267 25.79638672 196.23779297 C47.71970954 209.63634271 47.71970954 209.63634271 51.10888672 221.59814453 C52.90207208 233.34414757 51.62527558 245.11180702 50.74560547 256.88330078 C50.59135 259.03310897 50.43778268 261.18296663 50.28486633 263.33287048 C49.96373172 267.81897097 49.63611847 272.30453405 49.3034668 276.78979492 C48.87947422 282.51023435 48.46898476 288.23154207 48.06302166 293.95328617 C47.74744444 298.38651344 47.42607145 302.81930554 47.10285378 307.25198174 C46.94953424 309.36039257 46.79764828 311.4689082 46.64728355 313.57753181 C44.17097576 348.1140667 44.17097576 348.1140667 34.42138672 357.41064453 C26.71534523 363.58121779 19.25259608 365.29335068 9.44482422 364.98486328 C4.70869446 364.43582716 1.15969129 363.0529321 -2.89111328 360.59814453 C-3.51501953 360.25912109 -4.13892578 359.92009766 -4.78173828 359.57080078 C-11.2647735 355.61051188 -14.47241726 349.0803984 -17.26611328 342.22314453 C-19.07400636 331.73736465 -17.59982148 320.76379402 -16.83251953 310.21142578 C-16.72249726 308.65832216 -16.61279794 307.10519564 -16.50340271 305.55204773 C-16.27479859 302.31876855 -16.04342933 299.08570413 -15.80981445 295.8527832 C-15.51205445 291.73125456 -15.21959664 287.60937173 -14.92900181 283.48733234 C-14.70315773 280.28801242 -14.47535982 277.08883409 -14.24690056 273.88969994 C-14.13847357 272.37044267 -14.03043902 270.85115734 -13.92282295 269.33184242 C-13.38313223 261.73613397 -12.81018767 254.15902102 -11.89111328 246.59814453 C-12.97718872 246.19438599 -12.97718872 246.19438599 -14.08520508 245.7824707 C-16.860192 244.61119588 -19.24201654 243.25682397 -21.78564453 241.64892578 C-22.72843262 241.0560376 -23.6712207 240.46314941 -24.64257812 239.85229492 C-25.65271973 239.21155029 -26.66286133 238.57080566 -27.70361328 237.91064453 C-29.8793486 236.54077991 -32.05513114 235.17099029 -34.23095703 233.80126953 C-35.34067871 233.10066406 -36.45040039 232.40005859 -37.59375 231.67822266 C-42.64319539 228.49287727 -47.70379951 225.32548627 -52.76611328 222.16064453 C-53.74217529 221.54987061 -54.7182373 220.93909668 -55.72387695 220.30981445 C-63.29826137 215.57651872 -70.90362235 210.89474434 -78.51611328 206.22314453 C-87.37730763 200.7852369 -96.19190523 195.29217162 -104.89111328 189.59814453 C-106.94985881 192.22447638 -108.61354282 194.8006657 -110.0925293 197.78979492 C-110.50048233 198.60907974 -110.90843536 199.42836456 -111.32875061 200.2724762 C-111.76311935 201.15467331 -112.1974881 202.03687042 -112.64501953 202.94580078 C-113.10537094 203.87170517 -113.56572235 204.79760956 -114.0400238 205.75157166 C-115.51503993 208.71938494 -116.98471961 211.68979683 -118.45361328 214.66064453 C-142.82266065 263.87108723 -142.82266065 263.87108723 -148.76611328 270.16064453 C-149.53439453 270.98306641 -150.30267578 271.80548828 -151.09423828 272.65283203 C-151.52800781 273.10883789 -151.96177734 273.56484375 -152.40869141 274.03466797 C-154.13907741 275.85966665 -155.8511336 277.70106685 -157.56298828 279.54345703 C-167.81189541 290.54942894 -167.81189541 290.54942894 -172.64501953 295.34814453 C-174.93826855 297.62563791 -177.12702084 299.93104763 -179.20361328 302.41064453 C-181.96729357 305.62148208 -184.87730924 308.62081619 -187.89111328 311.59814453 C-190.84294353 314.51441056 -193.69500187 317.44420288 -196.39111328 320.59814453 C-199.87563435 324.67437672 -203.67193309 328.39365326 -207.48486328 332.16064453 C-209.54560673 334.24815088 -211.48626954 336.36983676 -213.39111328 338.59814453 C-217.6171631 343.53521221 -222.26549163 348.03945309 -226.89111328 352.59814453 C-227.74576172 353.46697266 -228.60041016 354.33580078 -229.48095703 355.23095703 C-231.3767913 357.09299199 -233.18219443 358.73631102 -235.32861328 360.28564453 C-235.86357422 360.68138672 -236.39853516 361.07712891 -236.94970703 361.48486328 C-244.40349241 365.75916677 -253.517876 365.82736457 -261.74267578 363.94580078 C-270.73541226 360.70229057 -276.64025043 355.03032605 -280.98095703 346.61376953 C-284.30206762 339.25886368 -284.13977832 329.04440828 -281.57861328 321.41064453 C-278.7566448 315.39905674 -273.98628353 310.83146617 -269.39208984 306.14794922 C-266.93118839 303.60699242 -264.57572814 300.97163958 -262.20361328 298.34814453 C-258.48130105 294.26636891 -254.6490993 290.32361256 -250.71142578 286.44970703 C-248.8948008 284.60189535 -247.20155366 282.69079819 -245.51611328 280.72314453 C-242.77489879 277.53131944 -239.8842544 274.55511476 -236.89111328 271.59814453 C-233.93928303 268.6818785 -231.08722469 265.75208618 -228.39111328 262.59814453 C-224.90659222 258.52191234 -221.11029347 254.8026358 -217.29736328 251.03564453 C-214.66660226 248.37071778 -212.22973448 245.59774755 -209.82421875 242.73046875 C-207.89111328 240.59814453 -207.89111328 240.59814453 -205.71777344 238.69238281 C-197.10867736 231.02417155 -192.76488987 221.68691644 -187.76611328 211.47314453 C-186.85151874 209.6419895 -185.93507163 207.81175867 -185.0168457 205.98242188 C-182.719343 201.39498276 -180.44382041 196.79704834 -178.17462158 192.19555664 C-176.23789523 188.2762392 -174.28234583 184.36642314 -172.32470703 180.45751953 C-171.62351018 179.05681589 -170.92233774 177.65610003 -170.22119141 176.25537109 C-169.88579346 175.58542114 -169.55039551 174.91547119 -169.20483398 174.22521973 C-168.20849384 172.23290387 -167.21447553 170.23944647 -166.22119141 168.24560547 C-161.6743375 159.12242049 -157.03449879 150.05647291 -152.21630859 141.07324219 C-150.69130221 138.22495282 -149.17839525 135.37035008 -147.66455078 132.51611328 C-141.39585952 120.74052031 -134.94454041 109.10555794 -128.16845703 97.61425781 C-123.08995237 88.99197719 -118.19132356 80.27709358 -113.33251953 71.52954102 C-112.77951172 70.53510986 -112.22650391 69.54067871 -111.65673828 68.51611328 C-111.16979492 67.63721436 -110.68285156 66.75831543 -110.18115234 65.8527832 C-109.15485358 64.0590911 -108.03742785 62.31761638 -106.89111328 60.59814453 C-116.41757389 64.20792007 -123.97210263 67.79796139 -131.32861328 75.06689453 C-133.84371495 77.55132422 -136.44740483 79.76176799 -139.20361328 81.97314453 C-143.4523863 85.40600808 -147.6265316 88.91039912 -151.76611328 92.47314453 C-157.91121494 97.76084862 -164.08797202 103.00926545 -170.28222656 108.23925781 C-172.44436046 110.06542432 -174.60483084 111.89355113 -176.76489258 113.72216797 C-177.84521668 114.63625094 -178.926105 115.54966752 -180.00756836 116.46240234 C-182.77821258 118.80200172 -185.53805858 121.15273761 -188.28173828 123.52392578 C-206.0815354 138.8613919 -206.0815354 138.8613919 -217.20361328 139.91064453 C-226.16035739 139.15159842 -232.94475836 136.51953686 -238.89111328 129.59814453 C-243.34577187 122.67728365 -245.0182443 115.52333787 -243.46533203 107.35986328 C-239.63458784 93.75249587 -225.31339019 84.47258021 -214.83251953 76.00439453 C-211.51723351 73.29228804 -208.26241651 70.51708673 -205.01611328 67.72314453 C-198.87101162 62.43544044 -192.69425454 57.18702361 -186.5 51.95703125 C-184.33799402 50.13097278 -182.17769636 48.30290026 -180.01757812 46.47460938 C-178.93606976 45.55933706 -177.854365 44.64429674 -176.77246094 43.72949219 C-174.02331027 41.40469037 -171.27702898 39.07663241 -168.53564453 36.74267578 C-166.34329575 34.87628159 -164.14385475 33.01885053 -161.93798828 31.16845703 C-160.05532917 29.58026511 -158.18734845 27.97425485 -156.34423828 26.34033203 C-144.04392747 15.76849627 -126.71959335 11.49423459 -111.70361328 6.03564453 C-107.33847239 4.44342013 -102.97416026 2.84893038 -98.60986328 1.25439453 C-96.98912651 0.66288857 -96.98912651 0.66288857 -95.33564758 0.05943298 C-88.58227618 -2.40805974 -81.84073278 -4.90490908 -75.10986328 -7.43310547 C-74.29507004 -7.73860825 -73.48027679 -8.04411102 -72.64079285 -8.35887146 C-69.59371402 -9.50173762 -66.54669972 -10.64462052 -63.5038147 -11.7986145 C-61.4744758 -12.5681509 -59.44282192 -13.33125962 -57.41064453 -14.09326172 C-56.28762939 -14.51808838 -55.16461426 -14.94291504 -54.00756836 -15.38061523 C-34.31376267 -21.83413574 -15.65222938 -11.60277577 0 0 Z " fill="#c62828" transform="translate(282.89111328125,135.40185546875)"/>
<path d="M0 0 C8.63287397 7.95407945 16.01900206 19.99708943 16.98950195 31.92553711 C17.48577979 50.97192913 14.5593428 64.91389567 1.8125 79.75 C-11.68711192 91.78629521 -26.15358553 95.65734482 -43.92529297 94.93359375 C-58.73979461 93.73129446 -71.03689111 85.06981344 -80.45703125 74.109375 C-90.66425661 60.85323817 -92.36497644 46.98120788 -91.1875 30.75 C-88.73311527 16.90727012 -81.11554234 5.12490056 -70.0625 -3.375 C-47.80988785 -18.91268318 -20.8160219 -16.98044013 0 0 Z " fill="#c62828" transform="translate(495.1875,405.25)"/>
<path d="M0 0 C9.54150157 7.52344743 15.33379292 19.10062732 17 31 C17.77328451 42.58439677 16.02198343 52.98405506 10 63 C9.61457031 63.64453125 9.22914063 64.2890625 8.83203125 64.953125 C1.5384448 75.81864382 -9.58683975 81.59663994 -21.9375 84.75 C-37.14508428 85.99143545 -50.69587719 83.29700263 -62.6875 73.375 C-71.83296296 64.73043695 -77.20156502 53.76463857 -78.34375 41.2265625 C-78.72746786 25.46215369 -74.14334899 13.71662845 -63.375 2.29296875 C-45.32358111 -15.13496364 -19.6413752 -13.36280265 0 0 Z " fill="#c62828" transform="translate(315,22)"/>
</svg>