<svg version="1.1" xmlns="http://www.w3.org/2000/svg" width="512px" height="512px">
<path d="M0 0 C0.94738037 -0.00540298 1.89476074 -0.01080597 2.87084961 -0.01637268 C5.98046786 -0.02880876 9.08915112 -0.01240526 12.19873047 0.00561523 C14.37010751 0.00546015 16.54148482 0.00396967 18.71286011 0.00120544 C23.25368553 -0.00017617 27.79419418 0.01234208 32.33496094 0.03515625 C38.15006486 0.06357379 43.9646441 0.06079104 49.77978706 0.04806614 C54.25967885 0.04110681 58.73944968 0.04890065 63.21932602 0.06132317 C65.36349905 0.06583278 67.50768509 0.06617876 69.65185928 0.06225777 C72.64838487 0.05934225 75.64419048 0.07586813 78.640625 0.09765625 C79.96397354 0.09090378 79.96397354 0.09090378 81.3140564 0.08401489 C86.34881045 0.14473446 89.83263922 0.70485835 94.19091797 3.50170898 C97.53332195 7.20545393 99.30950374 9.60727576 99.33808899 14.57415771 C99.34524429 15.4264798 99.3523996 16.27880188 99.35977173 17.1569519 C99.36246063 18.09411041 99.36514954 19.03126892 99.36791992 19.99682617 C99.37449112 20.98234467 99.38106232 21.96786316 99.38783264 22.98324585 C99.40759441 26.25502594 99.41923493 29.52676007 99.42919922 32.79858398 C99.43327475 33.91458229 99.43735027 35.0305806 99.4415493 36.18039703 C99.46242276 42.08762936 99.47671871 47.99483836 99.48608398 53.90209961 C99.49714837 60.00659732 99.53154532 66.1107305 99.57125568 72.21509933 C99.59739161 76.90599245 99.60577318 81.59679835 99.60936546 86.28775787 C99.61423957 88.53802196 99.62587689 90.78828194 99.64440346 93.03847504 C99.6687289 96.18894884 99.66784156 99.33847487 99.66088867 102.48901367 C99.67369873 103.41807526 99.68650879 104.34713684 99.69970703 105.30435181 C99.65513072 110.84830019 99.028831 114.19550629 95.19091797 118.50170898 C90.73456273 122.36217236 85.96138111 121.93300447 80.35522461 121.90576172 C78.87628975 121.91605659 78.87628975 121.91605659 77.36747742 121.92655945 C74.11186274 121.94484426 70.85672918 121.94098743 67.60107422 121.93530273 C65.33572737 121.93986372 63.0703819 121.94516905 60.80503845 121.95118713 C56.0580381 121.96012157 51.31120596 121.95769123 46.56420898 121.94775391 C40.48328404 121.93626416 34.40293976 121.95647463 28.3220911 121.98567104 C23.6440411 122.00402385 18.96613048 122.00374237 14.28805351 121.99803352 C12.04617943 121.9978802 9.80429597 122.00393392 7.56245613 122.016325 C4.42660297 122.03121525 1.29182554 122.02057159 -1.84399414 122.00341797 C-3.23051682 122.01791992 -3.23051682 122.01791992 -4.64505005 122.03271484 C-10.20212852 121.96911512 -13.40115119 121.2142122 -17.80908203 117.50170898 C-20.87064091 114.01786612 -21.92885161 111.03472402 -21.95625305 106.42962646 C-21.96340836 105.60261734 -21.97056366 104.77560822 -21.97793579 103.92353821 C-21.98062469 103.01959824 -21.9833136 102.11565826 -21.98608398 101.18432617 C-21.99265518 100.22952866 -21.99922638 99.27473114 -22.0059967 98.29100037 C-22.02572945 95.12686079 -22.03739238 91.96276868 -22.04736328 88.79858398 C-22.05143881 87.71784859 -22.05551434 86.63711319 -22.05971336 85.52362823 C-22.08057415 79.80327037 -22.09487577 74.0829365 -22.10424805 68.36254883 C-22.11531151 62.45659038 -22.14971097 56.5510088 -22.18941975 50.64518356 C-22.21557529 46.10179955 -22.22393897 41.55850547 -22.22752953 37.0150528 C-22.23239832 34.83818263 -22.2440206 32.66131656 -22.26256752 30.48451996 C-22.28693539 27.43493354 -22.28599795 24.38632406 -22.27905273 21.33666992 C-22.29186279 20.44082687 -22.30467285 19.54498383 -22.31787109 18.62199402 C-22.26917428 12.74309898 -21.49275169 9.17641921 -17.80908203 4.50170898 C-12.31890255 0.30569865 -6.6969343 -0.07372687 0 0 Z " fill="#991b1b" transform="translate(412.80908203125,390.498291015625)"/>
<path d="M0 0 C0.94738037 -0.00540298 1.89476074 -0.01080597 2.87084961 -0.01637268 C5.98046786 -0.02880876 9.08915112 -0.01240526 12.19873047 0.00561523 C14.37010751 0.00546015 16.54148482 0.00396967 18.71286011 0.00120544 C23.25368553 -0.00017617 27.79419418 0.01234208 32.33496094 0.03515625 C38.15006486 0.06357379 43.9646441 0.06079104 49.77978706 0.04806614 C54.25967885 0.04110681 58.73944968 0.04890065 63.21932602 0.06132317 C65.36349905 0.06583278 67.50768509 0.06617876 69.65185928 0.06225777 C72.64838487 0.05934225 75.64419048 0.07586813 78.640625 0.09765625 C79.96397354 0.09090378 79.96397354 0.09090378 81.3140564 0.08401489 C86.34881045 0.14473446 89.83263922 0.70485835 94.19091797 3.50170898 C97.53332195 7.20545393 99.30950374 9.60727576 99.33808899 14.57415771 C99.34524429 15.4264798 99.3523996 16.27880188 99.35977173 17.1569519 C99.36246063 18.09411041 99.36514954 19.03126892 99.36791992 19.99682617 C99.37449112 20.98234467 99.38106232 21.96786316 99.38783264 22.98324585 C99.40759441 26.25502594 99.41923493 29.52676007 99.42919922 32.79858398 C99.43327475 33.91458229 99.43735027 35.0305806 99.4415493 36.18039703 C99.46242276 42.08762936 99.47671871 47.99483836 99.48608398 53.90209961 C99.49714837 60.00659732 99.53154532 66.1107305 99.57125568 72.21509933 C99.59739161 76.90599245 99.60577318 81.59679835 99.60936546 86.28775787 C99.61423957 88.53802196 99.62587689 90.78828194 99.64440346 93.03847504 C99.6687289 96.18894884 99.66784156 99.33847487 99.66088867 102.48901367 C99.67369873 103.41807526 99.68650879 104.34713684 99.69970703 105.30435181 C99.65513072 110.84830019 99.028831 114.19550629 95.19091797 118.50170898 C90.73456273 122.36217236 85.96138111 121.93300447 80.35522461 121.90576172 C78.87628975 121.91605659 78.87628975 121.91605659 77.36747742 121.92655945 C74.11186274 121.94484426 70.85672918 121.94098743 67.60107422 121.93530273 C65.33572737 121.93986372 63.0703819 121.94516905 60.80503845 121.95118713 C56.0580381 121.96012157 51.31120596 121.95769123 46.56420898 121.94775391 C40.48328404 121.93626416 34.40293976 121.95647463 28.3220911 121.98567104 C23.6440411 122.00402385 18.96613048 122.00374237 14.28805351 121.99803352 C12.04617943 121.9978802 9.80429597 122.00393392 7.56245613 122.016325 C4.42660297 122.03121525 1.29182554 122.02057159 -1.84399414 122.00341797 C-3.23051682 122.01791992 -3.23051682 122.01791992 -4.64505005 122.03271484 C-10.20212852 121.96911512 -13.40115119 121.2142122 -17.80908203 117.50170898 C-20.87064091 114.01786612 -21.92885161 111.03472402 -21.95625305 106.42962646 C-21.96340836 105.60261734 -21.97056366 104.77560822 -21.97793579 103.92353821 C-21.98062469 103.01959824 -21.9833136 102.11565826 -21.98608398 101.18432617 C-21.99265518 100.22952866 -21.99922638 99.27473114 -22.0059967 98.29100037 C-22.02572945 95.12686079 -22.03739238 91.96276868 -22.04736328 88.79858398 C-22.05143881 87.71784859 -22.05551434 86.63711319 -22.05971336 85.52362823 C-22.08057415 79.80327037 -22.09487577 74.0829365 -22.10424805 68.36254883 C-22.11531151 62.45659038 -22.14971097 56.5510088 -22.18941975 50.64518356 C-22.21557529 46.10179955 -22.22393897 41.55850547 -22.22752953 37.0150528 C-22.23239832 34.83818263 -22.2440206 32.66131656 -22.26256752 30.48451996 C-22.28693539 27.43493354 -22.28599795 24.38632406 -22.27905273 21.33666992 C-22.29186279 20.44082687 -22.30467285 19.54498383 -22.31787109 18.62199402 C-22.26917428 12.74309898 -21.49275169 9.17641921 -17.80908203 4.50170898 C-12.31890255 0.30569865 -6.6969343 -0.07372687 0 0 Z " fill="#991b1b" transform="translate(284.80908203125,262.498291015625)"/>
<path d="M0 0 C0.81714981 -0.0071553 1.63429962 -0.01431061 2.47621155 -0.02168274 C3.36922974 -0.02437164 4.26224792 -0.02706055 5.18232727 -0.02983093 C6.12576492 -0.03640213 7.06920258 -0.04297333 8.04122925 -0.04974365 C11.16809671 -0.06947753 14.2949161 -0.08114032 17.42182922 -0.09111023 C19.02451125 -0.09722352 19.02451125 -0.09722352 20.65957069 -0.10346031 C26.3162428 -0.12432278 31.97289064 -0.13862299 37.6295929 -0.147995 C43.46595291 -0.15905159 49.30193085 -0.19344264 55.13815594 -0.23316669 C59.6309682 -0.25934252 64.12368962 -0.26768778 68.61657143 -0.27127647 C70.76749561 -0.27614096 72.91841578 -0.28775097 75.06926537 -0.30631447 C78.08512284 -0.33072285 81.09999452 -0.32973739 84.11592102 -0.32279968 C85.44026657 -0.34201477 85.44026657 -0.34201477 86.79136658 -0.36161804 C92.54444503 -0.31355985 97.38654371 0.45584323 101.97261047 4.14717102 C106.27714343 9.50584077 106.54724737 15.33189199 106.47431946 21.95625305 C106.48242393 23.37732361 106.48242393 23.37732361 106.49069214 24.82710266 C106.50312822 27.93672091 106.48672472 31.04540417 106.46870422 34.15498352 C106.4688593 36.32636056 106.47034979 38.49773787 106.47311401 40.66911316 C106.47449563 45.20993859 106.46197738 49.75044723 106.43916321 54.29121399 C106.41074567 60.10631792 106.41352842 65.92089715 106.42625332 71.73604012 C106.43321265 76.2159319 106.42541881 80.69570273 106.41299629 85.17557907 C106.40848668 87.31975211 106.4081407 89.46393814 106.41206169 91.60811234 C106.41497721 94.60463792 106.39845133 97.60044354 106.37666321 100.59687805 C106.38116486 101.47911041 106.3856665 102.36134277 106.39030457 103.27030945 C106.329585 108.3050635 105.76946111 111.78889227 102.97261047 116.14717102 C99.26886552 119.489575 96.8670437 121.26575679 91.90016174 121.29434204 C91.04783966 121.30149734 90.19551758 121.30865265 89.31736755 121.31602478 C88.38020905 121.31871368 87.44305054 121.32140259 86.47749329 121.32417297 C85.49197479 121.33074417 84.5064563 121.33731537 83.49107361 121.34408569 C80.21929351 121.36384746 76.94755939 121.37548799 73.67573547 121.38545227 C72.55973717 121.3895278 71.44373886 121.39360332 70.29392242 121.39780235 C64.3866901 121.41867581 58.4794811 121.43297177 52.57221985 121.44233704 C46.46772214 121.45340143 40.36358896 121.48779837 34.25922012 121.52750874 C29.56832701 121.55364466 24.87752111 121.56202623 20.18656158 121.56561852 C17.9362975 121.57049262 15.68603752 121.58212994 13.43584442 121.60065651 C10.28537062 121.62498196 7.13584459 121.62409461 3.98530579 121.61714172 C3.0562442 121.62995178 2.12718262 121.64276184 1.16996765 121.65596008 C-4.37398073 121.61138377 -7.72118683 120.98508405 -12.02738953 117.14717102 C-15.8878529 112.69081579 -15.45868501 107.91763416 -15.43144226 102.31147766 C-15.43830551 101.32552109 -15.44516876 100.33956451 -15.45223999 99.32373047 C-15.47052481 96.06811579 -15.46666797 92.81298223 -15.46098328 89.55732727 C-15.46554427 87.29198042 -15.47084959 85.02663495 -15.47686768 82.7612915 C-15.48580211 78.01429115 -15.48337177 73.26745901 -15.47343445 68.52046204 C-15.4619447 62.43953709 -15.48215517 56.35919282 -15.51135159 50.27834415 C-15.52970439 45.60029415 -15.52942291 40.92238353 -15.52371407 36.24430656 C-15.52356074 34.00243248 -15.52961447 31.76054902 -15.54200554 29.51870918 C-15.5568958 26.38285602 -15.54625213 23.24807859 -15.52909851 20.11225891 C-15.53876648 19.18791046 -15.54843445 18.26356201 -15.55839539 17.311203 C-15.49479567 11.75412453 -14.73989275 8.55510186 -11.02738953 4.14717102 C-7.56009902 1.10015815 -4.5855644 0.02761875 0 0 Z " fill="#991b1b" transform="translate(143.0273895263672,390.8528289794922)"/>
<path d="M0 0 C0.81714981 -0.0071553 1.63429962 -0.01431061 2.47621155 -0.02168274 C3.36922974 -0.02437164 4.26224792 -0.02706055 5.18232727 -0.02983093 C6.12576492 -0.03640213 7.06920258 -0.04297333 8.04122925 -0.04974365 C11.16809671 -0.06947753 14.2949161 -0.08114032 17.42182922 -0.09111023 C19.02451125 -0.09722352 19.02451125 -0.09722352 20.65957069 -0.10346031 C26.3162428 -0.12432278 31.97289064 -0.13862299 37.6295929 -0.147995 C43.46595291 -0.15905159 49.30193085 -0.19344264 55.13815594 -0.23316669 C59.6309682 -0.25934252 64.12368962 -0.26768778 68.61657143 -0.27127647 C70.76749561 -0.27614096 72.91841578 -0.28775097 75.06926537 -0.30631447 C78.08512284 -0.33072285 81.09999452 -0.32973739 84.11592102 -0.32279968 C85.44026657 -0.34201477 85.44026657 -0.34201477 86.79136658 -0.36161804 C92.54444503 -0.31355985 97.38654371 0.45584323 101.97261047 4.14717102 C106.27714343 9.50584077 106.54724737 15.33189199 106.47431946 21.95625305 C106.48242393 23.37732361 106.48242393 23.37732361 106.49069214 24.82710266 C106.50312822 27.93672091 106.48672472 31.04540417 106.46870422 34.15498352 C106.4688593 36.32636056 106.47034979 38.49773787 106.47311401 40.66911316 C106.47449563 45.20993859 106.46197738 49.75044723 106.43916321 54.29121399 C106.41074567 60.10631792 106.41352842 65.92089715 106.42625332 71.73604012 C106.43321265 76.2159319 106.42541881 80.69570273 106.41299629 85.17557907 C106.40848668 87.31975211 106.4081407 89.46393814 106.41206169 91.60811234 C106.41497721 94.60463792 106.39845133 97.60044354 106.37666321 100.59687805 C106.38116486 101.47911041 106.3856665 102.36134277 106.39030457 103.27030945 C106.329585 108.3050635 105.76946111 111.78889227 102.97261047 116.14717102 C99.26886552 119.489575 96.8670437 121.26575679 91.90016174 121.29434204 C91.04783966 121.30149734 90.19551758 121.30865265 89.31736755 121.31602478 C88.38020905 121.31871368 87.44305054 121.32140259 86.47749329 121.32417297 C85.49197479 121.33074417 84.5064563 121.33731537 83.49107361 121.34408569 C80.21929351 121.36384746 76.94755939 121.37548799 73.67573547 121.38545227 C72.55973717 121.3895278 71.44373886 121.39360332 70.29392242 121.39780235 C64.3866901 121.41867581 58.4794811 121.43297177 52.57221985 121.44233704 C46.46772214 121.45340143 40.36358896 121.48779837 34.25922012 121.52750874 C29.56832701 121.55364466 24.87752111 121.56202623 20.18656158 121.56561852 C17.9362975 121.57049262 15.68603752 121.58212994 13.43584442 121.60065651 C10.28537062 121.62498196 7.13584459 121.62409461 3.98530579 121.61714172 C3.0562442 121.62995178 2.12718262 121.64276184 1.16996765 121.65596008 C-4.37398073 121.61138377 -7.72118683 120.98508405 -12.02738953 117.14717102 C-15.8878529 112.69081579 -15.45868501 107.91763416 -15.43144226 102.31147766 C-15.43830551 101.32552109 -15.44516876 100.33956451 -15.45223999 99.32373047 C-15.47052481 96.06811579 -15.46666797 92.81298223 -15.46098328 89.55732727 C-15.46554427 87.29198042 -15.47084959 85.02663495 -15.47686768 82.7612915 C-15.48580211 78.01429115 -15.48337177 73.26745901 -15.47343445 68.52046204 C-15.4619447 62.43953709 -15.48215517 56.35919282 -15.51135159 50.27834415 C-15.52970439 45.60029415 -15.52942291 40.92238353 -15.52371407 36.24430656 C-15.52356074 34.00243248 -15.52961447 31.76054902 -15.54200554 29.51870918 C-15.5568958 26.38285602 -15.54625213 23.24807859 -15.52909851 20.11225891 C-15.53876648 19.18791046 -15.54843445 18.26356201 -15.55839539 17.311203 C-15.49479567 11.75412453 -14.73989275 8.55510186 -11.02738953 4.14717102 C-7.56009902 1.10015815 -4.5855644 0.02761875 0 0 Z " fill="#991b1b" transform="translate(15.027389526367188,262.8528289794922)"/>
<path d="M0 0 C1.27848312 -0.01073296 1.27848312 -0.01073296 2.58279419 -0.02168274 C3.5199527 -0.02437164 4.45711121 -0.02706055 5.42266846 -0.02983093 C6.40818695 -0.03640213 7.39370544 -0.04297333 8.40908813 -0.04974365 C11.68086823 -0.06950542 14.95260235 -0.08114595 18.22442627 -0.09111023 C19.34042458 -0.09518576 20.45642288 -0.09926128 21.60623932 -0.10346031 C27.51347164 -0.12433377 33.42068065 -0.13862972 39.32794189 -0.147995 C45.4324396 -0.15905938 51.53657279 -0.19345633 57.64094162 -0.23316669 C62.33183473 -0.25930262 67.02264063 -0.26768419 71.71360016 -0.27127647 C73.96386424 -0.27615058 76.21412422 -0.2877879 78.46431732 -0.30631447 C81.61479112 -0.33063991 84.76431716 -0.32975257 87.91485596 -0.32279968 C89.30844833 -0.34201477 89.30844833 -0.34201477 90.73019409 -0.36161804 C96.27414247 -0.31704173 99.62134857 0.30925799 103.92755127 4.14717102 C107.78801464 8.60352626 107.35884676 13.37670788 107.331604 18.98286438 C107.33846725 19.96882095 107.34533051 20.95477753 107.35240173 21.97061157 C107.37068655 25.22622625 107.36682972 28.48135981 107.36114502 31.73701477 C107.36570601 34.00236162 107.37101133 36.26770709 107.37702942 38.53305054 C107.38596385 43.28005089 107.38353352 48.02688303 107.37359619 52.77388 C107.36210644 58.85480495 107.38231692 64.93514922 107.41151333 71.01599789 C107.42986614 75.69404789 107.42958465 80.37195851 107.42387581 85.05003548 C107.42372248 87.29190956 107.42977621 89.53379302 107.44216728 91.77563286 C107.45705754 94.91148602 107.44641388 98.04626345 107.42926025 101.18208313 C107.43892822 102.10643158 107.44859619 103.03078003 107.45855713 103.98313904 C107.39495741 109.54021751 106.64005449 112.73924018 102.92755127 117.14717102 C99.46026076 120.19418389 96.48572615 121.26672329 91.90016174 121.29434204 C91.08301193 121.30149734 90.26586212 121.30865265 89.4239502 121.31602478 C88.53093201 121.31871368 87.63791382 121.32140259 86.71783447 121.32417297 C85.77439682 121.33074417 84.83095917 121.33731537 83.8589325 121.34408569 C80.73206504 121.36381957 77.60524564 121.37548236 74.47833252 121.38545227 C72.87565049 121.39156556 72.87565049 121.39156556 71.24059105 121.39780235 C65.58391895 121.41866482 59.92727111 121.43296503 54.27056885 121.44233704 C48.43420883 121.45339363 42.59823089 121.48778469 36.76200581 121.52750874 C32.26919355 121.55368456 27.77647212 121.56202982 23.28359032 121.56561852 C21.13266613 121.570483 18.98174596 121.58209301 16.83089638 121.60065651 C13.8150389 121.62506489 10.80016722 121.62407943 7.78424072 121.61714172 C6.90134369 121.62995178 6.01844666 121.64276184 5.10879517 121.65596008 C-0.64428329 121.60790189 -5.48638197 120.83849881 -10.07244873 117.14717102 C-14.37698168 111.78850127 -14.64708562 105.96245005 -14.57415771 99.33808899 C-14.58226219 97.91701843 -14.58226219 97.91701843 -14.5905304 96.46723938 C-14.60296648 93.35762113 -14.58656298 90.24893787 -14.56854248 87.13935852 C-14.56869756 84.96798148 -14.57018804 82.79660417 -14.57295227 80.62522888 C-14.57433388 76.08440346 -14.56181564 71.54389481 -14.53900146 67.00312805 C-14.51058393 61.18802412 -14.51336668 55.37344489 -14.52609158 49.55830193 C-14.5330509 45.07841014 -14.52525706 40.59863931 -14.51283455 36.11876297 C-14.50832493 33.97458993 -14.50797896 31.8304039 -14.51189995 29.68622971 C-14.51481547 26.68970412 -14.49828959 23.6938985 -14.47650146 20.69746399 C-14.48100311 19.81523163 -14.48550476 18.93299927 -14.49014282 18.02403259 C-14.42942326 12.98927854 -13.86929937 9.50544977 -11.07244873 5.14717102 C-7.36870378 1.80476704 -4.96688196 0.02858525 0 0 Z " fill="#991b1b" transform="translate(405.07244873046875,127.85282897949219)"/>
<path d="M0 0 C0.82700912 -0.0071553 1.65401825 -0.01431061 2.50608826 -0.02168274 C3.41002823 -0.02437164 4.3139682 -0.02706055 5.24530029 -0.02983093 C6.20009781 -0.03640213 7.15489532 -0.04297333 8.1386261 -0.04974365 C11.30276568 -0.0694764 14.46685779 -0.08113933 17.63104248 -0.09111023 C19.25214558 -0.09722352 19.25214558 -0.09722352 20.90599823 -0.10346031 C26.62635609 -0.1243211 32.34668996 -0.13862271 38.06707764 -0.147995 C43.97303608 -0.15905845 49.87861766 -0.19345792 55.7844429 -0.23316669 C60.32782691 -0.25932223 64.87112099 -0.26768592 69.41457367 -0.27127647 C71.59144383 -0.27614527 73.76830991 -0.28776755 75.94510651 -0.30631447 C78.99469292 -0.33068234 82.04330241 -0.3297449 85.09295654 -0.32279968 C85.98879959 -0.33560974 86.88464264 -0.3484198 87.80763245 -0.36161804 C93.68990672 -0.31289324 97.21289922 0.52572877 101.92791748 4.14717102 C106.15110321 9.65539817 106.50337846 14.13654994 106.42962646 20.93452454 C106.43773094 22.37000641 106.43773094 22.37000641 106.44599915 23.83448792 C106.45845544 26.9820038 106.44201684 30.12859952 106.42401123 33.27607727 C106.42416628 35.47130379 106.42565619 37.66653059 106.42842102 39.86175537 C106.42980359 44.45563401 106.41726942 49.0491999 106.39447021 53.64302063 C106.36606958 59.5265327 106.36882951 65.40952596 106.38156033 71.29307652 C106.38852002 75.82358215 106.38072511 80.35396818 106.3683033 84.88445854 C106.36379283 87.05375141 106.36344846 89.22305713 106.3673687 91.39235115 C106.37028412 94.42490527 106.3537581 97.4567479 106.33197021 100.48921204 C106.33647186 101.38236618 106.34097351 102.27552032 106.34561157 103.19573975 C106.28529808 108.25686056 105.74538571 111.76836075 102.92791748 116.14717102 C99.23389021 119.48080538 96.82203969 121.25984102 91.868927 121.31452942 C91.01949524 121.3260202 90.17006348 121.33751099 89.29489136 121.34934998 C88.36087494 121.35675201 87.42685852 121.36415405 86.46453857 121.3717804 C85.48223267 121.38317047 84.49992676 121.39456055 83.487854 121.40629578 C73.20476315 121.51698297 62.9209513 121.56438578 52.63739014 121.60713196 C47.75812596 121.62940354 42.87962704 121.6711658 38.00067139 121.73017883 C32.11088431 121.80128149 26.22181731 121.83796682 20.33162308 121.85025024 C18.08853017 121.86064913 15.84545894 121.88306906 13.60261154 121.91784668 C10.4567781 121.96409884 7.31376221 121.96604716 4.16766357 121.9577179 C2.78485703 121.99311172 2.78485703 121.99311172 1.37411499 122.02922058 C-4.93655371 121.94860048 -8.06423802 120.22857101 -12.58441734 115.84523773 C-14.91193233 113.18854066 -15.19943341 111.51860473 -15.21925354 108.07472229 C-15.22640884 107.22240021 -15.23356415 106.37007813 -15.24093628 105.4919281 C-15.24362518 104.55476959 -15.24631409 103.61761108 -15.24908447 102.65205383 C-15.25565567 101.66653534 -15.26222687 100.68101685 -15.26899719 99.66563416 C-15.28875896 96.39385406 -15.30039949 93.12211994 -15.31036377 89.85029602 C-15.31647706 88.17629856 -15.31647706 88.17629856 -15.32271385 86.46848297 C-15.34358731 80.56125065 -15.35788326 74.65404164 -15.36724854 68.7467804 C-15.37831292 62.64228269 -15.41270987 56.5381495 -15.45242023 50.43378067 C-15.47855616 45.74288756 -15.48693773 41.05208166 -15.49053001 36.36112213 C-15.49540412 34.11085805 -15.50704144 31.86059807 -15.52556801 29.61040497 C-15.54989345 26.45993117 -15.54900611 23.31040513 -15.54205322 20.15986633 C-15.55486328 19.23080475 -15.56767334 18.30174316 -15.58087158 17.3445282 C-15.53604861 11.76990323 -14.80260485 8.56702458 -11.07208252 4.14717102 C-7.58823965 1.08561214 -4.60509755 0.02740145 0 0 Z " fill="#991b1b" transform="translate(143.07208251953125,119.85282897949219)"/>
<path d="M0 0 C1.27848312 -0.01073296 1.27848312 -0.01073296 2.58279419 -0.02168274 C3.5199527 -0.02437164 4.45711121 -0.02706055 5.42266846 -0.02983093 C6.40818695 -0.03640213 7.39370544 -0.04297333 8.40908813 -0.04974365 C11.68086823 -0.06950542 14.95260235 -0.08114595 18.22442627 -0.09111023 C19.34042458 -0.09518576 20.45642288 -0.09926128 21.60623932 -0.10346031 C27.51347164 -0.12433377 33.42068065 -0.13862972 39.32794189 -0.147995 C45.4324396 -0.15905938 51.53657279 -0.19345633 57.64094162 -0.23316669 C62.33183473 -0.25930262 67.02264063 -0.26768419 71.71360016 -0.27127647 C73.96386424 -0.27615058 76.21412422 -0.2877879 78.46431732 -0.30631447 C81.61479112 -0.33063991 84.76431716 -0.32975257 87.91485596 -0.32279968 C89.30844833 -0.34201477 89.30844833 -0.34201477 90.73019409 -0.36161804 C96.27414247 -0.31704173 99.62134857 0.30925799 103.92755127 4.14717102 C107.78801464 8.60352626 107.35884676 13.37670788 107.331604 18.98286438 C107.33846725 19.96882095 107.34533051 20.95477753 107.35240173 21.97061157 C107.37068655 25.22622625 107.36682972 28.48135981 107.36114502 31.73701477 C107.36570601 34.00236162 107.37101133 36.26770709 107.37702942 38.53305054 C107.38596385 43.28005089 107.38353352 48.02688303 107.37359619 52.77388 C107.36210644 58.85480495 107.38231692 64.93514922 107.41151333 71.01599789 C107.42986614 75.69404789 107.42958465 80.37195851 107.42387581 85.05003548 C107.42372248 87.29190956 107.42977621 89.53379302 107.44216728 91.77563286 C107.45705754 94.91148602 107.44641388 98.04626345 107.42926025 101.18208313 C107.43892822 102.10643158 107.44859619 103.03078003 107.45855713 103.98313904 C107.39495741 109.54021751 106.64005449 112.73924018 102.92755127 117.14717102 C99.46026076 120.19418389 96.48572615 121.26672329 91.90016174 121.29434204 C91.08301193 121.30149734 90.26586212 121.30865265 89.4239502 121.31602478 C88.53093201 121.31871368 87.63791382 121.32140259 86.71783447 121.32417297 C85.77439682 121.33074417 84.83095917 121.33731537 83.8589325 121.34408569 C80.73206504 121.36381957 77.60524564 121.37548236 74.47833252 121.38545227 C72.87565049 121.39156556 72.87565049 121.39156556 71.24059105 121.39780235 C65.58391895 121.41866482 59.92727111 121.43296503 54.27056885 121.44233704 C48.43420883 121.45339363 42.59823089 121.48778469 36.76200581 121.52750874 C32.26919355 121.55368456 27.77647212 121.56202982 23.28359032 121.56561852 C21.13266613 121.570483 18.98174596 121.58209301 16.83089638 121.60065651 C13.8150389 121.62506489 10.80016722 121.62407943 7.78424072 121.61714172 C6.90134369 121.62995178 6.01844666 121.64276184 5.10879517 121.65596008 C-0.64428329 121.60790189 -5.48638197 120.83849881 -10.07244873 117.14717102 C-14.37698168 111.78850127 -14.64708562 105.96245005 -14.57415771 99.33808899 C-14.58226219 97.91701843 -14.58226219 97.91701843 -14.5905304 96.46723938 C-14.60296648 93.35762113 -14.58656298 90.24893787 -14.56854248 87.13935852 C-14.56869756 84.96798148 -14.57018804 82.79660417 -14.57295227 80.62522888 C-14.57433388 76.08440346 -14.56181564 71.54389481 -14.53900146 67.00312805 C-14.51058393 61.18802412 -14.51336668 55.37344489 -14.52609158 49.55830193 C-14.5330509 45.07841014 -14.52525706 40.59863931 -14.51283455 36.11876297 C-14.50832493 33.97458993 -14.50797896 31.8304039 -14.51189995 29.68622971 C-14.51481547 26.68970412 -14.49828959 23.6938985 -14.47650146 20.69746399 C-14.48100311 19.81523163 -14.48550476 18.93299927 -14.49014282 18.02403259 C-14.42942326 12.98927854 -13.86929937 9.50544977 -11.07244873 5.14717102 C-7.36870378 1.80476704 -4.96688196 0.02858525 0 0 Z " fill="#991b1b" transform="translate(277.07244873046875,-0.1471710205078125)"/>
<path d="M0 0 C1.47893486 -0.01029488 1.47893486 -0.01029488 2.98774719 -0.02079773 C6.24336187 -0.03908255 9.49849543 -0.03522571 12.75415039 -0.02954102 C15.01949724 -0.03410201 17.28484271 -0.03940733 19.55018616 -0.04542542 C24.29718651 -0.05435985 29.04401865 -0.05192951 33.79101562 -0.04199219 C39.87194057 -0.03050244 45.95228485 -0.05071291 52.03313351 -0.07990932 C56.71118351 -0.09826213 61.38909413 -0.09798065 66.0671711 -0.0922718 C68.30904518 -0.09211848 70.55092864 -0.09817221 72.79276848 -0.11056328 C75.92862164 -0.12545354 79.06339907 -0.11480987 82.19921875 -0.09765625 C83.1235672 -0.10732422 84.04791565 -0.11699219 85.00027466 -0.12695312 C90.55735313 -0.0633534 93.7563758 0.69154951 98.16430664 4.40405273 C101.21131951 7.87134324 102.28385891 10.84587786 102.31147766 15.43144226 C102.31863297 16.24859207 102.32578827 17.06574188 102.3331604 17.90765381 C102.3358493 18.800672 102.33853821 19.69369019 102.34130859 20.61376953 C102.34787979 21.55720718 102.35445099 22.50064484 102.36122131 23.47267151 C102.38095519 26.59953897 102.39261798 29.72635836 102.40258789 32.85327148 C102.40666342 33.92172617 102.41073895 34.99018085 102.41493797 36.09101295 C102.43580044 41.74768506 102.45010065 47.4043329 102.45947266 53.06103516 C102.47052925 58.89739517 102.50492031 64.73337311 102.54464436 70.5695982 C102.57082018 75.06241046 102.57916544 79.55513188 102.58275414 84.04801369 C102.58761862 86.19893788 102.59922863 88.34985804 102.61779213 90.50070763 C102.64220051 93.5165651 102.64121505 96.53143679 102.63427734 99.54736328 C102.6470874 100.43026031 102.65989746 101.31315735 102.6730957 102.22280884 C102.62503751 107.97588729 101.85563443 112.81798597 98.16430664 117.40405273 C92.80563689 121.70858569 86.97958567 121.97868963 80.35522461 121.90576172 C79.40784424 121.9111647 78.46046387 121.91656769 77.484375 121.9221344 C74.37475675 121.93457048 71.26607349 121.91816698 68.15649414 121.90014648 C65.9851171 121.90030157 63.81373979 121.90179205 61.6423645 121.90455627 C57.10153908 121.90593789 52.56103043 121.89341964 48.02026367 121.87060547 C42.20515974 121.84218793 36.39058051 121.84497068 30.57543755 121.85769558 C26.09554576 121.86465491 21.61577493 121.85686107 17.13589859 121.84443855 C14.99172556 121.83992894 12.84753952 121.83958296 10.70336533 121.84350395 C7.70683974 121.84641947 4.71103412 121.82989359 1.71459961 121.80810547 C0.39125107 121.81485794 0.39125107 121.81485794 -0.95883179 121.82174683 C-5.99358584 121.76102726 -9.47741461 121.20090337 -13.83569336 118.40405273 C-17.17809734 114.70030779 -18.95427913 112.29848596 -18.98286438 107.331604 C-18.99001968 106.47928192 -18.99717499 105.62695984 -19.00454712 104.74880981 C-19.00723602 103.81165131 -19.00992493 102.8744928 -19.01269531 101.90893555 C-19.01926651 100.92341705 -19.02583771 99.93789856 -19.03260803 98.92251587 C-19.0523698 95.65073578 -19.06401033 92.37900165 -19.07397461 89.10717773 C-19.0800879 87.43318027 -19.0800879 87.43318027 -19.08632469 85.72536469 C-19.10719815 79.81813236 -19.1214941 73.91092336 -19.13085938 68.00366211 C-19.14192376 61.8991644 -19.17632071 55.79503122 -19.21603107 49.69066238 C-19.242167 44.99976927 -19.25054857 40.30896337 -19.25414085 35.61800385 C-19.25901496 33.36773976 -19.27065228 31.11747978 -19.28917885 28.86728668 C-19.31350429 25.71681288 -19.31261695 22.56728685 -19.30566406 19.41674805 C-19.31847412 18.48768646 -19.33128418 17.55862488 -19.34448242 16.60140991 C-19.29990611 11.05746153 -18.67360639 7.71025543 -14.83569336 3.40405273 C-10.37933812 -0.45641064 -5.6061565 -0.02724275 0 0 Z " fill="#991b1b" transform="translate(18.835693359375,-0.404052734375)"/>
</svg>