<?xml version="1.0" encoding="UTF-8"?>
<svg version="1.1" xmlns="http://www.w3.org/2000/svg" width="2083" height="2083">
<path d="M0 0 C0.749328 0.07025391 1.49865601 0.14050781 2.27069092 0.21289062 C37.21175088 3.50644023 71.93648248 9.5845222 106 18 C107.20527344 18.29455078 108.41054687 18.58910156 109.65234375 18.89257812 C171.31304084 34.1267845 251.14693072 60.14693072 297 106 C296.94199219 106.60070312 296.88398437 107.20140625 296.82421875 107.8203125 C296.65472726 110.67745476 296.82149822 112.36872694 298 115 C300.66768523 116.7535833 303.35457266 118.0543413 306.27563477 119.33007812 C314.48263067 122.94760134 321.88927817 128.54394692 327 136 C327.4887168 138.80034725 327.19460025 141.12964638 327 144 C328.155 143.814375 329.31 143.62875 330.5 143.4375 C333.28878727 143.47650402 334.6352017 143.72866242 336.890625 145.40625 C339.1094586 147.83018586 341.05261778 150.35088866 343 153 C343.45955078 153.62213379 343.91910156 154.24426758 344.39257812 154.88525391 C388.13101428 214.46247838 405.43899058 285.77987282 404 359 C403.98114746 360.22759033 403.98114746 360.22759033 403.96191406 361.47998047 C403.12632127 406.50820001 390.24666173 450.52713898 371 491 C370.57283691 491.91185059 370.14567383 492.82370117 369.70556641 493.76318359 C354.45997279 526.13316775 334.36289207 556.4543994 313.15136719 585.20727539 C309.88036029 589.67337351 306.89202474 594.24214907 304.0625 599 C303.69793701 599.61133789 303.33337402 600.22267578 302.95776367 600.85253906 C301.3592137 603.56906817 299.84902321 606.30044757 298.43359375 609.1171875 C295.04590366 615.63410631 295.04590366 615.63410631 291.6328125 616.828125 C289.3618148 617.09696585 287.27711648 617.1720488 285 617 C284.74347656 617.76441406 284.48695313 618.52882813 284.22265625 619.31640625 C279.10448079 633.6369578 271.07453075 645.37054674 261.54052734 657.09423828 C251.58771106 669.40670799 242.15073096 682.08402591 233 695 C232.43812988 695.79132324 231.87625977 696.58264648 231.29736328 697.39794922 C218.87703695 714.91954357 206.95266411 732.77146618 195.37841797 750.86230469 C193.93630893 753.09877418 192.47119291 755.31904317 191.00390625 757.5390625 C174.93331362 782.080122 166.23435542 804.5226836 167 834 C167.0309375 835.5778125 167.0309375 835.5778125 167.0625 837.1875 C168.34241773 849.98667726 179.34848273 862.6044153 187.02734375 872.421875 C193.54879066 880.94495413 193.54879066 880.94495413 193.25 885.875 C193.21390625 886.65617187 193.1778125 887.43734375 193.140625 888.2421875 C193.09421875 888.82226562 193.0478125 889.40234375 193 890 C193.85335938 890.25652344 194.70671875 890.51304687 195.5859375 890.77734375 C206.7562282 894.77768813 218.5968098 902.5968098 227 911 C227.1953125 913.1640625 227.1953125 913.1640625 227.125 915.625 C227.10695313 916.44226562 227.08890625 917.25953125 227.0703125 918.1015625 C227.03550781 919.04128906 227.03550781 919.04128906 227 920 C203.93407134 922.26978553 181.73574646 918.52392972 163.1484375 903.73046875 C160.69156599 901.55194371 158.33415195 899.30882662 156 897 C155.10087891 896.17435547 155.10087891 896.17435547 154.18359375 895.33203125 C121.20875305 864.34639208 108.62927508 814.18392126 107.16015625 770.59765625 C104.75901634 681.81036262 117.81767421 593.22741052 131.93012524 498.55771446 C137.5101081 461.20135617 142.75801491 423.79531086 144 386 C144.04253906 384.80375 144.08507813 383.6075 144.12890625 382.375 C145.22193618 319.41647599 123.36939711 259.50987575 103.00042725 200.8885498 C102.00531801 198.01535477 101.01822723 195.13952903 100.03369141 192.26269531 C98.47988885 187.72423278 96.90852123 183.19224902 95.32293701 178.66479492 C94.74161636 176.99732991 94.16578856 175.32793775 93.5960083 173.65649414 C90.56185849 164.77616634 87.57859777 156.93786952 81 150 C80.25234375 149.1646875 79.5046875 148.329375 78.734375 147.46875 C73.94858882 142.72064718 68.94938715 138.39158171 63.6796875 134.1875 C61.22965225 132.18747123 58.93093482 130.09984181 56.625 127.9375 C50.63332979 122.54174636 42.97682759 116.76465212 35 115 C35.3309668 115.44053711 35.66193359 115.88107422 36.00292969 116.33496094 C83.45142144 179.8499757 94.13285892 252.35621438 94.16796875 329.83203125 C94.17201038 332.06351761 94.17624717 334.29500361 94.18066406 336.52648926 C94.19203306 343.62183444 94.19059515 350.71714863 94.1875 357.8125 C94.18738041 359.01937344 94.18726082 360.22624687 94.1871376 361.46969223 C94.1825037 398.34856779 94.03469312 435.1676348 92 472 C91.90782102 473.75943714 91.81569718 475.51887717 91.72363281 477.27832031 C90.52870885 499.40603103 87.74227711 521.22527335 84.62719727 543.15722656 C79.05661177 582.40864942 75.7702391 621.84380419 73.875 661.4375 C73.83638855 662.22345551 73.7977771 663.00941101 73.75799561 663.81918335 C72.11866995 697.80861307 71.81113017 731.84589677 71.81469727 765.86865234 C71.81477904 769.9705847 71.8077255 774.07240657 71.79418945 778.17431641 C71.51940563 862.9428962 80.44192409 947.93984187 136 1016 C136.53310791 1016.66233643 137.06621582 1017.32467285 137.61547852 1018.00708008 C141.98036096 1023.23749492 146.83044317 1027.2925389 152.3125 1031.3125 C153.19059326 1031.96130127 154.06868652 1032.61010254 154.97338867 1033.27856445 C184.03635306 1054.47254235 216.88969557 1068.57665653 250.5625 1080.65234375 C255.1181326 1082.29172068 259.58674793 1084.01009617 264 1086 C264 1088.97 264 1091.94 264 1095 C254.82543148 1099.53363911 245.34314635 1102.75193856 235.625 1105.875 C234.81154114 1106.13734436 233.99808228 1106.39968872 233.15997314 1106.66998291 C165.03076983 1128.54627159 88.97626064 1135.69174913 18 1126 C17.30291931 1125.90525391 16.60583862 1125.81050781 15.88763428 1125.71289062 C-27.27332517 1119.78354195 -69.5182221 1108.63723166 -109 1090 C-109.96808594 1089.54544434 -110.93617188 1089.09088867 -111.93359375 1088.62255859 C-152.24167674 1069.52339378 -191.10790307 1043.09346614 -218 1007 C-218.64839844 1006.13503906 -219.29679687 1005.27007813 -219.96484375 1004.37890625 C-235.98356209 982.25781902 -246.01721516 956.96259377 -250 930 C-250.0942627 929.3709375 -250.18852539 928.741875 -250.28564453 928.09375 C-251.27767306 920.55504302 -251.243758 912.96569847 -251.25 905.375 C-251.25067474 904.63245972 -251.25134949 903.88991943 -251.25204468 903.12487793 C-251.13315893 819.75374771 -220.93189029 739.66277544 -186.0168457 665.17047119 C-184.99167945 662.98223967 -183.96913861 660.79279851 -182.94726562 658.60302734 C-176.74288163 645.31296683 -170.49583306 632.04583007 -164.07373047 618.859375 C-158.54726173 607.50122144 -153.29172729 596.05252068 -148.1875 584.5 C-147.85218262 583.74111481 -147.51686523 582.98222961 -147.17138672 582.2003479 C-146.83510254 581.43918671 -146.49881836 580.67802551 -146.15234375 579.89379883 C-136.39606598 557.81232222 -126.43121381 535.83695171 -115.875 514.125 C-115.54177734 513.43920868 -115.20855469 512.75341736 -114.86523438 512.04684448 C-111.42334105 504.9685115 -107.95583838 497.90392164 -104.4453125 490.859375 C-88.24513957 458.15716256 -75.46296684 424.01458128 -63.00048828 389.74890137 C-61.98719653 386.9648217 -60.9704373 384.18202686 -59.953125 381.39941406 C-48.96550828 351.52444662 -48.96550828 351.52444662 -40 321 C-39.7716748 320.11683105 -39.54334961 319.23366211 -39.30810547 318.32373047 C-35.43135635 303.07297966 -32.95600792 287.60614888 -31 272 C-30.84096191 270.77132202 -30.84096191 270.77132202 -30.67871094 269.51782227 C-26.69419117 233.49647824 -27.22799111 187.89894051 -44 155 C-44.71542969 153.51693359 -44.71542969 153.51693359 -45.4453125 152.00390625 C-57.26811289 128.67243784 -75.47062222 108.00198648 -96 92 C-96.56928223 91.54898926 -97.13856445 91.09797852 -97.72509766 90.63330078 C-136.60660825 59.92533053 -184.22500757 41.78257266 -230.9387207 26.71118164 C-235.89881675 25.10118325 -235.89881675 25.10118325 -237 24 C-237.07179964 22.48071962 -237.08392007 20.95832518 -237.0625 19.4375 C-237.05347656 18.61121094 -237.04445313 17.78492188 -237.03515625 16.93359375 C-237.02355469 16.29550781 -237.01195312 15.65742187 -237 15 C-161.32128783 -6.16016623 -77.67542141 -7.4402132 0 0 Z " fill="#CB3A3A" transform="translate(1257,676)"/>
<path d="M0 0 C1.40747498 0.00090637 1.40747498 0.00090637 2.84338379 0.00183105 C18.68298491 0.02935484 34.36031984 0.52673743 50.125 2.1875 C51.31818848 2.31108887 52.51137695 2.43467773 53.74072266 2.56201172 C103.71194149 7.93351081 152.59070709 20.71721632 198.125 42.1875 C199.06923828 42.63206543 200.01347656 43.07663086 200.98632812 43.53466797 C229.18259349 56.94209992 255.85743294 73.73081828 280.47216797 92.92822266 C282.04361325 94.12549219 283.66360116 95.25824469 285.28515625 96.38671875 C291.94212597 101.1523975 291.94212597 101.1523975 292.52734375 104.46484375 C292.51832031 105.23957031 292.50929688 106.01429688 292.5 106.8125 C292.39565295 109.09865542 292.39565295 109.09865542 293.125 111.1875 C295.86170307 113.09333439 298.68313184 114.29376626 301.7421875 115.6171875 C322.78375694 125.38475207 339.14775696 147.01063995 351.125 166.1875 C351.5360498 166.84202148 351.94709961 167.49654297 352.37060547 168.17089844 C381.22540215 214.52335199 399.08964874 271.25633979 399.328125 325.96875 C399.33513931 327.05269043 399.34215363 328.13663086 399.34938049 329.25341797 C399.36678266 332.73148812 399.37323279 336.20938791 399.375 339.6875 C399.37601212 341.47160278 399.37601212 341.47160278 399.37704468 343.29174805 C399.36125833 360.79423196 398.884678 377.87287635 396.125 395.1875 C395.95339355 396.33331543 395.78178711 397.47913086 395.60498047 398.65966797 C386.82224964 456.81092152 366.86600349 512.99753901 342.125 566.1875 C340.43669683 565.90051899 338.74939428 565.60764974 337.0625 565.3125 C336.12277344 565.15007813 335.18304687 564.98765625 334.21484375 564.8203125 C330.77965319 564.11677158 327.48543716 563.18598195 324.125 562.1875 C323.81369141 560.43566406 323.81369141 560.43566406 323.49609375 558.6484375 C311.63363676 493.39496678 289.21469004 431.75119295 254.6484375 375.04296875 C252.28334783 371.13679156 249.94347771 367.22037466 247.6875 363.25 C247.20152344 362.39921875 246.71554687 361.5484375 246.21484375 360.671875 C244.4695732 356.69340879 244.70411832 353.46646376 245.125 349.1875 C244.55652344 349.26871094 243.98804688 349.34992188 243.40234375 349.43359375 C239.98485627 349.7131545 237.24834313 349.90300518 234.28515625 348.015625 C232.41581511 346.1682761 230.77538096 344.23368967 229.125 342.1875 C228.36832031 341.30707031 227.61164062 340.42664063 226.83203125 339.51953125 C215.43369295 326.03862543 215.43369295 326.03862543 216.125 316.1875 C215.55652344 316.26871094 214.98804688 316.34992188 214.40234375 316.43359375 C211.06854166 316.70630878 208.28684829 316.88768672 205.35546875 315.12109375 C200.82330353 310.72125453 197.16940884 305.39469302 193.32397461 300.39648438 C188.58423862 294.3210268 183.42843345 288.89151143 176.5625 285.25 C174.125 283.1875 174.125 283.1875 173.76171875 280.94921875 C173.75104835 278.66219674 173.86298925 276.4582598 174.125 274.1875 C173.26390625 273.92582031 172.4028125 273.66414063 171.515625 273.39453125 C160.07450286 269.32159722 150.25255131 261.52892259 140.55859375 254.41796875 C105.42878471 228.68834952 65.97120655 208.99042862 25.125 194.1875 C23.46114258 193.57890137 23.46114258 193.57890137 21.76367188 192.95800781 C-12.06405688 180.72141402 -47.33626758 172.55150073 -82.875 167.1875 C-84.12812988 166.99607422 -85.38125977 166.80464844 -86.67236328 166.60742188 C-119.03275618 161.75441978 -151.85725215 159.06558029 -184.58203125 158.984375 C-186.33985415 158.97739207 -188.09767682 158.97035115 -189.85549927 158.96325684 C-195.46616926 158.9439262 -201.07680035 158.93907696 -206.6875 158.9375 C-207.64548115 158.93691086 -208.6034623 158.93632172 -209.59047318 158.93571472 C-241.4541075 158.92189259 -273.10049109 159.61493009 -304.875 162.1875 C-305.95368347 162.27424988 -307.03236694 162.36099976 -308.14373779 162.45037842 C-317.85030935 163.23470336 -327.55543012 164.03494238 -337.25366211 164.91699219 C-338.18855972 165.00155167 -339.12345734 165.08611115 -340.08668518 165.17323303 C-341.81420422 165.33059239 -343.54147511 165.49071369 -345.26841736 165.65428162 C-349.82754067 166.07078648 -354.29668632 166.26262309 -358.875 166.1875 C-358.24781994 161.54636752 -356.35474211 157.68626631 -354.25 153.5625 C-353.71040649 152.49962769 -353.71040649 152.49962769 -353.15991211 151.4152832 C-342.1438125 130.02566958 -325.63354105 112.06243685 -306.875 97.1875 C-305.39 95.99447266 -305.39 95.99447266 -303.875 94.77734375 C-242.10862426 46.05911489 -160.71739666 18.56990994 0 0 Z " fill="#CB3A3A" transform="translate(1395.875,475.8125)"/>
<path d="M0 0 C0.73154297 0.00451172 1.46308594 0.00902344 2.21679688 0.01367188 C3.99873419 0.02531852 5.78062863 0.04324809 7.5625 0.0625 C8.04770958 3.62420309 8.52448968 7.1869901 9 10.75 C9.13470703 11.73806641 9.26941406 12.72613281 9.40820312 13.74414062 C10.94020367 25.29019348 11.697766 36.85540518 12.09375 48.4921875 C12.15604797 50.32111038 12.15604797 50.32111038 12.21960449 52.1869812 C12.84752532 71.84570241 12.8952892 91.52084718 13.0625 111.1875 C13.25872436 134.06073521 13.45830185 156.93301317 13.95870972 179.8020134 C13.99846005 181.61891327 14.03697512 183.43584069 14.07409668 185.25279617 C14.83878286 222.02422001 22.46483082 254.95452642 34.02734375 289.71484375 C34.45612572 291.00482269 34.45612572 291.00482269 34.89356995 292.32086182 C36.37002636 296.70636569 37.92060356 301.04699714 39.59814453 305.35986328 C39.92754532 306.21431534 40.25694611 307.0687674 40.59632874 307.94911194 C41.22322279 309.55970952 41.86379958 311.16507777 42.52073669 312.76365662 C45.58385733 320.63006301 43.61337545 326.50163476 40.5625 334.0625 C34.96009807 333.60649901 29.5313589 332.93786516 24.046875 331.70410156 C-37.10065484 317.95110697 -97.10632525 330.7915724 -150.02636719 363.40576172 C-161.44849088 370.65703061 -171.80692062 379.22632655 -181.66015625 388.46875 C-184.11068869 390.75729225 -186.60433517 392.97713624 -189.125 395.1875 C-194.70821528 400.18253215 -199.94806391 405.51929921 -205.19799805 410.85986328 C-205.88804932 411.55837402 -206.57810059 412.25688477 -207.2890625 412.9765625 C-207.89572754 413.5948291 -208.50239258 414.2130957 -209.12744141 414.85009766 C-211.1065983 416.74558696 -213.12774579 418.52956443 -215.20507812 420.31469727 C-219.47893295 424.03074334 -223.39166419 428.02381866 -227.3046875 432.11328125 C-228.78147442 433.63190809 -230.25937276 435.14945479 -231.73828125 436.66601562 C-234.03479707 439.02426046 -236.32450295 441.3875868 -238.59619141 443.76977539 C-240.81371856 446.09070436 -243.05632752 448.38475869 -245.3046875 450.67578125 C-245.97168671 451.38720779 -246.63868591 452.09863434 -247.32589722 452.83161926 C-252.26810694 457.80278086 -256.47555749 459.41151128 -263.4375 460.0625 C-263.67919922 461.18785156 -263.67919922 461.18785156 -263.92578125 462.3359375 C-266.40262994 471.65640128 -270.98994916 476.26367815 -278.4375 482.0625 C-279.5278659 482.93163701 -280.61769997 483.8014416 -281.70703125 484.671875 C-284.03050454 486.51701578 -286.37014443 488.3393352 -288.71875 490.15234375 C-291.25757876 492.12154629 -293.75056719 494.13437607 -296.21875 496.19140625 C-304.13699484 502.77964119 -312.19533301 508.84006487 -320.87963867 514.39794922 C-326.89259313 518.34393046 -333.09198389 523.02595166 -335.4375 530.0625 C-335.53030512 531.65964283 -335.56646081 533.26037908 -335.56880188 534.86021423 C-335.57281006 535.84828064 -335.57681824 536.83634705 -335.58094788 537.85435486 C-335.58041916 538.93745438 -335.57989044 540.02055389 -335.5793457 541.13647461 C-335.58455734 542.8492308 -335.58455734 542.8492308 -335.58987427 544.59658813 C-335.59723585 547.08146107 -335.60257908 549.5663406 -335.60616493 552.05122185 C-335.61332843 555.99079083 -335.62899643 559.93023512 -335.64750671 563.86976624 C-335.6538444 565.22068304 -335.66017002 566.5715999 -335.66648388 567.92251682 C-335.66964969 568.59917334 -335.6728155 569.27582985 -335.67607725 569.97299111 C-335.71806227 579.14188989 -335.75108027 588.31074791 -335.76342773 597.47973633 C-335.77274783 604.33034874 -335.80294974 611.18064041 -335.84474754 618.03112984 C-335.85702245 620.636436 -335.86218526 623.24178617 -335.85994911 625.84712029 C-335.85758229 629.5064059 -335.87987105 633.16480877 -335.9074707 636.82397461 C-335.89756859 638.42129677 -335.89756859 638.42129677 -335.88746643 640.05088806 C-336.03198238 651.79800386 -339.35954323 661.47687127 -347.4375 670.0625 C-348.71560547 671.43728516 -348.71560547 671.43728516 -350.01953125 672.83984375 C-356.90553891 679.70658985 -356.90553891 679.70658985 -361.14453125 680.69140625 C-363.625 680.6875 -363.625 680.6875 -367.4375 680.0625 C-367.210625 681.361875 -366.98375 682.66125 -366.75 684 C-366.73870499 687.57487083 -367.21345621 688.80029491 -369.5703125 691.55859375 C-378.38633658 699.03625206 -386.07190808 701.59576849 -397.5 701.25 C-398.36560547 701.23646484 -399.23121094 701.22292969 -400.12304688 701.20898438 C-402.22814174 701.1740933 -404.33290974 701.12030665 -406.4375 701.0625 C-404.82254884 658.35129163 -404.82254884 658.35129163 -396.96484375 640.36328125 C-394.4443864 634.38723094 -392.96137272 628.55642532 -391.8125 622.1875 C-391.6072168 621.07745605 -391.40193359 619.96741211 -391.19042969 618.82373047 C-384.03475776 578.30685108 -385.28942211 537.02870134 -385.4375 496.0625 C-384.83651489 495.74120621 -384.23552979 495.41991241 -383.61633301 495.08888245 C-372.45521213 489.10596374 -361.39739923 483.15912477 -350.9375 476 C-349.43546021 474.98450073 -349.43546021 474.98450073 -347.90307617 473.94848633 C-340.13341049 468.64775691 -332.65237812 463.09335177 -325.4375 457.0625 C-324.88562012 456.60536621 -324.33374023 456.14823242 -323.76513672 455.67724609 C-306.01723521 440.9558823 -289.29162992 425.09696558 -273.01855469 408.77392578 C-270.91456263 406.66450343 -268.80517965 404.56057561 -266.6953125 402.45703125 C-265.32780378 401.08886265 -263.9606048 399.72038439 -262.59375 398.3515625 C-261.97697388 397.73681061 -261.36019775 397.12205872 -260.72473145 396.48867798 C-257.02223732 392.76646024 -253.53126504 388.91545018 -250.09747314 384.94485474 C-247.75353835 382.28691007 -245.28001219 379.81072532 -242.7578125 377.3203125 C-242.01046341 376.57864334 -242.01046341 376.57864334 -241.24801636 375.82199097 C-239.68865024 374.27463907 -238.12601475 372.73065901 -236.5625 371.1875 C-234.47889745 369.13048047 -232.39863977 367.07016016 -230.3203125 365.0078125 C-229.40652832 364.10562988 -228.49274414 363.20344727 -227.55126953 362.27392578 C-225.40800834 360.24912739 -225.40800834 360.24912739 -224.4375 358.0625 C-225.21609375 357.85109375 -225.9946875 357.6396875 -226.796875 357.421875 C-230.76468383 355.94033265 -234.20519558 354.0250399 -237.87158203 351.92382812 C-254.76186029 342.25885184 -271.30829414 337.2132854 -290.4375 334.0625 C-291.12086426 333.94390625 -291.80422852 333.8253125 -292.50830078 333.703125 C-329.68000592 327.49398111 -371.28312858 332.29456144 -406.859375 343.67578125 C-407.92518547 344.01631279 -407.92518547 344.01631279 -409.01252747 344.36372375 C-412.46858044 345.47664996 -415.91076305 346.61946555 -419.34057617 347.81079102 C-427.43824695 350.55696879 -434.85176209 351.9889497 -443.4375 351.0625 C-446.90585447 347.59414553 -445.62954988 337.14201296 -445.6875 332.3125 C-445.6796467 317.033113 -442.02206745 304.2908211 -431.125 293.1875 C-385.31989979 248.64050357 -319.02716536 232.37969152 -257.4375 226.0625 C-256.2103125 225.92972656 -254.983125 225.79695312 -253.71875 225.66015625 C-220.85462223 222.69099619 -187.22675282 226.55198937 -154.77709961 231.74291992 C-152.33565458 232.13016964 -152.33565458 232.13016964 -149.4375 232.0625 C-149.911875 230.845625 -150.38625 229.62875 -150.875 228.375 C-154.33200453 217.94893173 -153.60444875 206.29053001 -153.640625 195.42578125 C-153.64345238 194.7540859 -153.64627975 194.08239056 -153.64919281 193.39034081 C-153.66403947 189.83582567 -153.67336037 186.28134961 -153.67773438 182.72680664 C-153.68211591 179.8344255 -153.69601531 176.94234318 -153.71875 174.05004883 C-153.86799089 154.64847519 -153.78320801 135.96719287 -147.25 117.4375 C-146.94884277 116.56343506 -146.64768555 115.68937012 -146.33740234 114.78881836 C-135.86117921 85.30527204 -115.57624377 59.5895285 -91.08935547 40.36376953 C-89.92472976 39.44632126 -88.76536739 38.52217218 -87.60986328 37.59326172 C-62.7984834 17.66586495 -32.84874886 -0.39069875 0 0 Z " fill="#CB3A3A" transform="translate(847.4375,290.9375)"/>
<path d="M0 0 C24.7245029 1.85502989 46.49587973 8.69590336 68 21 C68 23.97 68 26.94 68 30 C69.423125 30.309375 70.84625 30.61875 72.3125 30.9375 C74.95517072 31.51199363 77.42906918 32.14302306 80 33 C80 35.97 80 38.94 80 42 C82.08441406 41.81630859 82.08441406 41.81630859 84.2109375 41.62890625 C88.00755751 41.64745168 88.65411538 41.67273994 91.5390625 44.40234375 C92.26821328 45.56009623 92.96115073 46.74110717 93.625 47.9375 C94.21933838 48.91505249 94.21933838 48.91505249 94.82568359 49.91235352 C95.72735705 51.4044689 96.61388882 52.90579819 97.48828125 54.4140625 C99.17778772 57.30412266 100.92879372 60.15154321 102.6875 63 C136.80544728 118.54757772 145.25164944 176.81782282 145.1875 241.25 C145.18689575 242.38207886 145.1862915 243.51415771 145.18566895 244.68054199 C145.08715052 313.07876366 134.19611654 379.0745568 108.1875 442.5625 C107.55074341 444.11771362 107.55074341 444.11771362 106.90112305 445.7043457 C101.33294127 458.97569608 95.09713788 471.96582063 89 485 C87.79447227 484.98120789 87.79447227 484.98120789 86.56459045 484.96203613 C78.81949766 484.84176532 71.07437164 484.724035 63.3292017 484.60884857 C59.35168939 484.54961355 55.37419409 484.48954614 51.39672852 484.42724609 C35.32598435 484.17620303 19.25571553 483.95364642 3.18278313 483.92904663 C1.15363575 483.92591005 -0.87550685 483.9200447 -2.90464783 483.9140625 C-64.03397543 483.93373017 -125.67056418 499.81825223 -170.44921875 543.3828125 C-193.66381483 567.97277962 -207.33938759 600.06482818 -217.2890625 631.88549805 C-218.09784189 634.29100569 -219.05747287 636.64368217 -220 639 C-224.29 639 -228.58 639 -233 639 C-254.66067302 599.28876613 -257.62887117 552.74175662 -260.81964111 508.48986816 C-261.3642673 500.97126212 -261.93029725 493.4542415 -262.5 485.9375 C-262.59145294 484.72477417 -262.59145294 484.72477417 -262.68475342 483.48754883 C-263.8361371 468.29218851 -265.31154003 453.14546784 -267 438 C-264.72895446 438.12172035 -262.45821594 438.24734476 -260.1875 438.375 C-259.03544067 438.43772095 -259.03544067 438.43772095 -257.86010742 438.50170898 C-253.48104876 438.75259032 -249.12207731 439.07144286 -244.7578125 439.51171875 C-210.81519317 442.76843014 -174.70843576 443.61624621 -141 438 C-139.92621094 437.82839355 -138.85242188 437.65678711 -137.74609375 437.47998047 C-77.22028031 427.57816976 -18.87510892 399.07835018 17.79101562 348.68457031 C38.90355202 319.26686007 53.31012697 287.43190292 61.3125 252.125 C61.55516602 251.05668945 61.79783203 249.98837891 62.04785156 248.88769531 C65.51430495 232.85963855 66.37607539 217.34057395 66.3125 201 C66.31034485 200.00355469 66.3081897 199.00710938 66.30596924 197.98046875 C66.25439697 183.11811535 65.75329527 168.63971374 63 154 C62.70198486 152.33372559 62.70198486 152.33372559 62.39794922 150.63378906 C53.35796806 100.78184803 33.66777175 55.21682841 3.21411133 14.77319336 C0.74280783 11.16388764 -0.25480138 8.66324677 -0.125 4.25 C-0.10695313 3.45078125 -0.08890625 2.6515625 -0.0703125 1.828125 C-0.03550781 0.92320312 -0.03550781 0.92320312 0 0 Z " fill="#CB3A3A" transform="translate(1016,749)"/>
<path d="M0 0 C3.81962759 0.00315632 7.63847554 -0.02036426 11.45800781 -0.0456543 C54.80897595 -0.15856482 91.94781677 11.19112726 126.09082031 38.31567383 C126.71794922 38.81292969 127.34507812 39.31018555 127.99121094 39.82250977 C148.23045393 56.07861618 165.5077076 75.20330787 179.09082031 97.31567383 C179.79086182 98.33733643 180.49090332 99.35899902 181.2121582 100.41162109 C183.77346703 104.91813519 183.54098116 109.19141399 183.34082031 114.25317383 C183.32277344 115.12780273 183.30472656 116.00243164 183.28613281 116.90356445 C183.23940384 119.04141491 183.16767472 121.17869428 183.09082031 123.31567383 C182.06988281 123.38560547 181.04894531 123.45553711 179.99707031 123.52758789 C92.12101018 129.5729668 3.75088191 136.72107018 -162.90917969 196.31567383 C-163.80604492 196.76088379 -164.70291016 197.20609375 -165.62695312 197.66479492 C-191.37438885 210.48157043 -215.10042015 226.38111853 -237.40136719 244.48754883 C-240.67132003 247.13866803 -243.99778193 249.70241633 -247.34667969 252.25317383 C-257.99880784 260.39542215 -268.46675098 268.76236026 -278.28417969 277.90161133 C-280.36013575 279.81074949 -282.46306812 281.65716555 -284.60058594 283.49536133 C-289.55196971 287.81519697 -294.20392151 292.41852201 -298.84667969 297.06567383 C-299.73476318 297.95456299 -300.62284668 298.84345215 -301.5378418 299.75927734 C-307.90708409 306.18849035 -313.79812351 312.72565961 -319.16601562 320.0246582 C-327.15975312 330.82452466 -327.15975312 330.82452466 -331.83105469 332.13598633 C-334.33027629 332.12892638 -336.49142948 331.92928939 -338.90917969 331.31567383 C-339.54867754 329.88456456 -340.16969296 328.44519925 -340.78417969 327.00317383 C-341.13222656 326.20266602 -341.48027344 325.4021582 -341.83886719 324.57739258 C-353.97212795 287.60194465 -339.29399681 245.61173949 -322.60473633 212.61132812 C-310.68109689 189.51880772 -296.13523331 168.08765173 -279.45898438 148.17407227 C-278.0336763 146.46495994 -276.62946287 144.74085316 -275.22949219 143.01098633 C-269.09079544 135.52424976 -262.44486536 128.48192976 -255.70330811 121.53860474 C-254.68083277 120.48050301 -253.66511084 119.41582978 -252.65655518 118.3444519 C-244.53643917 109.7464943 -244.53643917 109.7464943 -240.42675781 108.65844727 C-238.20605469 108.65161133 -238.20605469 108.65161133 -234.90917969 109.31567383 C-235.03550781 108.12586914 -235.16183594 106.93606445 -235.29199219 105.71020508 C-235.28128102 102.23137002 -234.75961775 100.58499693 -232.33886719 98.07739258 C-231.17530427 97.02849283 -229.98873517 96.00473033 -228.78417969 95.00317383 C-228.15036377 94.44831299 -227.51654785 93.89345215 -226.86352539 93.32177734 C-224.9019128 91.62316884 -222.91259754 89.96466767 -220.90917969 88.31567383 C-220.3273291 87.83163086 -219.74547852 87.34758789 -219.14599609 86.84887695 C-195.16734223 67.04374494 -168.41211476 51.61955074 -140.90917969 37.31567383 C-139.86826172 36.76991699 -138.82734375 36.22416016 -137.75488281 35.66186523 C-107.35414718 19.77772683 -75.87383708 7.72491647 -41.90917969 2.31567383 C-40.74451172 2.12803467 -39.57984375 1.94039551 -38.37988281 1.74707031 C-25.62006706 -0.03331382 -12.86545476 -0.02218182 0 0 Z " fill="#CB3A3A" transform="translate(1337.9091796875,289.684326171875)"/>
<path d="M0 0 C1.79230618 0.01510781 3.584625 0.0287852 5.37695312 0.04101562 C9.68912551 0.07346132 14.00066452 0.12488864 18.3125 0.1875 C17.30153289 14.80994202 12.46980847 27.09852379 6.62670898 40.38354492 C-7.5940399 73.02941203 -6.91010349 105.45211172 3.3125 139.1875 C3.64636719 140.33476563 3.98023438 141.48203125 4.32421875 142.6640625 C15.2116609 175.28591519 49.15659027 201.60954513 78.77734375 216.41992188 C81.31799919 217.64327292 83.87124934 218.83134692 86.4375 220 C87.19949707 220.34877197 87.96149414 220.69754395 88.74658203 221.05688477 C91.24754332 222.16021913 93.77157485 223.17959294 96.3125 224.1875 C97.90203491 224.85821533 97.90203491 224.85821533 99.52368164 225.54248047 C109.62782284 229.4227021 118.95611389 229.89974506 129.71704102 229.72949219 C132.47941536 229.6878106 135.23931778 229.68843477 138.00195312 229.6953125 C169.87414067 229.58118325 199.51874865 221.64383286 225.75 203.125 C226.31734863 202.72563232 226.88469727 202.32626465 227.46923828 201.91479492 C230.41303878 199.77634097 232.97401614 197.55996963 235.4765625 194.9140625 C238.3125 192.1875 238.3125 192.1875 242.25 191.625 C243.94313484 191.751913 245.63125571 191.95037105 247.3125 192.1875 C248.54613281 192.35765625 249.77976562 192.5278125 251.05078125 192.703125 C259.87844647 194.14228954 264.20918531 195.87734071 269.5625 203.3125 C273.76875169 210.22277064 273.38402941 219.42204224 271.93017578 227.24462891 C268.84816257 239.81591755 263.11826493 251.90108142 257.125 263.3125 C251.7008924 274.01607234 249.67670215 285.37638143 248.3125 297.1875 C224.92171345 297.63823524 202.83681189 291.01153275 181.0012207 283.31005859 C171.06498929 279.87244365 161.54367004 277.63215435 151 278.4375 C149.70449219 278.52515625 148.40898438 278.6128125 147.07421875 278.703125 C143.26543072 279.19356084 139.96291974 280.03523297 136.3125 281.1875 C147.22028292 306.59936485 160.50713495 328.01150522 178.3125 349.1875 C178.83376465 349.80786133 179.3550293 350.42822266 179.89208984 351.06738281 C182.8635167 354.59135158 185.86501243 358.08708146 188.89697266 361.55908203 C190.30102 363.17429345 191.68777423 364.80326983 193.07421875 366.43359375 C193.93660156 367.42488281 194.79898437 368.41617187 195.6875 369.4375 C196.81285156 370.74460937 196.81285156 370.74460937 197.9609375 372.078125 C203.12748407 376.71256877 209.12114715 376.62065677 215.7421875 376.5 C229.49261274 375.29646169 241.05260369 369.13364418 251.6328125 360.60546875 C254.45925376 359.10984458 255.71325436 359.07674555 258.82421875 359.0078125 C262.20497485 358.73363571 262.20497485 358.73363571 264.74804688 356.65844727 C265.99405958 354.44613355 267.00945394 352.21292767 268 349.875 C272.88871049 339.55241732 278.91107612 330.45924352 285.73486328 321.31787109 C287.10212136 319.47158605 288.41256886 317.59914345 289.71484375 315.70703125 C292.88599183 311.52017094 294.66659218 309.45098578 299.97265625 308.6015625 C303.48594343 308.56639446 306.8302567 308.7416936 310.3125 309.1875 C328.77928355 341.44666252 331.801398 380.00961115 335.25875854 416.25904846 C336.11526206 425.22915649 337.01768371 434.19401831 337.93437767 443.15812492 C338.42415839 447.95085313 338.9110139 452.74387936 339.39806843 457.53688526 C339.51839074 458.72094471 339.51839074 458.72094471 339.6411438 459.92892456 C339.76103605 461.10876986 339.76103605 461.10876986 339.88335037 462.31245041 C340.12401039 464.67777366 340.36552106 467.04300891 340.60714722 469.40823364 C340.99007603 473.16060896 341.36873082 476.91339435 341.74437332 480.66650581 C341.8842545 482.05753276 342.02551968 483.44842134 342.16828537 484.8391552 C342.86639562 491.64697635 343.49961964 498.34118611 343.3125 505.1875 C337.59725048 504.62366372 332.49217594 503.53780229 327.0625 501.6875 C326.28874023 501.42469238 325.51498047 501.16188477 324.71777344 500.89111328 C278.86139091 484.85516388 235.63144653 454.58103556 197.3125 425.1875 C196.16202528 424.31825953 195.01100592 423.44973932 193.859375 422.58203125 C185.79585788 416.47592302 177.9625537 410.0866302 170.13720703 403.68017578 C168.53026304 402.36563798 166.91970809 401.05551698 165.30859375 399.74609375 C159.86791804 395.31911017 154.49460978 390.81954015 149.15209961 386.27514648 C145.70071312 383.34441459 142.2101381 380.47020769 138.6875 377.625 C134.01189345 373.82053994 129.54045096 369.83198347 125.11328125 365.7421875 C122.91287102 363.73511876 120.69197588 361.76680614 118.4453125 359.8125 C114.51783149 356.38570245 110.67767992 352.87693504 106.875 349.3125 C106.19397217 348.67610596 105.51294434 348.03971191 104.8112793 347.3840332 C100.37090905 343.20614291 96.05424805 338.92648991 91.78442383 334.57495117 C85.34809592 328.01782841 78.97225989 322.15324007 71.56640625 316.703125 C54.09731939 303.55423424 36.12139753 284.9864571 28.4375 264.25 C27.38981035 261.77640907 26.82011783 260.50768971 24.53515625 259.06640625 C22.4764756 258.30378559 20.4441693 257.71036228 18.3125 257.1875 C11.15377993 255.10496325 8.15586728 250.77921177 3.69775391 244.96240234 C1.02341842 241.53582163 -1.78436409 238.21746822 -4.5625 234.875 C-9.41109737 229.0061932 -14.17011658 223.07715069 -18.85498047 217.07714844 C-24.31066095 210.09468417 -29.92183367 203.24827112 -35.671875 196.50634766 C-41.40613591 189.77946363 -46.91085186 182.90184606 -52.33447266 175.92285156 C-53.63657413 174.25281597 -54.94710394 172.589884 -56.26171875 170.9296875 C-76.41773476 145.46326351 -95.57061392 119.27042875 -113.65234375 92.2890625 C-119.83170763 83.08259546 -125.96707534 74.17058039 -133.41796875 65.94140625 C-139.01826979 59.14586023 -140.83099548 53.685012 -140.75 44.9375 C-140.74097656 43.67421875 -140.73195313 42.4109375 -140.72265625 41.109375 C-140.71105469 40.14515625 -140.69945312 39.1809375 -140.6875 38.1875 C-136.58869149 36.7901964 -132.47644606 35.53536486 -128.3046875 34.375 C-104.95971222 27.80004413 -82.13966432 20.21895456 -59.84985352 10.58618164 C-40.02765315 2.05949192 -21.42220323 -0.32087897 0 0 Z " fill="#CB3A3A" transform="translate(431.6875,1148.8125)"/>
<path d="M0 0 C2.42703082 2.41003481 4.814081 4.84705081 7.1640625 7.33203125 C5.75771784 10.51249312 4.08557907 12.66739487 1.63671875 15.125 C0.93281006 15.83301758 0.22890137 16.54103516 -0.49633789 17.27050781 C-1.24778076 18.01268555 -1.99922363 18.75486328 -2.7734375 19.51953125 C-3.9325061 20.66953613 -3.9325061 20.66953613 -5.11499023 21.84277344 C-10.77183934 27.40216195 -16.57837478 32.45744965 -22.8359375 37.33203125 C-24.77435754 38.90486978 -26.70458499 40.48748383 -28.63525391 42.06982422 C-34.19707115 46.62420808 -39.79823056 51.10972579 -45.5234375 55.45703125 C-51.08131759 59.69585946 -56.41766987 64.1473846 -61.73046875 68.6875 C-65.37565554 71.8015406 -69.08080622 74.83908947 -72.80078125 77.86328125 C-75.17406854 79.79367709 -77.53994082 81.73213567 -79.90234375 83.67578125 C-81.3384632 84.85296032 -82.77466092 86.0300439 -84.2109375 87.20703125 C-84.88938721 87.76696777 -85.56783691 88.3269043 -86.2668457 88.90380859 C-93.09472164 94.48370572 -96.90148953 96.73208116 -105.8359375 96.33203125 C-105.8359375 99.30203125 -105.8359375 102.27203125 -105.8359375 105.33203125 C-108.4759375 105.33203125 -111.1159375 105.33203125 -113.8359375 105.33203125 C-114.04089844 106.11449219 -114.24585938 106.89695312 -114.45703125 107.703125 C-114.86115234 109.22099609 -114.86115234 109.22099609 -115.2734375 110.76953125 C-115.54027344 111.77886719 -115.80710937 112.78820312 -116.08203125 113.828125 C-116.8359375 116.33203125 -116.8359375 116.33203125 -117.8359375 117.33203125 C-119.35521788 117.40383089 -120.87761232 117.41595132 -122.3984375 117.39453125 C-123.22472656 117.38550781 -124.05101562 117.37648438 -124.90234375 117.3671875 C-125.54042969 117.35558594 -126.17851563 117.34398437 -126.8359375 117.33203125 C-126.990625 118.39357422 -126.990625 118.39357422 -127.1484375 119.4765625 C-129.73126653 130.20410805 -138.26740815 138.7635019 -145.8359375 146.33203125 C-148.21875 146.52734375 -148.21875 146.52734375 -150.9609375 146.45703125 C-151.87101562 146.43898438 -152.78109375 146.4209375 -153.71875 146.40234375 C-154.41742187 146.37914062 -155.11609375 146.3559375 -155.8359375 146.33203125 C-155.93132812 147.02425781 -156.02671875 147.71648437 -156.125 148.4296875 C-158.79665016 159.33647908 -167.38381484 168.92428151 -174.32666016 177.46630859 C-219.1124828 232.82917768 -243.95914295 299.4456519 -258.37219238 368.56582642 C-258.8359375 370.33203125 -258.8359375 370.33203125 -259.8359375 371.33203125 C-264.767485 372.4433659 -268.92235568 372.58461273 -273.8359375 371.33203125 C-278.13380253 368.06527741 -280.7958097 363.13005375 -283.50927734 358.55566406 C-284.8099889 356.37552404 -286.17749037 354.25633705 -287.57421875 352.13671875 C-312.77793313 313.30383398 -324.84503326 266.61802529 -325.0390625 220.5234375 C-325.04761261 218.89232277 -325.04761261 218.89232277 -325.05633545 217.22825623 C-325.06571484 214.94002228 -325.07229102 212.65177526 -325.07617188 210.36352539 C-325.08582595 206.93415587 -325.11689757 203.50540012 -325.1484375 200.07617188 C-325.23393266 182.46671064 -324.06074137 165.19045414 -319.0859375 148.20703125 C-318.82772217 147.29928955 -318.56950684 146.39154785 -318.3034668 145.45629883 C-306.50914609 104.94444971 -287.07797432 67.83864157 -257.8359375 37.33203125 C-257.33336426 36.80222656 -256.83079102 36.27242188 -256.31298828 35.7265625 C-223.98417775 1.79591935 -180.71326057 -21.84702745 -133.4296875 -23.01953125 C-132.55922287 -23.04322784 -131.68875824 -23.06692444 -130.79191589 -23.09133911 C-127.97336695 -23.16476558 -125.1547458 -23.23031729 -122.3359375 -23.29296875 C-120.88146713 -23.32565857 -120.88146713 -23.32565857 -119.39761353 -23.35900879 C-26.94038653 -25.3447438 -26.94038653 -25.3447438 0 0 Z " fill="#CB3A3A" transform="translate(1209.8359375,249.66796875)"/>
<path d="M0 0 C1.77462364 -0.00422974 1.77462364 -0.00422974 3.58509827 -0.00854492 C4.86941238 -0.00652069 6.1537265 -0.00449646 7.47695923 -0.00241089 C8.85400946 -0.00376711 10.23105933 -0.00554829 11.60810852 -0.00772095 C15.33751936 -0.01226981 19.06690245 -0.01051597 22.79631376 -0.00734186 C26.7070037 -0.00480408 30.61769131 -0.00715984 34.52838135 -0.00872803 C41.0970197 -0.01054601 47.6656468 -0.00815358 54.23428345 -0.00338745 C61.81528355 0.00204992 69.39625673 0.00029483 76.97725618 -0.00521386 C83.49719579 -0.00976096 90.01712732 -0.01038758 96.53706801 -0.00777519 C100.4261587 -0.00622062 104.31523676 -0.00599602 108.20432663 -0.00931168 C111.86346245 -0.01221345 115.52256381 -0.0101725 119.18169594 -0.00441742 C121.15534544 -0.00247744 123.12899788 -0.00542438 125.10264587 -0.00854492 C131.1575365 0.00581817 136.99426171 0.18941909 142.97940063 1.12698364 C136.09531396 23.73194131 113.23176165 35.19513667 93.75650024 45.66824341 C83.41357142 51.12698364 83.41357142 51.12698364 80.97940063 51.12698364 C81.06931274 51.71431274 81.15922485 52.30164185 81.25186157 52.9067688 C81.48064251 55.48081798 81.49841568 57.5901652 80.97940063 60.12698364 C78.80164853 62.60998552 76.12176956 63.96227549 73.22940063 65.50198364 C71.65761469 66.4251766 70.09122118 67.35760809 68.53018188 68.29885864 C67.75497192 68.76485474 66.97976196 69.23085083 66.18106079 69.71096802 C60.84331858 73.1439803 56.41760472 77.62760983 51.97940063 82.12698364 C51.31295532 82.79471802 50.64651001 83.46245239 49.95986938 84.15042114 C43.759874 90.7550478 38.63441189 98.29551516 33.30361938 105.59963989 C29.67247975 110.56520559 25.91617137 115.39975894 21.97940063 120.12698364 C21.5662561 120.62359497 21.15311157 121.1202063 20.72744751 121.63186646 C18.40812142 124.41338919 16.07150423 127.17761031 13.70596313 129.91995239 C11.94211944 131.96870567 10.28142375 134.0324985 8.62783813 136.17776489 C7.89822876 137.08913208 7.16861938 138.00049927 6.41690063 138.93948364 C5.79686157 139.75030396 5.17682251 140.56112427 4.53799438 141.39651489 C1.55137234 143.41647454 0.34869802 143.31399997 -3.18051147 143.23513794 C-4.53806801 143.21171577 -4.53806801 143.21171577 -5.92304993 143.18782043 C-6.61524124 143.16774429 -7.30743256 143.14766815 -8.02059937 143.12698364 C-20.95684488 42.15295527 -20.95684488 42.15295527 -20.02059937 4.12698364 C-13.2473063 1.4410226 -7.35022445 0.00270664 0 0 Z " fill="#CB3A3A" transform="translate(628.0205993652344,802.8730163574219)"/>
</svg>
