<svg version="1.1" xmlns="http://www.w3.org/2000/svg" width="512px" height="512px">
<path d="M0 0 C0.97485352 0.19867676 1.94970703 0.39735352 2.95410156 0.60205078 C50.99902273 10.65218706 95.19347595 32.24879574 130.49975586 66.59692383 C132.56359956 68.52709628 134.79256034 70.23782168 137 72 C138.09809154 73.15466769 139.1624861 74.34249631 140.1875 75.5625 C142.1512211 77.87251171 144.12644722 80.13313755 146.21484375 82.33203125 C181.55068829 119.61506982 202.51918418 170.50640493 209 221 C209.08732895 221.66720566 209.1746579 222.33441132 209.26463318 223.02183533 C209.96087491 228.73820476 210.17456164 234.37742632 210.203125 240.1328125 C210.21018463 241.07916061 210.21724426 242.02550873 210.22451782 243.00053406 C210.45241099 282.51652112 210.45241099 282.51652112 207 299 C206.70198486 300.46228027 206.70198486 300.46228027 206.39794922 301.95410156 C196.54575995 349.05273222 175.55979251 392.15735483 142.5078125 427.28125 C140.73384026 429.20443486 139.05799361 431.11953578 137.40625 433.140625 C135.47539876 435.4350781 133.66006007 437.33739466 131.375 439.25 C129.08617944 441.19125892 126.84865787 443.14372424 124.671875 445.2109375 C87.3889707 480.54964127 36.49508992 501.51859146 -14 508 C-14.66679779 508.08732895 -15.33359558 508.1746579 -16.02059937 508.26463318 C-21.74885288 508.96264085 -27.40054289 509.17560719 -33.16796875 509.203125 C-34.12407547 509.20882507 -35.08018219 509.21452515 -36.06526184 509.22039795 C-38.08475661 509.2297971 -40.10426637 509.23636156 -42.1237793 509.24023438 C-45.13424501 509.24983025 -48.14399402 509.28085684 -51.15429688 509.3125 C-64.67052518 509.38636788 -77.67406149 508.23780336 -91 506 C-92.13638916 505.81179688 -93.27277832 505.62359375 -94.44360352 505.4296875 C-97.04007888 504.96384593 -99.61208535 504.44508879 -102.1875 503.875 C-103.57642456 503.56804199 -103.57642456 503.56804199 -104.9934082 503.25488281 C-148.19287364 493.20999509 -188.01939095 471.86658436 -220.28125 441.5078125 C-222.20320503 439.73497467 -224.11677239 438.06056591 -226.13671875 436.41015625 C-228.45197173 434.46130074 -230.37801185 432.61689028 -232.3125 430.3125 C-234.86957821 427.30318744 -237.49656708 424.39008138 -240.1875 421.5 C-269.59342707 388.75475579 -288.61135664 347.61000253 -297.75 304.8125 C-297.94883789 303.88767822 -298.14767578 302.96285645 -298.35253906 302.01000977 C-301.64441382 285.8033142 -302.37530274 269.86962039 -302.3125 253.375 C-302.31034485 252.35676147 -302.3081897 251.33852295 -302.30596924 250.28942871 C-302.25627396 235.66752576 -301.95061242 221.36866068 -299 207 C-298.80132324 205.98744141 -298.60264648 204.97488281 -298.39794922 203.93164062 C-288.82160799 156.04276119 -266.52743333 111.57651097 -232.40307617 76.50024414 C-230.47290372 74.43640044 -228.76217832 72.20743966 -227 70 C-225.84533231 68.90190846 -224.65750369 67.8375139 -223.4375 66.8125 C-220.1827826 64.04240045 -217.05312287 61.17553278 -213.9375 58.25 C-180.49974776 27.81425591 -136.07440676 8.23304644 -92 0 C-91.19498047 -0.16226074 -90.38996094 -0.32452148 -89.56054688 -0.49169922 C-61.56934616 -5.96455505 -27.91127604 -5.8459259 0 0 Z M-203 99 C-203.57878906 99.57476074 -204.15757812 100.14952148 -204.75390625 100.74169922 C-217.48802891 113.53860613 -228.0845192 128.32227827 -237 144 C-237.58128662 145.0211792 -237.58128662 145.0211792 -238.17431641 146.06298828 C-266.525454 196.40478586 -273.49339738 256.35883506 -258 312 C-249.70688815 341.04780515 -236.255982 367.67575155 -217 391 C-216.29641357 391.85585693 -216.29641357 391.85585693 -215.57861328 392.72900391 C-205.70908776 404.66159543 -195.2211202 415.42623418 -183 425 C-181.99195313 425.81339844 -180.98390625 426.62679688 -179.9453125 427.46484375 C-172.05817998 433.76748594 -163.80041435 439.06637149 -155 444 C-154.28070313 444.40750488 -153.56140625 444.81500977 -152.8203125 445.23486328 C-103.99234403 472.67947618 -44.24165246 480.93084012 10 466 C48.80342681 454.82941019 80.70640568 435.565483 110 408 C110.65871094 407.38382812 111.31742187 406.76765625 111.99609375 406.1328125 C117.14450453 401.16275313 121.57455278 395.61203425 126 390 C127.10021484 388.6078125 127.10021484 388.6078125 128.22265625 387.1875 C163.65846412 341.18969649 179.41463289 283.2523094 172.40820312 225.67773438 C164.68391766 167.76275849 134.89698311 114.93783521 88.75 78.9375 C53.49930088 52.20313912 9.59464179 34.22596953 -35 33 C-35.74266113 32.97421875 -36.48532227 32.9484375 -37.25048828 32.921875 C-99.78712747 30.97027323 -158.82150244 55.01749264 -203 99 Z " fill="#3b82f6" transform="translate(302,3)"/>
<path d="M0 0 C3.6525189 2.89811316 5.39724812 5.1800456 6.91015625 9.640625 C7.16742516 12.31342125 7.16742516 12.31342125 7.17758179 15.24398804 C7.18611176 16.35982773 7.19464172 17.47566742 7.20343018 18.62532043 C7.2025238 19.83999496 7.20161743 21.05466949 7.20068359 22.30615234 C7.20740082 23.59286331 7.21411804 24.87957428 7.22103882 26.20527649 C7.23867577 29.72808444 7.2433932 33.25079518 7.24467039 36.77364302 C7.24609381 38.97665506 7.25036701 41.17964254 7.25566483 43.38264847 C7.27415718 51.07412531 7.2823364 58.76553291 7.28076172 66.45703125 C7.27956039 73.61723152 7.30066282 80.77713032 7.33224905 87.93725431 C7.35843245 94.09284197 7.36912816 100.24833128 7.3678509 106.40397418 C7.36734189 110.07685175 7.37299115 113.74946127 7.394207 117.42228317 C7.41723483 121.52050009 7.40805597 125.61804471 7.39599609 129.71630859 C7.40723511 130.92693466 7.41847412 132.13756073 7.43005371 133.38487244 C7.38035393 140.028982 6.92516287 144.25870523 2.91015625 149.640625 C1.015625 151.34765625 1.015625 151.34765625 -0.90234375 152.453125 C-1.52753906 152.83082031 -2.15273438 153.20851563 -2.796875 153.59765625 C-13.35378194 158.39952023 -25.7530054 158.08107408 -36.5625 154.296875 C-41.40984146 151.12025556 -45.44012113 147.55797176 -46.73993683 141.72161484 C-46.98583392 138.184131 -47.01288768 134.70548355 -46.96386719 131.15966797 C-46.97008779 129.80861781 -46.97931555 128.45757869 -46.99130249 127.10656738 C-47.01455984 123.45747504 -46.99415981 119.80984428 -46.96425915 116.16084814 C-46.93898839 112.33331049 -46.94967152 108.50584717 -46.95513916 104.67825317 C-46.95871752 98.25417531 -46.93424486 91.83067246 -46.89257812 85.40673828 C-46.84476457 77.98785924 -46.83955703 70.56988775 -46.85752845 63.15089691 C-46.87401952 56.00031101 -46.86215201 48.85004873 -46.83679962 41.69949722 C-46.82641782 38.66210075 -46.82558727 35.62492557 -46.83245087 32.5875206 C-46.83912252 29.01006875 -46.82080545 25.43357762 -46.78343582 21.85632324 C-46.76900348 19.92291447 -46.77896233 17.98937152 -46.78970337 16.05593872 C-46.65063484 6.57834004 -46.65063484 6.57834004 -43.69219971 2.90335083 C-41.30864455 0.83087039 -39.44647495 -0.51945277 -36.52734375 -1.671875 C-35.78355469 -1.97738281 -35.03976563 -2.28289062 -34.2734375 -2.59765625 C-23.94048421 -6.20217484 -9.36344456 -6.09061441 0 0 Z " fill="#3b82f6" transform="translate(276.08984375,217.359375)"/>
<path d="M0 0 C6.30741814 4.87342393 10.18615236 10.04728583 11.2734375 18 C11.61340281 24.69470144 9.48010488 30.39661203 5.4375 35.6875 C0.46346882 41.13524844 -6.89837195 44.44527752 -14.19140625 45.23828125 C-22.92843293 45.51176314 -30.54786301 43.30887089 -37.4375 37.8125 C-42.6200406 32.81086944 -45.1233787 27.24607415 -45.5625 20.0625 C-45.24635363 13.50501243 -42.79163475 7.82734863 -38.16796875 3.14453125 C-36.18453445 1.56013107 -34.20574751 0.25392401 -32 -1 C-31.40574219 -1.33902344 -30.81148437 -1.67804688 -30.19921875 -2.02734375 C-20.91869327 -6.33970784 -8.61444853 -5.31498038 0 0 Z " fill="#3b82f6" transform="translate(273,138)"/>
</svg>