<svg version="1.1" xmlns="http://www.w3.org/2000/svg" width="500px" height="500px">
<path d="M0 0 C0 0.66 0 1.32 0 2 C0.598125 2.268125 1.19625 2.53625 1.8125 2.8125 C3.99847854 3.99917406 5.41332594 5.09599113 7 7 C7 7.66 7 8.32 7 9 C7.66 9 8.32 9 9 9 C22.54352865 24.72686829 26.52583718 45.1037256 25.26171875 65.2734375 C23.48663573 83.76609341 14.64078319 99.46830712 3.9453125 114.265625 C1.9592127 116.961489 1.9592127 116.961489 0.3671875 119.859375 C-0.08398438 120.56578125 -0.53515625 121.2721875 -1 122 C-1.66 122 -2.32 122 -3 122 C-3.2371875 122.70382812 -3.474375 123.40765625 -3.71875 124.1328125 C-5.2293793 127.51330611 -7.17964703 129.98924456 -9.5 132.875 C-15.09913788 139.9797021 -20.1447703 147.37157987 -25 155 C-25.97066406 156.48886719 -25.97066406 156.48886719 -26.9609375 158.0078125 C-30.72863418 164.21655209 -32.66846796 169.73788625 -31 177 C-29.63444122 179.63301708 -28.136945 181.88719772 -26.3125 184.22265625 C-25 186 -25 186 -25 188 C-24.4225 188.268125 -23.845 188.53625 -23.25 188.8125 C-20.94449957 190.02929189 -18.97943808 191.30333879 -17 193 C-17 193.66 -17 194.32 -17 195 C-22.97141486 195.4976179 -27.05614976 194.45485597 -32 191 C-40.7422882 183.12838684 -44.19526781 173.00101323 -45.22290039 161.50683594 C-45.34266902 158.85485313 -45.37938987 156.21721869 -45.375 153.5625 C-45.37367065 152.0463208 -45.37367065 152.0463208 -45.37231445 150.49951172 C-45.15902066 135.93273655 -43.09118977 121.48350635 -41.25964355 107.05047607 C-33.79462064 57.65879179 -33.79462064 57.65879179 -50 12 C-52.39583651 9.18668622 -52.39583651 9.18668622 -55 7 C-55.50789063 6.54753906 -56.01578125 6.09507812 -56.5390625 5.62890625 C-59.00104505 3.48831551 -60.87735232 2.04088256 -64 1 C-63.62488281 1.46148437 -63.24976563 1.92296875 -62.86328125 2.3984375 C-50.05952254 18.71758588 -48.81881792 36.04398472 -48.86962891 56.00097656 C-48.87492878 58.4668612 -48.86968997 60.93255883 -48.86328125 63.3984375 C-48.85946529 71.54764963 -49.00702786 79.67051383 -49.44921875 87.80859375 C-49.50811783 88.90083252 -49.50811783 88.90083252 -49.56820679 90.01513672 C-49.82235229 94.23869607 -50.28414546 98.38301289 -50.9375 102.5625 C-53.54784253 119.99095235 -54.21099715 137.40772286 -54.29754639 155.00802612 C-54.30738098 156.97576757 -54.32177737 158.94349243 -54.34112549 160.91116333 C-54.52933838 182.79966934 -52.53556775 202.43163748 -37.6875 219.6875 C-28.87400379 227.27120604 -18.97611501 231.42259955 -8 235 C-8 235.66 -8 236.32 -8 237 C-20.34157982 241.96181882 -32.72191757 244.46367599 -46 245 C-47.50240234 245.07927734 -47.50240234 245.07927734 -49.03515625 245.16015625 C-73.57218869 245.87362243 -99.7157991 238.77124766 -118 222 C-126.29614534 213.81553354 -131.10885212 204.46259384 -131.43164062 192.64697266 C-131.49225982 168.49527561 -121.70668747 146.16554622 -111.296875 124.7734375 C-108.48201661 118.97771624 -105.87023343 113.09338676 -103.26977539 107.19897461 C-101.31216998 102.79586829 -99.24100097 98.48214148 -97.046875 94.19140625 C-91.82726213 83.82555683 -87.93770091 72.90282011 -84 62 C-83.69046387 61.15566406 -83.38092773 60.31132812 -83.06201172 59.44140625 C-77.88442334 44.94044059 -75.93089658 27.51981026 -80.875 12.6875 C-88.8759375 -4.19088221 -105.15761602 -12.02422414 -121.890625 -18.0390625 C-123.91773726 -18.72114115 -125.95731999 -19.36606483 -128 -20 C-128 -20.66 -128 -21.32 -128 -22 C-88.4024137 -31.5965915 -32.93940252 -25.82114181 0 0 Z " fill="#ffffff" transform="translate(373,188)"/>
<path d="M0 0 C0.78117188 0.53882813 1.56234375 1.07765625 2.3671875 1.6328125 C6.42446891 4.53889296 6.42446891 4.53889296 8 6 C8 6.66 8 7.32 8 8 C8.56976563 8.23847656 9.13953125 8.47695312 9.7265625 8.72265625 C22.08272882 15.66503836 28.32393843 32.15459242 32 45 C37.33054458 70.57556624 30.46024797 93.71751258 20 117 C18.68 116.67 17.36 116.34 16 116 C15.8040625 114.83726562 15.608125 113.67453125 15.40625 112.4765625 C12.51933675 96.58598785 6.76994381 82.88026684 -1.75 69.1875 C-3 67 -3 67 -3 65 C-3.66 65 -4.32 65 -5 65 C-10 59.52380952 -10 59.52380952 -10 57 C-10.66 57 -11.32 57 -12 57 C-13.4375 55.50390625 -13.4375 55.50390625 -15 53.5625 C-17.14525044 50.84811762 -17.14525044 50.84811762 -20 49 C-20 48.34 -20 47.68 -20 47 C-20.56976563 46.73574219 -21.13953125 46.47148437 -21.7265625 46.19921875 C-24.13982131 44.92624546 -26.18846237 43.44307499 -28.375 41.8125 C-63.8665557 16.76575059 -106.49554928 16.95183568 -148 21 C-142.88438569 7.241567 -127.90793911 -1.27442346 -115.171875 -7.18359375 C-78.8104091 -23.32049078 -33.53162066 -23.58688145 0 0 Z " fill="#ffffff" transform="translate(397,133)"/>
<path d="M0 0 C0.99782908 5.83684975 1.16523649 11.52322263 1.2109375 17.4375 C1.23902738 19.48828894 1.26769196 21.53907007 1.296875 23.58984375 C1.33788221 26.78401282 1.37481748 29.97803959 1.40136719 33.17236328 C1.53062021 55.86391141 1.53062021 55.86391141 9 77 C8.505 78.485 8.505 78.485 8 80 C6.92363281 79.76023437 5.84726563 79.52046875 4.73828125 79.2734375 C-11.92797607 75.79491208 -23.89100704 78.49457747 -38.37182617 87.23876953 C-42.60964636 90.07867987 -46.17788114 93.50103907 -49.8125 97.0625 C-50.53630859 97.75666016 -51.26011719 98.45082031 -52.00585938 99.16601562 C-55.0180781 102.06269719 -57.98959666 104.98448604 -60.88671875 107.99609375 C-63 110 -63 110 -65 110 C-65.495 111.485 -65.495 111.485 -66 113 C-67.69381304 114.54318872 -69.45442502 116.01400272 -71.25 117.4375 C-72.20390625 118.19933594 -73.1578125 118.96117187 -74.140625 119.74609375 C-77 122 -77 122 -79.64550781 123.68994141 C-82.30521658 125.85099526 -82.30521658 125.85099526 -82.58007812 129.31225586 C-82.56396484 130.60010986 -82.54785156 131.88796387 -82.53125 133.21484375 C-82.53451294 133.90759903 -82.53777588 134.60035431 -82.5411377 135.31410217 C-82.55427018 138.26689657 -82.50959422 141.21816936 -82.47021484 144.1706543 C-82.44968587 146.33168672 -82.4585852 148.49127222 -82.46875 150.65234375 C-82.44458008 152.58581665 -82.44458008 152.58581665 -82.41992188 154.55834961 C-83.14543421 158.86287292 -84.61704234 160.33627137 -88 163 C-88.66 163 -89.32 163 -90 163 C-90 163.66 -90 164.32 -90 165 C-92.27649967 167.19218487 -93.44585647 167.98199238 -96.64453125 168.0859375 C-97.42183594 168.05757812 -98.19914062 168.02921875 -99 168 C-98.88487847 166.27014758 -98.75744323 164.54111249 -98.625 162.8125 C-98.55539063 161.84957031 -98.48578125 160.88664063 -98.4140625 159.89453125 C-97.99422048 156.95959788 -97.13160822 154.72614708 -96 152 C-93.38452069 141.13445943 -93.8009577 130.09107951 -94 119 C-93.32195312 118.67128906 -92.64390625 118.34257812 -91.9453125 118.00390625 C-79.40334928 111.59395552 -70.27204936 101.40324208 -60.48144531 91.49755859 C-58.66149492 89.65781309 -56.8321263 87.82761367 -55 86 C-56.49138477 85.17179247 -57.99371203 84.36328261 -59.5 83.5625 C-60.3353125 83.11003906 -61.170625 82.65757812 -62.03125 82.19140625 C-74.02443224 77.37835285 -90.67616167 78.7251734 -102.53125 83.125 C-105 84 -105 84 -108 84 C-108.57056259 79.34040554 -108.81523239 75.31000119 -105.875 71.4375 C-93.64118557 59.08881408 -74.79562205 54.73569271 -58 54 C-50.92934863 54.01666427 -43.95530569 54.76326631 -37 56 C-37.33 55.01 -37.66 54.02 -38 53 C-38.28232471 49.46334752 -38.27763754 45.9216746 -38.3125 42.375 C-38.35600586 40.93447266 -38.35600586 40.93447266 -38.40039062 39.46484375 C-38.49228317 29.04564281 -34.52620652 20.62510955 -27.25390625 13.22265625 C-19.75861856 6.33061103 -10.52219625 -0.48940448 0 0 Z " fill="#ffffff" transform="translate(205,70)"/>
<path d="M0 0 C6.20988129 0.44356295 10.60540561 1.91532502 16 5 C16 5.66 16 6.32 16 7 C16.99 7.33 17.98 7.66 19 8 C19 8.66 19 9.32 19 10 C19.66 10 20.32 10 21 10 C22.43194595 12.03753976 23.72889327 14.05286967 25 16.1875 C25.35578125 16.76564453 25.7115625 17.34378906 26.078125 17.93945312 C33.70397371 30.53063989 34.58533434 44.164581 34.5 58.5 C34.49823761 59.29136353 34.49647522 60.08272705 34.49465942 60.89807129 C34.39449443 81.10336419 30.02433276 97.95133449 21 116 C20.07364746 115.97905273 19.14729492 115.95810547 18.19287109 115.93652344 C14.68511588 115.8674783 11.17810448 115.81778608 7.66992188 115.78027344 C6.16492161 115.76042024 4.65999565 115.7333281 3.15527344 115.69824219 C-10.62197108 115.38554104 -23.27277115 117.04055552 -35 125 C-35.90105469 125.59167969 -35.90105469 125.59167969 -36.8203125 126.1953125 C-45.25484738 132.5117579 -50.30096696 143.04731568 -53 153 C-53.99 153 -54.98 153 -56 153 C-61.48595929 141.68188011 -61.99356082 129.56547287 -62.78125 117.1875 C-63.06138423 113.10554408 -63.50981443 109.06153758 -64 105 C-63.36835938 105.0721875 -62.73671875 105.144375 -62.0859375 105.21875 C-40.79737637 107.42736153 -21.61441794 106.13349464 -4.1875 92.75 C7.4707673 82.75479965 14.63576617 68.27941893 16 53 C17.30647092 35.95214778 11.72092673 17.37160283 1.31640625 3.8046875 C0 2 0 2 0 0 Z " fill="#ffffff" transform="translate(244,180)"/>
<path d="M0 0 C1.5303186 0.00241699 1.5303186 0.00241699 3.09155273 0.00488281 C13.02570689 0.167151 20.74748527 2.19943299 28.6875 8.375 C29.31140625 8.85582031 29.9353125 9.33664063 30.578125 9.83203125 C35.93845933 14.20008995 40.40621588 19.25335432 43.6875 25.375 C43.6875 26.695 43.6875 28.015 43.6875 29.375 C42.95450684 29.41463867 42.22151367 29.45427734 41.46630859 29.49511719 C7.12573691 31.43417302 -29.69877246 35.89974927 -57.3125 58.375 C-58.17101562 59.03371094 -59.02953125 59.69242188 -59.9140625 60.37109375 C-66.46669117 65.44888606 -72.53131197 70.86192039 -77.6875 77.375 C-78.491875 78.365 -78.491875 78.365 -79.3125 79.375 C-79.9725 79.375 -80.6325 79.375 -81.3125 79.375 C-83.98187921 74.03624157 -82.70753462 65.61751271 -81.25390625 59.9453125 C-76.50669446 46.98404547 -68.37200315 35.75052367 -58.3125 26.375 C-57.6525 26.375 -56.9925 26.375 -56.3125 26.375 C-56.3125 25.715 -56.3125 25.055 -56.3125 24.375 C-49.76147351 18.03938444 -42.42952921 13.40423239 -34.3125 9.375 C-33.40886719 8.9109375 -32.50523437 8.446875 -31.57421875 7.96875 C-21.01213426 2.58599879 -11.88276036 -0.01941786 0 0 Z " fill="#ffffff" transform="translate(321.3125,69.625)"/>
<path d="M0 0 C0.98484375 0.00902344 1.9696875 0.01804687 2.984375 0.02734375 C4.10585937 0.04474609 4.10585937 0.04474609 5.25 0.0625 C4.6796782 3.46660826 3.81500584 6.183279 2.25 9.25 C-1.91626757 18.41882973 -1.08467254 26.83670655 2.375 36.0625 C8.57851497 45.98812395 16.15875195 51.36541732 27.25 55.0625 C38.65370549 55.76593142 46.79643216 55.0401334 56.25 48.0625 C57.24 47.0725 57.24 47.0725 58.25 46.0625 C61.25 46.25 61.25 46.25 64.25 47.0625 C66.25 50.0625 66.25 50.0625 66.125 53.25 C65.2591089 57.02281121 63.98429127 59.760176 62.171875 63.12890625 C60.9402428 65.71220259 60.53319914 68.23050858 60.25 71.0625 C54.79215821 70.6961171 50.16641705 69.82134508 45.09765625 67.765625 C40.87360514 66.15816369 37.54616147 65.85076215 33.25 67.0625 C36.04313008 74.97311315 40.71113197 80.84019889 46.25 87.0625 C46.76820313 87.65417969 47.28640625 88.24585938 47.8203125 88.85546875 C49.36634807 90.38090897 49.36634807 90.38090897 52.5625 90.5 C56.81867325 89.99503029 58.85449736 88.58938569 62.25 86.0625 C62.91 86.0625 63.57 86.0625 64.25 86.0625 C64.51941406 85.49015625 64.78882813 84.9178125 65.06640625 84.328125 C66.28385639 81.9976924 67.64091733 79.93757542 69.1875 77.8125 C69.69152344 77.10609375 70.19554687 76.3996875 70.71484375 75.671875 C71.22144531 75.14078125 71.72804688 74.6096875 72.25 74.0625 C73.24 74.0625 74.23 74.0625 75.25 74.0625 C79.05494423 81.96052101 80.18472963 89.44735876 80.9375 98.125 C81.05416016 99.33994141 81.17082031 100.55488281 81.29101562 101.80664062 C81.51639105 104.15589291 81.73653532 106.50565473 81.95068359 108.85595703 C82.33113067 112.93164373 82.78163879 116.99607417 83.25 121.0625 C76.00400353 119.3625912 69.90881084 115.86529713 63.625 112 C62.83520752 111.51466797 62.04541504 111.02933594 61.23168945 110.52929688 C54.19253742 106.1377683 47.65220362 101.33829788 41.25 96.0625 C40.68909668 95.60311035 40.12819336 95.1437207 39.55029297 94.67041016 C33.67785885 89.84174482 27.93417069 84.95364797 22.65625 79.46875 C21.13923727 77.89278996 21.13923727 77.89278996 18.75 76.125 C14.67585634 72.76383148 10.48276745 68.70751828 8.23046875 63.875 C7.32505918 61.70754136 7.32505918 61.70754136 4.25 61.0625 C2.4453125 59.12109375 2.4453125 59.12109375 0.375 56.5 C-0.4190625 55.50226563 -1.213125 54.50453125 -2.03125 53.4765625 C-2.46566406 52.92774414 -2.90007812 52.37892578 -3.34765625 51.81347656 C-4.82489481 49.9689858 -6.33046239 48.1509485 -7.84375 46.3359375 C-14.9541777 37.77438032 -21.43704897 28.96736039 -27.59814453 19.70166016 C-28.87425717 17.83140612 -28.87425717 17.83140612 -31.05859375 15.35546875 C-32.75 13.0625 -32.75 13.0625 -32.75 9.0625 C-32.09515625 8.90394531 -31.4403125 8.74539063 -30.765625 8.58203125 C-24.36714615 6.94626194 -18.42442519 4.80492385 -12.37890625 2.1484375 C-8.07375629 0.37008432 -4.66612262 -0.05554908 0 0 Z " fill="#ffffff" transform="translate(102.75,275.9375)"/>
<path d="M0 0 C1.50143555 -0.00942627 1.50143555 -0.00942627 3.03320312 -0.01904297 C10.50624962 0.10730696 19.42683951 0.35829414 25.18798828 5.60742188 C26.02305908 6.54424805 26.02305908 6.54424805 26.875 7.5 C23.3364549 11.26683833 19.53534389 14.39073818 15.42578125 17.51953125 C11.58476896 20.50175672 7.87876478 23.64450759 4.16015625 26.77734375 C1.875 28.5 1.875 28.5 -0.125 28.5 C-0.125 29.16 -0.125 29.82 -0.125 30.5 C-0.785 30.5 -1.445 30.5 -2.125 30.5 C-2.62 31.985 -2.62 31.985 -3.125 33.5 C-3.785 33.5 -4.445 33.5 -5.125 33.5 C-5.393125 34.098125 -5.66125 34.69625 -5.9375 35.3125 C-7.12417406 37.49847854 -8.22099113 38.91332594 -10.125 40.5 C-10.785 40.5 -11.445 40.5 -12.125 40.5 C-12.36992187 41.05171875 -12.61484375 41.6034375 -12.8671875 42.171875 C-14.38147878 44.97472469 -16.25695147 47.26389766 -18.25 49.75 C-28.45675455 62.99282274 -33.81643331 78.23288044 -37.125 94.5 C-38.115 94.5 -39.105 94.5 -40.125 94.5 C-51.14082238 80.88290539 -53.4757102 65.13274103 -52.40429688 48.10449219 C-51.72924308 41.80949753 -49.72333667 36.25808679 -47.125 30.5 C-46.75246094 29.654375 -46.37992188 28.80875 -45.99609375 27.9375 C-39.94418522 15.79150936 -28.98925101 6.02420119 -16.2890625 1.4140625 C-10.943799 0.00940845 -5.49623913 0.02614847 0 0 Z " fill="#ffffff" transform="translate(265.125,54.5)"/>
<path d="M0 0 C1.22763565 0.00212242 1.22763565 0.00212242 2.48007202 0.00428772 C5.09873075 0.00989335 7.71730454 0.02244677 10.3359375 0.03515625 C12.10937377 0.04017053 13.88281137 0.04473356 15.65625 0.04882812 C20.00784532 0.05986461 24.359377 0.077133 28.7109375 0.09765625 C27.08563106 3.62899562 25.64248765 5.12447991 22.3359375 7.22265625 C21.56507813 7.72023437 20.79421875 8.2178125 20 8.73046875 C17.94149815 9.95994937 15.87197237 11.06154364 13.7109375 12.09765625 C13.7109375 12.75765625 13.7109375 13.41765625 13.7109375 14.09765625 C12.8653125 14.61328125 12.0196875 15.12890625 11.1484375 15.66015625 C6.60653588 18.52422598 3.87881113 22.85484123 0.7109375 27.09765625 C-1.22124117 29.52061714 -3.19429853 31.80803052 -5.2890625 34.09765625 C-5.9490625 34.09765625 -6.6090625 34.09765625 -7.2890625 34.09765625 C-7.79572722 29.91093478 -8.29320168 25.72316992 -8.7890625 21.53515625 C-8.93214844 20.35373047 -9.07523438 19.17230469 -9.22265625 17.95507812 C-9.88772972 12.30195361 -10.48971673 6.79122004 -10.2890625 1.09765625 C-7.06302705 -0.51536148 -3.54196212 -0.02287974 0 0 Z " fill="#ffffff" transform="translate(156.2890625,192.90234375)"/>
</svg>