<?xml version="1.0" encoding="UTF-8"?>
<svg version="1.1" xmlns="http://www.w3.org/2000/svg" width="995" height="317">
<path d="M0 0 C328.35 0 656.7 0 995 0 C995 104.61 995 209.22 995 317 C666.65 317 338.3 317 0 317 C0 212.39 0 107.78 0 0 Z " fill="#ffffff" transform="translate(0,0)"/>
<path d="M0 0 C1.11397659 -0.00101212 1.11397659 -0.00101212 2.25045776 -0.00204468 C13.51035858 0.01423103 24.29286875 0.48853676 35.25 3.25 C35.93255859 3.42160645 36.61511719 3.59321289 37.31835938 3.77001953 C53.04976385 7.85624089 67.68891928 14.70716241 77.0625 28.5 C84.64519847 41.44348995 87.10588354 56.55920973 83.3671875 71.29296875 C78.62288055 85.44734148 69.60738593 97.15523197 60.86914062 109.04443359 C58.45754532 112.32946857 56.06732066 115.62939978 53.6875 118.9375 C52.92308594 119.99324219 52.15867187 121.04898438 51.37109375 122.13671875 C46.77181561 128.88740877 43.91667112 133.88639156 45.25 142.25 C47.04256794 147.20592312 50.43579668 150.75364696 54.25 154.25 C48.69381839 152.89483375 44.92550253 150.5548694 41.25 146.25 C37.2429612 138.49505138 36.64278156 130.964121 36.8125 122.375 C36.8235376 121.20259766 36.8345752 120.03019531 36.84594727 118.82226562 C37.01802429 109.73857243 37.96158674 100.91491653 39.49609375 91.96875 C41.20160692 81.78357868 41.45860971 71.6238569 41.5 61.3125 C41.520625 60.03181641 41.54125 58.75113281 41.5625 57.43164062 C41.61728473 43.98883673 39.27158619 31.15505561 30.109375 20.859375 C26.62092166 17.83995741 22.46125859 16.05601406 18.25 14.25 C18.78109375 14.79527344 19.3121875 15.34054688 19.859375 15.90234375 C31.41683574 28.240144 32.63265801 41.14814174 32.5625 57.5 C32.5622583 58.66014114 32.5622583 58.66014114 32.56201172 59.84371948 C32.54728446 70.1013895 32.01956751 80.12282152 30.75 90.3125 C29.36131224 101.68624301 28.89121801 112.93518625 28.828125 124.38644409 C28.81786467 126.2257893 28.80098581 128.06511185 28.77685547 129.90432739 C28.59592793 145.52853339 29.88308578 160.84732123 40.875 173.0546875 C46.04938343 177.86973874 52.40042497 180.68835874 59.25 182.25 C59.25 182.91 59.25 183.57 59.25 184.25 C57.92037928 184.73937429 56.58600575 185.21583581 55.25 185.6875 C54.5075 185.95433594 53.765 186.22117187 53 186.49609375 C34.06292911 191.68764869 11.19837624 189.30961222 -5.9921875 180.01171875 C-14.91479821 174.31186403 -20.40127105 168.29618684 -23.75 158.25 C-25.49334103 134.10043983 -13.74863811 112.83266569 -3.63891602 91.59741211 C11.77508457 59.87260812 11.77508457 59.87260812 11.15625 25.48046875 C5.6333461 13.80305227 -3.72198228 8.64504328 -15.5234375 4.20703125 C-17.58578328 3.51416114 -19.6661303 2.87516091 -21.75 2.25 C-21.75 1.92 -21.75 1.59 -21.75 1.25 C-14.53765434 -0.12732893 -7.31234285 0.00592564 0 0 Z " fill="#8C0D0D" transform="translate(163.75,103.75)"/>
<path d="M0 0 C52.91910112 0 52.91910112 0 62 9 C68.87794419 17.76806626 69.33979011 26.29628603 69.3125 37.125 C69.32861328 38.38054687 69.34472656 39.63609375 69.36132812 40.9296875 C69.36603729 50.00896232 69.06162799 59.23477307 64.02734375 67.0703125 C63.33769531 67.74835938 62.64804687 68.42640625 61.9375 69.125 C61.24527344 69.82882813 60.55304688 70.53265625 59.83984375 71.2578125 C58.92912109 72.12019531 58.92912109 72.12019531 58 73 C57.34 73.66 56.68 74.32 56 75 C56.53109375 75.4125 57.0621875 75.825 57.609375 76.25 C64.10604056 81.56114264 67.67650192 86.65730862 69 95 C69.17435993 98.20327156 69.20846144 101.40585788 69.24609375 104.61328125 C69.27903545 106.52018683 69.31224704 108.42708775 69.34570312 110.33398438 C69.39303053 113.3224771 69.43747962 116.31095143 69.47680664 119.29956055 C69.51675253 122.19599604 69.56824036 125.09205642 69.62109375 127.98828125 C69.6295079 128.8718782 69.63792206 129.75547516 69.64659119 130.66584778 C69.66323318 131.50999741 69.67987518 132.35414703 69.69702148 133.22387695 C69.71248268 134.32044365 69.71248268 134.32044365 69.72825623 135.43916321 C70.10822303 139.01986333 71.12667679 142.50670718 72 146 C64.08 146 56.16 146 48 146 C45.75085962 138.12800866 45.75085962 138.12800866 45.72875977 134.33740234 C45.71857315 133.49317719 45.70838654 132.64895203 45.69789124 131.77914429 C45.69575119 130.89038605 45.69361115 130.00162781 45.69140625 129.0859375 C45.66626387 127.17187172 45.64086561 125.25780929 45.61523438 123.34375 C45.58643509 120.35059352 45.5623907 117.35749474 45.54370117 114.36425781 C45.52204985 111.45869738 45.48263446 108.55377644 45.44140625 105.6484375 C45.44129044 104.7556308 45.44117462 103.8628241 45.4410553 102.94296265 C45.36490941 98.15959839 45.16971785 94.83601006 42 91 C36.82704811 86.55210287 36.82704811 86.55210287 23 87 C23 106.47 23 125.94 23 146 C15.41 146 7.82 146 0 146 C0 97.82 0 49.64 0 0 Z " fill="#040404" transform="translate(405,87)"/>
<path d="M0 0 C51.58044554 0 51.58044554 0 60.28125 7.203125 C68.87109719 16.18341979 69.36205464 27.55164391 69.375 39.3125 C69.39949219 40.47201172 69.42398438 41.63152344 69.44921875 42.82617188 C69.48581104 53.67578571 67.01199793 62.61980736 60 71 C57.1875 73.4375 57.1875 73.4375 55 75 C56.051875 75.639375 57.10375 76.27875 58.1875 76.9375 C64.92228912 81.76364443 67.49500492 89.08932423 69 97 C69.29102806 100.15695503 69.3467967 103.29968545 69.37890625 106.46875 C69.39590073 107.34849487 69.4128952 108.22823975 69.43040466 109.13464355 C69.48310809 111.92302429 69.52361507 114.71139521 69.5625 117.5 C69.6066972 120.2885294 69.65362357 123.07695552 69.70530701 125.86535645 C69.7367971 127.59273412 69.76382316 129.32020128 69.78553772 131.04772949 C69.79902756 131.84215454 69.8125174 132.63657959 69.82641602 133.45507812 C69.83592789 134.14154419 69.84543976 134.82801025 69.85523987 135.53527832 C70.06098182 139.03829143 70.56475594 142.5180475 71 146 C63.41 146 55.82 146 48 146 C45.75084947 140.37712369 45.75084947 140.37712369 45.72875977 136.70385742 C45.71857315 135.88918503 45.70838654 135.07451263 45.69789124 134.2351532 C45.69575119 133.36735733 45.69361115 132.49956146 45.69140625 131.60546875 C45.66624208 129.74413755 45.64084412 127.8828095 45.61523438 126.02148438 C45.58654671 123.10539599 45.56251201 120.18936233 45.54370117 117.27319336 C45.52192719 114.44616454 45.48247746 111.61977376 45.44140625 108.79296875 C45.44129044 107.93124557 45.44117462 107.0695224 45.4410553 106.1816864 C45.3488211 100.48304764 44.39910403 96.19390303 42 91 C36.37823378 86.41382229 30.5462936 87.58048412 23 87 C23 106.47 23 125.94 23 146 C15.41 146 7.82 146 0 146 C0 97.82 0 49.64 0 0 Z " fill="#010101" transform="translate(884,87)"/>
<path d="M0 0 C11.22 0 22.44 0 34 0 C35.1809673 4.72386921 36.26007786 9.06712757 36.98632812 13.81518555 C37.15446518 14.9012207 37.32260223 15.98725586 37.49583435 17.10620117 C37.67252151 18.27127197 37.84920868 19.43634277 38.03125 20.63671875 C38.3261945 22.54691499 38.62114447 24.4571104 38.91630459 26.36727333 C39.23033409 28.40345626 39.54267031 30.43989247 39.85452271 32.47640991 C40.95525598 39.66274171 42.06803404 46.84720657 43.18359375 54.03125 C43.29803267 54.76879705 43.41247158 55.50634411 43.53037834 56.26624107 C45.2446288 67.30190245 47.02089359 78.32617626 48.84765625 89.34375 C49.0202125 90.38605239 49.0202125 90.38605239 49.19625473 91.44941139 C50.40864429 98.77160185 51.6304857 106.0921026 52.86328125 113.41088867 C53.26446412 115.81947518 53.6655129 118.22808403 54.06640625 120.63671875 C54.24824966 121.70083984 54.43009308 122.76496094 54.6174469 123.86132812 C55.837801 131.23218359 56.50643101 138.54434329 57 146 C49.41 146 41.82 146 34 146 C32.89273377 143.78546753 32.6135119 142.0166538 32.24609375 139.5703125 C32.11396484 138.69246094 31.98183594 137.81460938 31.84570312 136.91015625 C31.71099609 135.99105469 31.57628906 135.07195312 31.4375 134.125 C31.29892578 133.21363281 31.16035156 132.30226562 31.01757812 131.36328125 C30.44344729 127.4999181 30 123.91976756 30 120 C20.76 120 11.52 120 2 120 C1.71125 122.248125 1.4225 124.49625 1.125 126.8125 C0.28188168 133.2514989 -0.77654466 139.6205543 -2 146 C-8.93 146 -15.86 146 -23 146 C-21.61088022 133.18123148 -19.71523654 120.49882133 -17.63012695 107.7762146 C-16.6324024 101.68800282 -15.64639657 95.59789351 -14.66015625 89.5078125 C-14.44968658 88.20947983 -14.23921692 86.91114716 -14.02236938 85.57347107 C-12.31290337 75.01001059 -10.64853336 64.43970293 -8.99609375 53.8671875 C-8.87091936 53.06688047 -8.74574497 52.26657345 -8.61677742 51.44201469 C-7.37457253 43.49976243 -6.13478217 35.557142 -4.90064335 27.6136322 C-4.44011289 24.65283295 -3.97753619 21.69235585 -3.51446724 18.73195267 C-3.29830944 17.34679511 -3.08309703 15.96148965 -2.86887932 14.57603073 C-2.5750831 12.67621889 -2.27786489 10.77693718 -1.98046875 8.87768555 C-1.81442139 7.80971237 -1.64837402 6.7417392 -1.47729492 5.6414032 C-1 3 -1 3 0 0 Z " fill="#030303" transform="translate(816,87)"/>
<path d="M0 0 C50.84595824 0 50.84595824 0 60.34765625 9.07421875 C62.94399172 12.10020784 64.59776482 15.28615931 66 19 C66.3393457 19.84925049 66.67869141 20.69850098 67.02832031 21.57348633 C68.22006568 25.77603563 68.32394465 29.56912443 68.3359375 33.9140625 C68.3459227 35.19040054 68.3459227 35.19040054 68.35610962 36.49252319 C68.36620285 38.28942721 68.37092767 40.08636845 68.37060547 41.88330078 C68.37495356 44.59602839 68.41123772 47.30709365 68.44921875 50.01953125 C68.53098125 62.44029008 68.00414473 73.98054849 58.85546875 83.3828125 C48.31001783 92.57400551 36.94021637 91 23 91 C23 109.15 23 127.3 23 146 C15.41 146 7.82 146 0 146 C0 97.82 0 49.64 0 0 Z " fill="#020202" transform="translate(529,87)"/>
<path d="M0 0 C5.76394608 4.63123031 9.05460836 11.92694913 11.0625 18.875 C11.28955078 21.94287109 11.28955078 21.94287109 11.2578125 25.1484375 C11.25136719 26.30214844 11.24492187 27.45585938 11.23828125 28.64453125 C11.21314453 30.42923828 11.21314453 30.42923828 11.1875 32.25 C11.17847656 33.46300781 11.16945313 34.67601562 11.16015625 35.92578125 C11.13666682 38.90893929 11.10079821 41.89199532 11.0625 44.875 C4.1325 44.875 -2.7975 44.875 -9.9375 44.875 C-10.25 34.75 -10.25 34.75 -10.32543945 31.59326172 C-10.53272926 26.348981 -10.94969873 22.37496475 -13.9375 17.875 C-17.80210451 15.51329724 -21.48779935 15.4777053 -25.9375 15.875 C-29.34462695 17.23785078 -30.58734998 18.06912187 -32.05705261 21.45167542 C-33.11636718 25.5704651 -33.22542574 29.29084815 -33.2121582 33.52319336 C-33.21726913 34.37113968 -33.22238007 35.219086 -33.22764587 36.09272766 C-33.24149612 38.8835057 -33.24058862 41.67403552 -33.23828125 44.46484375 C-33.24217053 46.4124816 -33.24650567 48.3601186 -33.25126648 50.30775452 C-33.25871875 54.38545484 -33.25844448 58.46306856 -33.25317383 62.54077148 C-33.24737882 67.75719477 -33.26431585 72.97326304 -33.2875185 78.18962765 C-33.30227443 82.21059733 -33.30312503 86.23148187 -33.30000877 90.25247383 C-33.30052099 92.17533636 -33.30574002 94.09820379 -33.31582069 96.02103996 C-33.32820461 98.71339653 -33.32138191 101.40506593 -33.30981445 104.09741211 C-33.31745819 104.8856839 -33.32510193 105.67395569 -33.33297729 106.4861145 C-33.28400391 111.66249264 -32.34003785 115.26830407 -29.9375 119.875 C-26.65621963 122.57033745 -23.03352271 122.16244019 -18.9375 121.875 C-16.14575949 121.47519461 -16.14575949 121.47519461 -13.9375 119.875 C-11.37254538 114.8949629 -10.54340648 111.07969232 -10.42578125 105.41015625 C-10.40783005 104.73198349 -10.38987885 104.05381073 -10.37138367 103.35508728 C-10.31775057 101.21595243 -10.28353956 99.07703442 -10.25 96.9375 C-10.21678508 95.47588157 -10.18229163 94.0142916 -10.14648438 92.55273438 C-10.06205397 88.9936979 -9.9950203 85.43458488 -9.9375 81.875 C-13.5675 81.875 -17.1975 81.875 -20.9375 81.875 C-20.9375 74.945 -20.9375 68.015 -20.9375 60.875 C-10.0475 60.875 0.8425 60.875 12.0625 60.875 C12.10857534 67.95524343 12.14835258 75.03496013 12.17236328 82.11523438 C12.18237994 84.52052581 12.19599709 86.9258052 12.21337891 89.33105469 C12.2378184 92.80146267 12.24902679 96.27170872 12.2578125 99.7421875 C12.26813507 100.80613739 12.27845764 101.87008728 12.28909302 102.96627808 C12.2907723 114.308507 10.68082234 126.61168428 2.8203125 135.4609375 C-7.51731069 143.77698105 -19.23979879 144.8803307 -31.9375 143.875 C-39.67467992 142.34124085 -45.89581942 137.86137417 -50.9375 131.875 C-55.79653841 123.59492023 -57.08480475 116.1827515 -57.11450195 106.76123047 C-57.12107315 105.85158035 -57.12764435 104.94193024 -57.13441467 104.00471497 C-57.15409003 101.00053821 -57.16579861 97.99641136 -57.17578125 94.9921875 C-57.17985678 93.9624091 -57.1839323 92.93263069 -57.18813133 91.87164688 C-57.2089694 86.41899061 -57.22327986 80.96635932 -57.23266602 75.51367188 C-57.24371429 69.90185837 -57.27810272 64.29044311 -57.31783772 58.67877007 C-57.34407276 54.34625548 -57.35236406 50.01383473 -57.35594749 45.68124771 C-57.3607971 43.6137435 -57.37236427 41.54624302 -57.39098549 39.47881699 C-57.56619211 18.73404226 -57.56619211 18.73404226 -52.9375 9.875 C-52.380625 8.8025 -51.82375 7.73 -51.25 6.625 C-38.285398 -8.79236454 -17.0423705 -10.50198708 0 0 Z " fill="#020202" transform="translate(378.9375,91.125)"/>
<path d="M0 0 C1.31822754 0.01244751 1.31822754 0.01244751 2.66308594 0.02514648 C12.19908704 0.27390403 19.27998633 2.69377253 26.3046875 9.3203125 C33.99828173 18.58681932 34.23226343 29.49353641 34.125 40.9375 C34.104375 44.0725 34.08375 47.2075 34.0625 50.4375 C26.8025 50.4375 19.5425 50.4375 12.0625 50.4375 C11.6875 40.25 11.6875 40.25 11.58447266 37.06567383 C11.5488623 36.22544678 11.51325195 35.38521973 11.4765625 34.51953125 C11.4451416 33.66593018 11.4137207 32.8123291 11.38134766 31.93286133 C10.87245781 27.95019429 9.99616776 25.21111043 6.875 22.625 C3.32720398 21.12704168 0.88498206 21.02794835 -2.9375 21.4375 C-6.4761994 23.08889305 -7.74820153 24.15355229 -9.9375 27.4375 C-10.13778361 30.40127545 -10.22078864 33.27133671 -10.2121582 36.23583984 C-10.21726913 37.13532852 -10.22238007 38.0348172 -10.22764587 38.96156311 C-10.24156707 41.94058858 -10.24058304 44.91938333 -10.23828125 47.8984375 C-10.24216712 49.96725552 -10.24650157 52.03607274 -10.25126648 54.10488892 C-10.25873437 58.44430119 -10.25843352 62.78363211 -10.25317383 67.12304688 C-10.24738202 72.683893 -10.26430057 78.24440575 -10.2875185 83.80519676 C-10.30225201 88.07915189 -10.30312799 92.35302669 -10.30000877 96.62700272 C-10.30052229 98.67711675 -10.3057658 100.72723524 -10.31582069 102.77732468 C-10.32815862 105.64522685 -10.32140891 108.5124793 -10.30981445 111.38037109 C-10.31745819 112.22730026 -10.32510193 113.07422943 -10.33297729 113.94682312 C-10.2913092 118.61038951 -9.93226468 121.63111483 -6.9375 125.4375 C-3.50984748 128.00823939 -0.09778704 127.86787452 4.0625 127.4375 C8.30278619 125.1787063 8.30278619 125.1787063 11.0625 121.4375 C11.21894172 118.88643971 11.32071389 116.35831337 11.37890625 113.8046875 C11.39968735 113.05285187 11.42046844 112.30101624 11.44187927 111.52639771 C11.50732705 109.12185915 11.56623738 106.71721033 11.625 104.3125 C11.66818977 102.68358229 11.71180421 101.05467578 11.75585938 99.42578125 C11.86300351 95.42980085 11.96428433 91.43370941 12.0625 87.4375 C8.7625 87.4375 5.4625 87.4375 2.0625 87.4375 C2.0625 80.5075 2.0625 73.5775 2.0625 66.4375 C12.6225 66.4375 23.1825 66.4375 34.0625 66.4375 C34.13173157 73.7478407 34.19135859 81.05702316 34.22729492 88.36743164 C34.24229124 90.8492419 34.26269501 93.33102606 34.28881836 95.81274414 C34.3256067 99.39996824 34.34231857 102.98683904 34.35546875 106.57421875 C34.37095261 107.66643234 34.38643646 108.75864594 34.40238953 109.88395691 C34.40506702 122.41065629 32.56490451 132.8755526 23.5859375 141.92578125 C15.05663239 149.65688936 4.94038484 149.92959479 -5.9375 149.4375 C-14.21353577 148.54348379 -21.90353104 145.36796947 -27.25 138.8125 C-34.96480182 126.818489 -34.54446894 114.9300028 -34.50390625 101.12890625 C-34.50914957 98.95376826 -34.51542864 96.77863255 -34.52268982 94.60350037 C-34.53306173 90.05871839 -34.52857864 85.51425014 -34.51391602 80.96948242 C-34.49673323 75.17166562 -34.52023508 69.37484039 -34.55540562 63.57713413 C-34.57746136 59.08926439 -34.57591834 54.60162894 -34.5676403 50.11372185 C-34.56682527 47.97728322 -34.57360211 45.84082662 -34.58841133 43.70443916 C-34.73114742 19.38987691 -34.73114742 19.38987691 -26.4375 9.4375 C-25.6125 8.7775 -24.7875 8.1175 -23.9375 7.4375 C-23.195 6.73625 -22.4525 6.035 -21.6875 5.3125 C-15.05534054 0.7905731 -7.86877233 -0.09597907 0 0 Z " fill="#030303" transform="translate(672.9375,85.5625)"/>
<path d="M0 0 C20.79 0 41.58 0 63 0 C63 6.93 63 13.86 63 21 C49.8 21 36.6 21 23 21 C23 34.2 23 47.4 23 61 C33.56 61 44.12 61 55 61 C55 68.26 55 75.52 55 83 C44.44 83 33.88 83 23 83 C23 97.19 23 111.38 23 126 C35.87 126 48.74 126 62 126 C62 132.6 62 139.2 62 146 C41.54 146 21.08 146 0 146 C0 97.82 0 49.64 0 0 Z " fill="#020202" transform="translate(722,87)"/>
<path d="M0 0 C0.99668701 0.00161133 1.99337402 0.00322266 3.02026367 0.00488281 C11.80652551 0.14909372 19.47824174 1.59369481 27.8125 4.375 C28.72902344 4.66375 29.64554687 4.9525 30.58984375 5.25 C44.7439767 10.25872951 56.19389996 20.18038304 63.3359375 33.2578125 C69.84839959 47.00634358 69.82032298 64.12196537 64.8125 78.375 C62.93055833 83.42493967 60.9082007 88.41042748 58.8125 93.375 C56.68891781 90.18962671 56.09741292 87.88242676 55.1875 84.1875 C49.55048654 64.05233751 37.80757998 47.64662355 19.45458984 37.1574707 C11.5908893 32.86642688 3.48119925 29.65716776 -5.1875 27.375 C-5.8988208 27.18663574 -6.6101416 26.99827148 -7.34301758 26.80419922 C-17.20056535 24.59547022 -27.3364739 25.15854458 -37.375 25.25 C-39.30012555 25.26004949 -41.22525618 25.26917186 -43.15039062 25.27734375 C-47.8295541 25.29920215 -52.50847008 25.33362364 -57.1875 25.375 C-52.16598217 14.73192615 -39.78302672 8.56913555 -29.25 4.625 C-19.68135828 1.20355481 -10.11862543 -0.01731011 0 0 Z " fill="#8B0E0E" transform="translate(203.1875,69.625)"/>
<path d="M0 0 C7.59 0 15.18 0 23 0 C23 48.18 23 96.36 23 146 C15.41 146 7.82 146 0 146 C0 97.82 0 49.64 0 0 Z " fill="#050505" transform="translate(490,87)"/>
<path d="M0 0 C0.01458252 1.15935059 0.02916504 2.31870117 0.04418945 3.51318359 C0.10260299 7.85592955 0.17982962 12.19818011 0.26245117 16.54052734 C0.29549947 18.41218973 0.3235925 20.28394697 0.34643555 22.15576172 C0.35985658 36.37195138 0.35985658 36.37195138 4 50 C4.33 50.99 4.66 51.98 5 53 C4.41621582 52.97381592 3.83243164 52.94763184 3.23095703 52.9206543 C-12.2801174 51.88328451 -12.2801174 51.88328451 -26 58 C-27.03125 58.80179688 -28.0625 59.60359375 -29.125 60.4296875 C-35.39170192 65.47885354 -41.08269617 71.0089323 -46.70703125 76.76171875 C-55.14659686 85 -55.14659686 85 -59 85 C-58.95810547 85.69037354 -58.91621094 86.38074707 -58.87304688 87.09204102 C-58.70580206 90.2482576 -58.60243289 93.4035427 -58.5 96.5625 C-58.43296875 97.64853516 -58.3659375 98.73457031 -58.296875 99.85351562 C-58.10366866 107.79912655 -58.10366866 107.79912655 -60.74609375 111.33935547 C-65.94102734 116 -65.94102734 116 -69 116 C-68.58161751 112.86213129 -68.15237211 109.75186895 -67.5234375 106.6484375 C-66.65733816 102.36964823 -65.94280558 98.31864265 -66 93.9453125 C-66.07599293 83.11818873 -66.07599293 83.11818873 -63.20703125 80.13671875 C-60.8125 78.875 -60.8125 78.875 -58.10546875 77.69921875 C-53.14927588 74.98733963 -49.65245207 70.85755237 -45.82348633 66.75927734 C-45.25525146 66.16195801 -44.6870166 65.56463867 -44.1015625 64.94921875 C-43.59963379 64.40612061 -43.09770508 63.86302246 -42.58056641 63.3034668 C-40.75405877 61.79717636 -39.31032851 61.40379221 -37 61 C-38.67222256 57.76703639 -40.2629445 56.87083428 -43.5625 55.25 C-53.60062102 52.23361881 -66.06176748 53.05533851 -76 56 C-75.34801021 50.72069379 -73.29386748 48.90840738 -69.30859375 45.640625 C-65.74065607 43.10503477 -62.12703672 41.42583387 -58 40 C-57.360625 39.77441406 -56.72125 39.54882812 -56.0625 39.31640625 C-50.72569396 37.8050061 -45.31968439 37.79648814 -39.8125 37.75 C-38.6534314 37.73598145 -38.6534314 37.73598145 -37.47094727 37.72167969 C-32.92762473 37.74715718 -29.27707344 38.28098484 -25 40 C-25.495 38.6078125 -25.495 38.6078125 -26 37.1875 C-28.25396782 29.02714936 -27.79947879 21.75275669 -23.60546875 14.3515625 C-18.67681752 7.13246752 -9.5204388 -2.79327972 0 0 Z " fill="#8B1010" transform="translate(113,39)"/>
<path d="M0 0 C7.08384719 1.23041528 11.48813239 4.75557463 15.61328125 10.515625 C24.60015215 26.61604724 23.4903466 46.72807627 19 64 C17.15348784 69.62663611 15.2955087 75.05673695 12 80 C10.14331055 80.29296875 10.14331055 80.29296875 7.88671875 80.1875 C7.05696533 80.16187988 6.22721191 80.13625977 5.37231445 80.10986328 C4.48632568 80.0736084 3.60033691 80.03735352 2.6875 80 C-9.4056493 79.77351633 -20.58873994 80.59641021 -30 89 C-34.81831198 94.01951622 -37.23753263 99.32117626 -39 106 C-42.47429327 103.31531884 -43.06473092 100.17207587 -44 96 C-44.25412658 93.50589176 -44.44091802 91.0040715 -44.5625 88.5 C-44.81074158 83.5959623 -45.24448702 78.84527331 -46 74 C-45.40574219 74.01047363 -44.81148438 74.02094727 -44.19921875 74.03173828 C-41.46619011 74.07371131 -38.73322963 74.0994558 -36 74.125 C-34.59814453 74.15013672 -34.59814453 74.15013672 -33.16796875 74.17578125 C-21.4499766 74.25772525 -10.1322788 70.95762979 -1.1875 63 C7.90748274 53.05585425 10.56982777 40.77629253 10.34765625 27.76171875 C9.86299729 17.64471643 5.27841392 8.49038495 0 0 Z " fill="#891111" transform="translate(142,116)"/>
<path d="M0 0 C4.1639478 3.33294534 7.15801168 7.15393602 10.0078125 11.64453125 C10.0078125 12.30453125 10.0078125 12.96453125 10.0078125 13.64453125 C8.60208984 13.66580078 8.60208984 13.66580078 7.16796875 13.6875 C-22.77490667 14.57584437 -50.29480571 22.4393396 -71.9921875 43.64453125 C-72.84490234 44.47404297 -72.84490234 44.47404297 -73.71484375 45.3203125 C-74.82127862 46.4144194 -75.91008225 47.52635583 -76.9921875 48.64453125 C-78.38601219 37.80367252 -74.28647329 29.29490729 -67.83984375 20.8125 C-65.64970262 18.3067322 -63.37918942 15.96263838 -60.9921875 13.64453125 C-60.30511719 12.9484375 -59.61804688 12.25234375 -58.91015625 11.53515625 C-43.83652641 -2.89525748 -18.99713956 -12.92550476 0 0 Z " fill="#8B0F0F" transform="translate(214.9921875,43.35546875)"/>
<path d="M0 0 C-0.28875 0.51046875 -0.5775 1.0209375 -0.875 1.546875 C-4.47089992 8.58884568 -5.47665998 15.57327458 -3.375 23.296875 C-0.50064291 29.91816187 5.20192396 35.01814943 11.75 37.9375 C18.54711373 40.07832322 26.15759955 40.26462895 32.625 37.125 C35.92889656 35.21885084 35.92889656 35.21885084 38 33 C40.125 33.375 40.125 33.375 42 34 C42.6875 35.625 42.6875 35.625 43 38 C42.0520411 40.02518491 41.04808041 42.02477154 40 44 C39.30092586 46.73572585 39.30092586 46.73572585 39 49 C32.46242775 48.24566474 32.46242775 48.24566474 30 46.9375 C27.02153677 45.54134536 24.23649341 45.87551948 21 46 C21.16599936 53.8019699 25.64843632 58.64843632 31 64 C35.76926287 63.92181536 38.00076486 63.83656896 41.6875 60.75 C42.8321875 59.38875 42.8321875 59.38875 44 58 C45.66666667 56.33333333 47.33333333 54.66666667 49 53 C52.83803966 57.85522503 52.73081162 63.13035141 53.125 69.0625 C53.2707552 71.03275235 53.41909243 73.0028158 53.5703125 74.97265625 C53.62977051 75.84156494 53.68922852 76.71047363 53.75048828 77.60571289 C53.98183201 79.82566198 54.3978078 81.8544184 55 84 C32.43883807 77.48464141 11.41781037 55.66743144 -2.79296875 37.76953125 C-5.1154252 34.8551567 -7.52134626 32.02450789 -9.9375 29.1875 C-13.68062411 24.70397771 -17.21228444 20.11471317 -20.625 15.375 C-21.06320068 14.77067139 -21.50140137 14.16634277 -21.95288086 13.54370117 C-25 9.24726933 -25 9.24726933 -25 7 C-22.15126513 5.81830257 -19.29720953 4.65458265 -16.4375 3.5 C-15.63763672 3.16613281 -14.83777344 2.83226562 -14.01367188 2.48828125 C-9.08474431 0.51671022 -5.30853326 -0.39903069 0 0 Z " fill="#8A1414" transform="translate(44,183)"/>
<path d="M0 0 C0 0.99 0 1.98 0 3 C-1.6953125 4.62109375 -1.6953125 4.62109375 -4.125 6.4375 C-21.82603087 20.14071282 -38.86360547 35.55435392 -42.625 58.875 C-42.74875 59.90625 -42.8725 60.9375 -43 62 C-43.66 62 -44.32 62 -45 62 C-51.83550312 48.90936666 -55.86431205 37.38361337 -51.375 22.625 C-47.45710471 12.33199286 -39.624923 3.71464808 -29.875 -1.5 C-20.39665505 -5.2348995 -9.25123062 -3.65695705 0 0 Z " fill="#8B1010" transform="translate(172,30)"/>
<path d="M0 0 C15 0 15 0 20 3 C22.48906363 6.73359544 22.30599206 9.66825013 22.30078125 13.9921875 C22.30506638 14.77514191 22.3093515 15.55809631 22.31376648 16.36477661 C22.31950706 18.02068109 22.32001203 19.67661079 22.31567383 21.33251953 C22.31252017 23.8588397 22.33595305 26.3839814 22.36132812 28.91015625 C22.36360187 30.52083186 22.36430426 32.13151061 22.36328125 33.7421875 C22.372491 34.49442596 22.38170074 35.24666443 22.39118958 36.021698 C22.35164554 40.53355397 21.89679173 43.4856001 19 47 C14 50 14 50 0 50 C0 33.5 0 17 0 0 Z " fill="#ffffff" transform="translate(552,108)"/>
<path d="M0 0 C15 0 15 0 21 3 C24.43299007 7.51253112 23.37192556 13.96840203 23.37060547 19.36230469 C23.37497051 21.3614951 23.4119853 23.36052657 23.44921875 25.359375 C23.45501953 27.26589844 23.45501953 27.26589844 23.4609375 29.2109375 C23.46915527 30.36899902 23.47737305 31.52706055 23.48583984 32.72021484 C22.75200651 37.67414298 20.49703934 40.84843128 16.5625 43.875 C13 45 13 45 0 45 C0 30.15 0 15.3 0 0 Z " fill="#ffffff" transform="translate(428,108)"/>
<path d="M0 0 C15 0 15 0 20 3 C24.07543382 8.51119935 23.47956595 14.81271124 23.4375 21.375 C23.4674707 23.02242187 23.4674707 23.02242187 23.49804688 24.703125 C23.49391711 31.59157367 22.76903773 36.17946071 19 42 C12.60283489 46.26477674 8.35952385 45 0 45 C0 30.15 0 15.3 0 0 Z " fill="#ffffff" transform="translate(907,108)"/>
<path d="M0 0 C0.66 0 1.32 0 2 0 C2.17128418 1.21469971 2.34256836 2.42939941 2.51904297 3.6809082 C3.16170385 8.23428042 3.80724695 12.78724032 4.45361328 17.34008789 C4.7317303 19.30189249 5.00908987 21.26380463 5.28564453 23.22583008 C7.21689862 36.99997566 7.21689862 36.99997566 9.59326172 50.70239258 C10.29660106 54.67545776 10.71306316 58.67554314 11.125 62.6875 C11.41375 65.430625 11.7025 68.17375 12 71 C4.74 71 -2.52 71 -10 71 C-8.46667438 57.12394687 -6.83769979 43.2908452 -4.6875 29.49609375 C-4.03436793 25.29649042 -3.47657894 21.09076579 -2.9375 16.875 C-2.19815931 11.19015354 -1.23793201 5.59703303 0 0 Z " fill="#ffffff" transform="translate(831,116)"/>
<path d="M0 0 C8.25 0 16.5 0 25 0 C22.20960624 2.79039376 19.86606679 4.91770315 16.75 7.1875 C11.84066474 10.93644693 7.98331469 15.30981411 4 20 C3.34 20.66 2.68 21.32 2 22 C1.66304138 19.27123692 1.33031571 16.54206837 1 13.8125 C0.90460938 13.04357422 0.80921875 12.27464844 0.7109375 11.48242188 C0.62070313 10.73154297 0.53046875 9.98066406 0.4375 9.20703125 C0.35371094 8.5210083 0.26992187 7.83498535 0.18359375 7.12817383 C-0.02069373 4.76012333 0 2.37684592 0 0 Z " fill="#891212" transform="translate(72,125)"/>
<path d="M0 0 C8.25 0 16.5 0 25 0 C21 4 21 4 18 5 C18 4.01 18 3.02 18 2 C12.72 2 7.44 2 2 2 C2 4.97 2 7.94 2 11 C1.67 11 1.34 11 1 11 C0.67 7.37 0.34 3.74 0 0 Z " fill="#7F201F" transform="translate(72,125)"/>
<path d="M0 0 C0 3 0 3 -1.828125 5.015625 C-3.02695313 6.12164062 -3.02695313 6.12164062 -4.25 7.25 C-8.11065367 10.97731869 -10.64777018 14.20145117 -13 19 C-13.4125 19.804375 -13.825 20.60875 -14.25 21.4375 C-14.4975 21.953125 -14.745 22.46875 -15 23 C-16.21261605 19.36215186 -15.7538616 18.72853859 -14.125 15.375 C-11.00545445 9.39074501 -6.15980391 3.07990195 0 0 Z " fill="#841D1D" transform="translate(137,32)"/>
<path d="M0 0 C0.99 0.99 1.98 1.98 3 3 C0.25023582 3.77961781 -2.14955134 4.1117661 -5.00390625 4.0625 C-6.11475586 4.05089844 -6.11475586 4.05089844 -7.24804688 4.0390625 C-8.01181641 4.02617188 -8.77558594 4.01328125 -9.5625 4 C-15.35887545 3.82636684 -15.35887545 3.82636684 -21 5 C-21.33 4.34 -21.66 3.68 -22 3 C-17.59752097 0.79009419 -13.56183578 0.79470272 -8.75 0.9375 C-6.16206409 0.99900904 -3.58965698 1.02069361 -1 1 C-0.67 0.67 -0.34 0.34 0 0 Z " fill="#923D3C" transform="translate(115,88)"/>
<path d="M0 0 C0.66 0.33 1.32 0.66 2 1 C-3.94 6.94 -9.88 12.88 -16 19 C-16.66 18.67 -17.32 18.34 -18 18 C-6.66287016 5.33029613 -6.66287016 5.33029613 0 0 Z " fill="#F6E0E0" transform="translate(159,42)"/>
<path d="M0 0 C-0.66 1.32 -1.32 2.64 -2 4 C-0.68 4.66 0.64 5.32 2 6 C0 7 0 7 -3.2578125 6.00390625 C-4.5497052 5.53110016 -5.83868638 5.05028031 -7.125 4.5625 C-7.78371094 4.31951172 -8.44242188 4.07652344 -9.12109375 3.82617188 C-10.74991338 3.22421679 -12.37529575 2.61297588 -14 2 C-14 1.67 -14 1.34 -14 1 C-9.23692563 0.04738513 -4.8333472 -0.08333357 0 0 Z " fill="#8D3837" transform="translate(156,104)"/>
<path d="M0 0 C0.66 0 1.32 0 2 0 C2 6.27 2 12.54 2 19 C-0.63892989 15.04160517 -1.13751166 13.27314138 -1.125 8.5625 C-1.12757812 7.59441406 -1.13015625 6.62632813 -1.1328125 5.62890625 C-1 3 -1 3 0 0 Z " fill="#943636" transform="translate(87,58)"/>
<path d="M0 0 C0.99 0.33 1.98 0.66 3 1 C1.515 2.485 1.515 2.485 0 4 C3.3 4.33 6.6 4.66 10 5 C10 5.33 10 5.66 10 6 C5.05 6.33 0.1 6.66 -5 7 C-3.38262276 3.76524552 -2.52370777 2.29427979 0 0 Z " fill="#7F1C1C" transform="translate(151,88)"/>
<path d="M0 0 C0.8353125 1.0828125 0.8353125 1.0828125 1.6875 2.1875 C3.97909334 4.97457299 6.41459857 7.48641528 9 10 C3.80177328 8.63855967 0.90456127 6.53269829 -3 3 C-2.01 2.01 -1.02 1.02 0 0 Z " fill="#873131" transform="translate(209,248)"/>
<path d="M0 0 C0.99 0.33 1.98 0.66 3 1 C1.75965588 2.32162881 0.50731374 3.63200453 -0.75 4.9375 C-1.44609375 5.66839844 -2.1421875 6.39929688 -2.859375 7.15234375 C-5.00599725 9.00517646 -6.23532932 9.60771565 -9 10 C-8.06409496 8.8944811 -7.12620142 7.79064547 -6.1875 6.6875 C-5.66542969 6.07261719 -5.14335938 5.45773438 -4.60546875 4.82421875 C-3.12827531 3.14575321 -1.59960869 1.56117966 0 0 Z " fill="#861F1F" transform="translate(70,103)"/>
<path d="M0 0 C0.99 0.33 1.98 0.66 3 1 C0.36 3.64 -2.28 6.28 -5 9 C-5.99 8.67 -6.98 8.34 -8 8 C-5.36 5.36 -2.72 2.72 0 0 Z " fill="#831818" transform="translate(157,54)"/>
<path d="M0 0 C1.74627478 2.61941217 2.38722388 4.03824877 3 7 C0.97954558 6.39816251 -1.02111039 5.72693904 -3 5 C-3.33 4.34 -3.66 3.68 -4 3 C-2.68 3 -1.36 3 0 3 C0 2.01 0 1.02 0 0 Z " fill="#842727" transform="translate(96,260)"/>
<path d="M0 0 C1.65 0 3.3 0 5 0 C3.515 3.465 3.515 3.465 2 7 C1.67 7 1.34 7 1 7 C0.67 4.69 0.34 2.38 0 0 Z " fill="#882727" transform="translate(96,190)"/>
<path d="M0 0 C1.39195915 4.17587745 -0.17676781 6.13474776 -2 10 C-2.66 9.67 -3.32 9.34 -4 9 C-2.68 6.03 -1.36 3.06 0 0 Z " fill="#8A2C2C" transform="translate(151,215)"/>
</svg>
