<svg version="1.1" xmlns="http://www.w3.org/2000/svg" width="512px" height="512px">
<path d="M0 0 C1.01814285 0.00223572 1.01814285 0.00223572 2.05685425 0.0045166 C12.59700266 0.0460468 22.51415437 0.69480833 32.75 3.3125 C33.96042969 3.61414063 35.17085937 3.91578125 36.41796875 4.2265625 C72.71560938 13.96398845 104.51099091 36.93103369 123.69140625 69.46923828 C130.27307359 80.92947546 135.0480522 92.63142448 138.75 105.3125 C139.06839844 106.39789063 139.38679688 107.48328125 139.71484375 108.6015625 C149.36213682 145.75084029 141.81836994 184.3931196 123.07421875 217.25 C103.85783513 248.80339364 73.86145349 271.19185532 38.375 281.1875 C37.69937012 281.37844238 37.02374023 281.56938477 36.32763672 281.76611328 C24.48598868 284.89457742 12.68524786 285.68852375 0.5 285.625 C-0.22677948 285.62317719 -0.95355896 285.62135437 -1.70236206 285.61947632 C-36.16020477 285.4740086 -69.69316376 273.1750053 -95.03125 249.35546875 C-97.26138979 247.25233961 -97.26138979 247.25233961 -99.8359375 245.2578125 C-121.65252832 227.67745291 -134.72181749 197.00889896 -140.25 170.3125 C-140.58837891 168.74822266 -140.58837891 168.74822266 -140.93359375 167.15234375 C-144.20625414 148.93829594 -143.3508237 129.3065539 -139.25 111.3125 C-138.99476563 110.09433594 -138.73953125 108.87617188 -138.4765625 107.62109375 C-134.24211472 89.61497867 -125.9800069 73.27382148 -115.25 58.3125 C-114.61835938 57.41789062 -113.98671875 56.52328125 -113.3359375 55.6015625 C-98.91206717 36.47563752 -80.0600704 21.95831227 -58.25 12.3125 C-57.61852051 12.03180664 -56.98704102 11.75111328 -56.33642578 11.46191406 C-38.08325472 3.47585777 -19.87561608 -0.08359881 0 0 Z M-4.25 49.3125 C-5.65895191 50.71452896 -5.65895191 50.71452896 -6.68676758 52.69384766 C-7.10914703 53.42806946 -7.53152649 54.16229126 -7.96670532 54.91876221 C-10.14380001 58.97971088 -12.23268076 63.07404629 -14.26171875 67.2109375 C-14.71601761 68.12710846 -15.17031647 69.04327942 -15.63838196 69.98721313 C-17.0753476 72.88538578 -18.50705993 75.78610158 -19.9375 78.6875 C-21.8326688 82.53092887 -23.73306959 86.37170325 -25.63671875 90.2109375 C-26.07006027 91.09421722 -26.50340179 91.97749695 -26.94987488 92.88754272 C-27.35402115 93.70244171 -27.75816742 94.5173407 -28.17456055 95.35693359 C-28.52810104 96.07448822 -28.88164154 96.79204285 -29.24589539 97.53134155 C-30.25 99.3125 -30.25 99.3125 -32.25 101.3125 C-34.46894836 101.83653259 -34.46894836 101.83653259 -37.26293945 102.22631836 C-38.83015495 102.45181618 -38.83015495 102.45181618 -40.42903137 102.68186951 C-41.56233383 102.83712601 -42.69563629 102.99238251 -43.86328125 103.15234375 C-46.24936484 103.49663472 -48.63543204 103.84103932 -51.02148438 104.18554688 C-54.79339105 104.71982867 -58.56577848 105.25045848 -62.33862305 105.77807617 C-65.97324075 106.28935413 -69.60574556 106.81400823 -73.23828125 107.33984375 C-74.36551102 107.49307602 -75.49274078 107.64630829 -76.65412903 107.80418396 C-78.23552925 108.03441002 -78.23552925 108.03441002 -79.84887695 108.26928711 C-80.77328079 108.39871201 -81.69768463 108.5281369 -82.65010071 108.66148376 C-85.59734853 109.39947627 -87.72966966 110.64022933 -90.25 112.3125 C-89.72961229 116.15665191 -88.93984977 118.12101001 -86.18652344 120.84594727 C-85.54205261 121.49334366 -84.89758179 122.14074005 -84.23358154 122.80775452 C-83.53259338 123.49123459 -82.83160522 124.17471466 -82.109375 124.87890625 C-81.03058075 125.95276833 -81.03058075 125.95276833 -79.92999268 127.04832458 C-77.62918896 129.33338281 -75.31459765 131.60392429 -73 133.875 C-71.45617098 135.40733689 -69.91319212 136.94053083 -68.37109375 138.47460938 C-66.88878848 139.9434834 -65.40573953 141.41160741 -63.921875 142.87890625 C-63.22898376 143.56441055 -62.53609253 144.24991486 -61.82220459 144.95619202 C-58.42555013 148.28649703 -54.97269139 151.34508039 -51.25 154.3125 C-46.77225435 163.26799131 -53.62103807 182.29899755 -55.38964844 191.92651367 C-55.8864465 194.64340786 -56.36979068 197.36243829 -56.8515625 200.08203125 C-57.00670319 200.90508255 -57.16184387 201.72813385 -57.32168579 202.5761261 C-58.18184134 207.48359079 -58.23324278 211.41957986 -57.25 216.3125 C-54.79300889 217.22675028 -52.9664967 217.55399541 -50.44918823 216.70553589 C-48.29012041 215.6894745 -46.19049829 214.59684904 -44.08984375 213.46484375 C-43.30412491 213.05593399 -42.51840607 212.64702423 -41.70887756 212.22572327 C-39.19461385 210.91360663 -36.69106779 209.58239256 -34.1875 208.25 C-32.5299876 207.37954283 -30.8717904 206.51038833 -29.21289062 205.64257812 C-20.36687959 201.0230245 -20.36687959 201.0230245 -11.56689453 196.31689453 C-9.98884033 195.48134033 -9.98884033 195.48134033 -8.37890625 194.62890625 C-7.49404541 194.1501001 -6.60918457 193.67129395 -5.69750977 193.17797852 C-2.07237701 191.89607371 0.09224022 192.57476144 3.55137634 194.114151 C5.72838606 195.16677994 7.87255238 196.27053966 10.015625 197.390625 C10.80845886 197.79907654 11.60129272 198.20752808 12.41815186 198.62835693 C14.94847116 199.93395718 17.47416219 201.24825468 20 202.5625 C21.68331605 203.4315277 23.36690718 204.30002278 25.05078125 205.16796875 C26.68513947 206.01254953 28.3192616 206.85758737 29.953125 207.703125 C30.70031799 208.08978333 31.44751099 208.47644165 32.21734619 208.87481689 C33.30327057 209.44000031 33.30327057 209.44000031 34.41113281 210.01660156 C35.1212854 210.38434692 35.83143799 210.75209229 36.56311035 211.13098145 C38.10492183 211.96398135 39.62360921 212.84049372 41.12341309 213.74694824 C41.90349731 214.21427368 42.68358154 214.68159912 43.48730469 215.16308594 C44.53419464 215.81419342 44.53419464 215.81419342 45.60223389 216.47845459 C48.35916777 217.54905908 49.9578495 217.15989047 52.75 216.3125 C54.13712164 215.14850166 54.13712164 215.14850166 53.92626953 211.92822266 C53.8563283 206.66773643 52.89567033 201.61930408 51.9296875 196.4609375 C51.55554543 194.37247535 51.18186114 192.28393115 50.80859375 190.1953125 C50.21730532 186.93116405 49.6213902 183.66801576 49.01708984 180.40625 C48.43325632 177.23917913 47.86782544 174.06924396 47.3046875 170.8984375 C47.11937469 169.92643402 46.93406189 168.95443054 46.74313354 167.95297241 C45.84955864 162.8546165 45.21401578 159.04924726 47.75 154.3125 C49.6382437 152.08011038 51.48204283 150.08881968 53.5703125 148.06640625 C54.14780243 147.49220444 54.72529236 146.91800262 55.32028198 146.32640076 C57.1626696 144.49969389 59.0187321 142.68758817 60.875 140.875 C62.09982322 139.66167975 63.32379019 138.4474945 64.546875 137.23242188 C69.94389601 131.89168255 75.3344921 126.59578722 81.19482422 121.75756836 C83.00427729 120.0762257 84.40652639 118.3859225 85.75 116.3125 C85.75635246 113.67712492 85.75635246 113.67712492 84.75 111.3125 C81.73805311 109.3045354 80.48914532 108.94654815 77.02246094 108.49047852 C76.06426453 108.36016739 75.10606812 108.22985626 74.11883545 108.09559631 C72.56727753 107.89552223 72.56727753 107.89552223 70.984375 107.69140625 C68.7929578 107.39265844 66.6015519 107.0938277 64.41015625 106.79492188 C60.95660971 106.3334841 57.50265177 105.87534981 54.04833984 105.41967773 C50.71332881 104.97696659 47.38012347 104.52217011 44.046875 104.06640625 C43.02059998 103.93504776 41.99432495 103.80368927 40.93695068 103.66835022 C35.41468023 102.90916549 30.59312909 102.15355591 25.75 99.3125 C23.82885742 96.61132812 23.82885742 96.61132812 22.35546875 93.34375 C22.08142715 92.75503616 21.80738556 92.16632233 21.52503967 91.55976868 C20.64189884 89.65273541 19.79034131 87.73324565 18.9375 85.8125 C18.02876241 83.83644638 17.11170684 81.8643886 16.19442749 79.89228821 C15.58355371 78.57718477 14.97533141 77.26084641 14.36978149 75.94328308 C11.74824895 70.24730203 8.93605336 64.66567899 6 59.125 C5.59418701 58.34898437 5.18837402 57.57296875 4.77026367 56.7734375 C3.28768837 53.97939026 1.99987084 51.56237084 -0.25 49.3125 C-1.57 49.3125 -2.89 49.3125 -4.25 49.3125 Z " fill="#000000" transform="translate(255.25,226.6875)"/>
<path d="M0 0 C1.67592728 -0.01485695 1.67592728 -0.01485695 3.38571167 -0.03001404 C4.60195724 -0.02551239 5.81820282 -0.02101074 7.07130432 -0.01637268 C8.35962158 -0.02323593 9.64793884 -0.03009918 10.97529602 -0.03717041 C14.50222218 -0.05509324 18.02889942 -0.05393515 21.55585742 -0.04822803 C24.50316023 -0.04513479 27.45041532 -0.05123013 30.39771134 -0.05726677 C37.35226328 -0.07130758 44.30669237 -0.06975453 51.26124573 -0.05836487 C58.42943366 -0.04688455 65.59724742 -0.06095859 72.76538604 -0.08776134 C78.92606596 -0.10993226 85.08662854 -0.1165526 91.24734551 -0.11068493 C94.92408685 -0.10731737 98.60058837 -0.1097167 102.27729607 -0.12693596 C106.37814329 -0.14530386 110.47826447 -0.13120385 114.57911682 -0.11402893 C115.79333817 -0.1236969 117.00755951 -0.13336487 118.25857544 -0.14332581 C124.59536116 -0.08769099 128.61663324 0.04441564 133.38990784 4.38768005 C138.11638478 9.7528701 138.81211979 13.01492624 138.73854065 20.07957458 C138.15609124 25.60631796 135.83637119 29.96375081 133.26490784 34.82518005 C132.15875569 37.018846 131.0533162 39.21287142 129.94850159 41.4072113 C129.3656842 42.54497009 128.78286682 43.68272888 128.18238831 44.85496521 C125.44362576 50.25266256 122.83044988 55.70907383 120.21363831 61.16664124 C119.03004308 63.6320978 117.83997765 66.09440605 116.64988708 68.55673218 C112.44042727 77.26703781 108.26629762 85.99407084 104.09693909 94.72361755 C99.7139449 103.89926146 95.3081387 113.063974 90.90602112 122.23045349 C88.39995876 127.4491972 85.89498487 132.66846332 83.38990784 137.88768005 C82.38991313 139.97101593 81.38991313 142.05434926 80.38990784 144.13768005 C79.64740784 145.68455505 79.64740784 145.68455505 78.88990784 147.26268005 C74.38990784 156.63768005 74.38990784 156.63768005 72.88868713 159.76512146 C71.89265023 161.84026594 70.89671857 163.91546094 69.90089417 165.9907074 C67.34113668 171.32475761 64.77933745 176.65781256 62.21412659 181.98924255 C59.70368451 187.20747265 57.20038616 192.42907681 54.70143127 197.65281677 C53.51281537 200.13138627 52.31573965 202.60566068 51.11647034 205.0790863 C50.47802355 206.41091345 49.83996444 207.74292654 49.20240784 209.07518005 C48.67260315 210.17217224 48.14279846 211.26916443 47.59693909 212.3993988 C46.3767144 215.42034343 45.79115766 218.16317847 45.38990784 221.38768005 C41.88422783 220.28686266 38.48282364 219.03851439 35.09693909 217.6181488 C-6.80997369 200.04761214 -52.3356335 197.97282312 -94.82566833 215.20896912 C-96.90663492 216.0787633 -98.9764519 216.97019782 -101.04368591 217.87205505 C-104.20068238 219.2136921 -107.34068786 220.35683233 -110.61009216 221.38768005 C-111.38526984 213.51285918 -111.08636126 207.31718259 -107.69212341 200.1415863 C-107.22845367 199.12325462 -107.22845367 199.12325462 -106.75541687 198.08435059 C-105.72556693 195.84289297 -104.67191955 193.61415807 -103.61009216 191.38768005 C-103.24004059 190.61075806 -102.86998901 189.83383606 -102.48872375 189.03337097 C-100.07879806 183.99753959 -97.62869008 178.9820112 -95.16331482 173.97312927 C-92.93557939 169.44671143 -90.71905164 164.91480414 -88.50071716 160.3837738 C-87.85326538 159.06250992 -87.85326538 159.06250992 -87.19273376 157.71455383 C-82.69232087 148.52612032 -78.27808711 139.29782433 -73.88304138 130.05857849 C-71.49029865 125.03813248 -69.08051977 120.02585584 -66.67259216 115.01268005 C-66.17308044 113.97240662 -65.67356873 112.93213318 -65.15892029 111.8603363 C-64.14807303 109.75516537 -63.13716789 107.65002224 -62.12620544 105.54490662 C-59.62014308 100.3261629 -57.1151692 95.10689679 -54.61009216 89.88768005 C-53.61009746 87.80434418 -52.61009745 85.72101085 -51.61009216 83.63768005 C-51.11509216 82.60643005 -50.62009216 81.57518005 -50.11009216 80.51268005 C-45.61009216 71.13768005 -45.61009216 71.13768005 -44.10935974 68.01121521 C-43.11173762 65.93279518 -42.11417879 63.85434477 -41.11668396 61.77586365 C-38.58082669 56.4921029 -36.04379161 51.20891308 -33.50462341 45.92674255 C-32.9935907 44.86294373 -32.48255798 43.7991449 -31.95603943 42.70310974 C-30.94346356 40.59638447 -29.92965296 38.49025217 -28.91453552 36.38475037 C-26.57868222 31.53149075 -24.26928628 26.67004799 -22.03196716 21.77049255 C-21.63131042 20.90021423 -21.23065369 20.02993591 -20.81785583 19.13328552 C-20.0820141 17.52983761 -19.35484885 15.9223637 -18.63865662 14.31004333 C-14.92598976 6.24966019 -9.36331244 0.02349463 0 0 Z " fill="#000000" transform="translate(288.61009216308594,-0.3876800537109375)"/>
<path d="M0 0 C1.11027054 -0.00860046 2.22054108 -0.01720093 3.36445618 -0.02606201 C5.20029015 -0.03245193 5.20029015 -0.03245193 7.07321167 -0.03897095 C8.35787827 -0.04714844 9.64254486 -0.05532593 10.96614075 -0.06375122 C15.23471984 -0.08998174 19.50330877 -0.10528406 23.77194214 -0.11953735 C25.24215577 -0.12489741 26.71236935 -0.13027492 28.18258286 -0.13566971 C34.30072492 -0.15730369 40.41886434 -0.17603819 46.53703499 -0.1872921 C55.29884882 -0.20351522 64.06021803 -0.23664662 72.82186425 -0.29369295 C78.98503593 -0.33244826 85.148089 -0.35193161 91.31137931 -0.35721266 C94.99057564 -0.36085975 98.66929787 -0.37281056 102.34836197 -0.4053154 C106.45873481 -0.44110855 110.56815832 -0.43701108 114.67868042 -0.42959595 C115.89042435 -0.44600128 117.10216827 -0.46240662 118.35063171 -0.47930908 C125.43057404 -0.42706022 130.33748663 0.40323123 135.76412964 5.15390015 C137.67428589 7.3999939 137.67428589 7.3999939 138.82662964 9.59140015 C139.2301062 10.31198608 139.63358276 11.03257202 140.04928589 11.7749939 C141.70594383 17.28813427 139.00114853 22.26947482 136.55319214 27.1499939 C136.22936554 27.81144913 135.90553894 28.47290436 135.57189941 29.15440369 C134.51796755 31.30358731 133.45351794 33.44737887 132.38912964 35.59140015 C131.65355661 37.08771634 130.9188631 38.5844652 130.18502808 40.08163452 C128.721591 43.06653735 127.25515635 46.04993561 125.78659058 49.03231812 C123.15432675 54.38643186 120.57814496 59.76682466 118.01412964 65.15390015 C117.14318309 66.97949122 116.27208977 68.80501227 115.40084839 70.63046265 C114.97207397 71.52926147 114.54329956 72.4280603 114.10153198 73.35409546 C110.17187217 81.58069982 106.21834051 89.79590309 102.27145386 98.01425171 C100.79027321 101.09944497 99.31021273 104.1851729 97.83053589 107.27108765 C92.17623465 119.06138766 86.50346942 130.84260775 80.81387329 142.61590576 C76.23151476 152.09905791 71.67308333 161.59342072 67.1388855 171.09970093 C66.72130981 171.97481323 66.30373413 172.84992554 65.87350464 173.7515564 C65.51224487 174.50960571 65.15098511 175.26765503 64.77877808 176.04867554 C63.79310156 178.09378829 62.78479646 180.12605676 61.76412964 182.15390015 C61.10412964 182.15390015 60.44412964 182.15390015 59.76412964 182.15390015 C59.49374878 181.58808228 59.22336792 181.0222644 58.9447937 180.43930054 C48.93656459 159.49794101 38.90171025 138.56969803 28.80407715 117.67129517 C24.00211847 107.73174382 19.22863641 97.77887257 14.47116089 87.81796265 C11.59715629 81.80133527 8.71263501 75.78977845 5.82662964 69.77890015 C5.3334021 68.75119507 4.84017456 67.72348999 4.33200073 66.66464233 C1.71806286 61.21915094 -0.89933899 55.77535249 -3.52102661 50.33358765 C-4.05929077 49.21516479 -4.59755493 48.09674194 -5.15213013 46.94442749 C-6.17625184 44.8166161 -7.20140934 42.68930278 -8.22781372 40.56259155 C-9.57393927 37.76437926 -10.90656211 34.96013169 -12.23587036 32.15390015 C-12.63612427 31.32978638 -13.03637817 30.50567261 -13.44876099 29.65658569 C-16.41821129 23.35177813 -17.22096009 18.12913143 -16.23587036 11.15390015 C-12.8489539 4.12918451 -7.74043669 0.04453242 0 0 Z " fill="#000000" transform="translate(101.23587036132813,-0.153900146484375)"/>
</svg>