<?xml version="1.0" encoding="UTF-8"?>
<svg version="1.1" xmlns="http://www.w3.org/2000/svg" width="512" height="512">
<path d="M0 0 C1.01545898 0.19867676 2.03091797 0.39735352 3.07714844 0.60205078 C52.9758035 10.58327711 96.53871388 34.88580573 133 70 C133.7940625 70.7528125 134.588125 71.505625 135.40625 72.28125 C140.75597303 77.46114055 145.38660506 83.16405541 150 89 C151.19109375 90.48306641 151.19109375 90.48306641 152.40625 91.99609375 C176.9776499 123.13801039 193.32468106 159.51240285 201.25 198.3125 C201.40114258 199.05121338 201.55228516 199.78992676 201.70800781 200.55102539 C202.18439803 203.02841582 202.60252786 205.50866222 203 208 C203.26707764 209.67364624 203.26707764 209.67364624 203.53955078 211.38110352 C205.19998488 223.01972268 205.3987437 234.56896253 205.375 246.3125 C205.37418427 247.83293915 205.37418427 247.83293915 205.37335205 249.38409424 C205.33347417 265.58121221 204.46747801 281.12508365 201 297 C200.78037598 298.02625488 200.56075195 299.05250977 200.33447266 300.10986328 C191.83138831 338.85817193 174.61772522 375.56726438 149 406 C148.57138672 406.51739746 148.14277344 407.03479492 147.70117188 407.56787109 C137.18164284 420.2564129 126.03816903 431.86528878 113 442 C111.52660156 443.18142578 111.52660156 443.18142578 110.0234375 444.38671875 C70.29759115 476.0035908 18.37047678 496.93437939 -32.79296875 497.203125 C-33.69337387 497.21018463 -34.59377899 497.21724426 -35.52146912 497.22451782 C-72.98691069 497.45161655 -72.98691069 497.45161655 -90 494 C-91.01545898 493.80132324 -92.03091797 493.60264648 -93.07714844 493.39794922 C-142.9758035 483.41672289 -186.53871388 459.11419427 -223 424 C-223.7940625 423.2471875 -224.588125 422.494375 -225.40625 421.71875 C-230.75597303 416.53885945 -235.38660506 410.83594459 -240 405 C-240.7940625 404.01128906 -241.588125 403.02257812 -242.40625 402.00390625 C-265.32205725 372.96029611 -281.22147176 339.14314413 -289.6875 303.1875 C-289.87787842 302.39625732 -290.06825684 301.60501465 -290.2644043 300.78979492 C-294.22851721 283.10947098 -295.555362 265.38707345 -295.4375 247.3125 C-295.43445862 246.31385925 -295.43141724 245.31521851 -295.42828369 244.28631592 C-295.35621635 228.21658083 -294.43972751 212.74786814 -291 197 C-290.78037598 195.97374512 -290.56075195 194.94749023 -290.33447266 193.89013672 C-279.82149525 145.98280374 -255.85138923 104.15003587 -222 69 C-221.2471875 68.2059375 -220.494375 67.411875 -219.71875 66.59375 C-214.53885945 61.24402697 -208.83594459 56.61339494 -203 52 C-202.01128906 51.2059375 -201.02257812 50.411875 -200.00390625 49.59375 C-167.66655102 24.07913264 -130.33332447 7.86607287 -90 0 C-89.17274414 -0.16661133 -88.34548828 -0.33322266 -87.49316406 -0.50488281 C-59.91781494 -5.80488028 -27.50199116 -5.57960557 0 0 Z M-68 123 C-70.96172387 129.51579251 -73.88937456 135.99065485 -76.609375 142.6015625 C-76.93324188 143.38415939 -77.25710876 144.16675629 -77.59078979 144.97306824 C-78.64560304 147.52299549 -79.69778229 150.07400075 -80.75 152.625 C-81.50028244 154.43978238 -82.25077488 156.25447795 -83.00146484 158.0690918 C-84.55942484 161.8355946 -86.11648768 165.6024663 -87.67285156 169.36962891 C-90.96362959 177.33344879 -94.26327172 185.29359177 -97.56384277 193.25335693 C-98.2739665 194.96592898 -98.9840082 196.67853503 -99.69396973 198.39117432 C-104.61665935 210.26607363 -109.55251292 222.13541247 -114.5 234 C-118.47212759 243.52616416 -122.44011339 253.05402805 -126.3984375 262.5859375 C-126.76926956 263.47878448 -127.14010162 264.37163147 -127.52217102 265.29153442 C-129.36878295 269.73955724 -131.21199007 274.18894395 -133.04858398 278.64111328 C-133.7471203 280.3337054 -134.44576703 282.02625196 -135.14453125 283.71875 C-135.47994431 284.53117157 -135.81535736 285.34359314 -136.16093445 286.18063354 C-138.08901386 290.83808763 -140.05890901 295.47338297 -142.07421875 300.09375 C-142.50557129 301.09744629 -142.93692383 302.10114258 -143.38134766 303.13525391 C-144.12639156 304.86342312 -144.88589533 306.58549625 -145.66552734 308.29833984 C-148.47670187 314.88244399 -148 318.01591309 -148 326 C-108.4 326 -68.8 326 -28 326 C-28 340.85 -28 355.7 -28 371 C-7.21 371 13.58 371 35 371 C35 356.15 35 341.3 35 326 C42.59 326 50.18 326 58 326 C58 307.85 58 289.7 58 271 C50.41 271 42.82 271 35 271 C35 253.18 35 235.36 35 217 C20.48 217 5.96 217 -9 217 C-14.29633016 235.53395482 -14.29633016 235.53395482 -19.375 254.125 C-19.73301561 255.44923425 -20.09108861 256.77345298 -20.44921875 258.09765625 C-20.78308594 259.34675781 -21.11695313 260.59585938 -21.4609375 261.8828125 C-21.75790527 262.99027832 -22.05487305 264.09774414 -22.36083984 265.23876953 C-23.11275687 268.01474657 -23.11275687 268.01474657 -23 271 C-36.53 271 -50.06 271 -64 271 C-62.75347656 268.01066406 -61.50695312 265.02132812 -60.22265625 261.94140625 C-50.17564944 237.84311241 -40.14769733 213.73707921 -30.15556335 189.61598206 C-27.57545893 183.38781455 -24.99321312 177.16053729 -22.41015625 170.93359375 C-21.64347098 169.08520604 -20.87678802 167.23681738 -20.11010742 165.38842773 C-19.01324848 162.74402981 -17.91634436 160.09965071 -16.81924438 157.45535278 C-14.86349417 152.7413246 -12.90938331 148.02662336 -10.95739746 143.31103516 C-9.95780116 140.8981374 -8.95591407 138.48619709 -7.95410156 136.07421875 C-7.30523788 134.50785419 -6.65647104 132.94144952 -6.0078125 131.375 C-5.70422821 130.64563232 -5.40064392 129.91626465 -5.08786011 129.16479492 C-3.63327221 126.17727052 -3.63327221 126.17727052 -3 123 C-24.45 123 -45.9 123 -68 123 Z " fill="#000000" transform="translate(301,9)"/>
</svg>
