<?xml version="1.0" encoding="UTF-8"?>
<svg version="1.1" xmlns="http://www.w3.org/2000/svg" width="512" height="512">
<path d="M0 0 C1.01545898 0.19867676 2.03091797 0.39735352 3.07714844 0.60205078 C52.9758035 10.58327711 96.53871388 34.88580573 133 70 C133.7940625 70.7528125 134.588125 71.505625 135.40625 72.28125 C140.75597303 77.46114055 145.38660506 83.16405541 150 89 C151.19109375 90.48306641 151.19109375 90.48306641 152.40625 91.99609375 C176.9776499 123.13801039 193.32468106 159.51240285 201.25 198.3125 C201.40114258 199.05121338 201.55228516 199.78992676 201.70800781 200.55102539 C202.18439803 203.02841582 202.60252786 205.50866222 203 208 C203.26707764 209.67364624 203.26707764 209.67364624 203.53955078 211.38110352 C205.19998488 223.01972268 205.3987437 234.56896253 205.375 246.3125 C205.37418427 247.83293915 205.37418427 247.83293915 205.37335205 249.38409424 C205.33347417 265.58121221 204.46747801 281.12508365 201 297 C200.78037598 298.02625488 200.56075195 299.05250977 200.33447266 300.10986328 C191.83138831 338.85817193 174.61772522 375.56726438 149 406 C148.57138672 406.51739746 148.14277344 407.03479492 147.70117188 407.56787109 C137.18164284 420.2564129 126.03816903 431.86528878 113 442 C111.52660156 443.18142578 111.52660156 443.18142578 110.0234375 444.38671875 C70.29759115 476.0035908 18.37047678 496.93437939 -32.79296875 497.203125 C-33.69337387 497.21018463 -34.59377899 497.21724426 -35.52146912 497.22451782 C-72.98691069 497.45161655 -72.98691069 497.45161655 -90 494 C-91.01545898 493.80132324 -92.03091797 493.60264648 -93.07714844 493.39794922 C-142.9758035 483.41672289 -186.53871388 459.11419427 -223 424 C-223.7940625 423.2471875 -224.588125 422.494375 -225.40625 421.71875 C-230.75597303 416.53885945 -235.38660506 410.83594459 -240 405 C-240.7940625 404.01128906 -241.588125 403.02257812 -242.40625 402.00390625 C-266.9776499 370.86198961 -283.32468106 334.48759715 -291.25 295.6875 C-291.47671387 294.57942993 -291.47671387 294.57942993 -291.70800781 293.44897461 C-292.18439803 290.97158418 -292.60252786 288.49133778 -293 286 C-293.17805176 284.88423584 -293.35610352 283.76847168 -293.53955078 282.61889648 C-295.19998488 270.98027732 -295.3987437 259.43103747 -295.375 247.6875 C-295.37445618 246.6738739 -295.37391235 245.6602478 -295.37335205 244.61590576 C-295.33347417 228.41878779 -294.46747801 212.87491635 -291 197 C-290.78037598 195.97374512 -290.56075195 194.94749023 -290.33447266 193.89013672 C-279.82149525 145.98280374 -255.85138923 104.15003587 -222 69 C-221.2471875 68.2059375 -220.494375 67.411875 -219.71875 66.59375 C-214.53885945 61.24402697 -208.83594459 56.61339494 -203 52 C-202.01128906 51.2059375 -201.02257812 50.411875 -200.00390625 49.59375 C-167.66655102 24.07913264 -130.33332447 7.86607287 -90 0 C-89.17274414 -0.16661133 -88.34548828 -0.33322266 -87.49316406 -0.50488281 C-59.91781494 -5.80488028 -27.50199116 -5.57960557 0 0 Z M-91 129 C-91.98226562 129.49113281 -92.96453125 129.98226562 -93.9765625 130.48828125 C-112.45560742 140.49179523 -123.65405176 156.06367657 -129.9296875 175.9453125 C-132.9470084 186.49156746 -133 195.74168727 -133 207 C-111.55 207 -90.1 207 -68 207 C-67.34 201.72 -66.68 196.44 -66 191 C-61.87802962 184.81704443 -58.98437734 181.33477757 -52 179 C-44.36870557 178.15967821 -37.27193325 178.19944446 -31 183 C-26.16751398 187.29967346 -24.40917751 192.07819093 -23.74609375 198.43359375 C-22.76698062 220.19517271 -38.48914342 238.74346441 -51 255 C-51.73935791 255.96317139 -51.73935791 255.96317139 -52.49365234 256.94580078 C-59.33623932 265.82701339 -66.43108321 274.50938634 -73.5234375 283.19140625 C-74.83047541 284.7923548 -76.13423356 286.39597976 -77.4375 288 C-81.86820064 293.44343221 -86.37171963 298.81916278 -90.91674805 304.16699219 C-93.79591336 307.55991751 -96.63222581 310.98290376 -99.4375 314.4375 C-103.39508188 319.30129025 -107.46542446 324.05881231 -111.55834961 328.80834961 C-115.33146345 333.19581685 -119.02272131 337.63911855 -122.62109375 342.171875 C-124.43052281 344.32298607 -126.24312181 346.28319904 -128.22265625 348.265625 C-128.77566406 348.84376953 -129.32867187 349.42191406 -129.8984375 350.01757812 C-130.96615771 351.12916008 -132.0623291 352.21446949 -133.19140625 353.26367188 C-139.33478009 359.79900577 -137 363.72893607 -137 374 C-76.28 374 -15.56 374 47 374 C47 354.86 47 335.72 47 316 C13.34 315.505 13.34 315.505 -21 315 C-11.29608939 303.1396648 -11.29608939 303.1396648 -6.75 297.875 C-0.17512027 290.16721068 5.94668093 282.12058828 12 274 C12.46325684 273.37947754 12.92651367 272.75895508 13.40380859 272.11962891 C27.33637452 253.34630397 41.99595091 231.13901342 43 207 C43.0515625 205.85402344 43.103125 204.70804687 43.15625 203.52734375 C43.86287417 180.09824527 36.71588718 160.36710237 20.5625 143.1875 C-0.09777872 123.70646093 -26.51543673 119.31754529 -53.81640625 119.68359375 C-66.97216314 120.09508778 -79.18674432 123.09337216 -91 129 Z " fill="#000000" transform="translate(301,9)"/>
</svg>
