<?xml version="1.0" encoding="UTF-8"?>
<svg version="1.1" xmlns="http://www.w3.org/2000/svg" width="512" height="512">
<path d="M0 0 C1.01545898 0.19867676 2.03091797 0.39735352 3.07714844 0.60205078 C52.9758035 10.58327711 96.53871388 34.88580573 133 70 C133.7940625 70.7528125 134.588125 71.505625 135.40625 72.28125 C140.75597303 77.46114055 145.38660506 83.16405541 150 89 C151.19109375 90.48306641 151.19109375 90.48306641 152.40625 91.99609375 C175.32205725 121.03970389 191.22147176 154.85685587 199.6875 190.8125 C199.97306763 191.99936401 199.97306763 191.99936401 200.2644043 193.21020508 C204.22851721 210.89052902 205.555362 228.61292655 205.4375 246.6875 C205.43293793 248.18546112 205.43293793 248.18546112 205.42828369 249.71368408 C205.35621635 265.78341917 204.43972751 281.25213186 201 297 C200.78037598 298.02625488 200.56075195 299.05250977 200.33447266 300.10986328 C191.83138831 338.85817193 174.61772522 375.56726438 149 406 C148.57138672 406.51739746 148.14277344 407.03479492 147.70117188 407.56787109 C137.18164284 420.2564129 126.03816903 431.86528878 113 442 C111.52660156 443.18142578 111.52660156 443.18142578 110.0234375 444.38671875 C70.29759115 476.0035908 18.37047678 496.93437939 -32.79296875 497.203125 C-33.69337387 497.21018463 -34.59377899 497.21724426 -35.52146912 497.22451782 C-72.98691069 497.45161655 -72.98691069 497.45161655 -90 494 C-91.01545898 493.80132324 -92.03091797 493.60264648 -93.07714844 493.39794922 C-142.9758035 483.41672289 -186.53871388 459.11419427 -223 424 C-223.7940625 423.2471875 -224.588125 422.494375 -225.40625 421.71875 C-230.75597303 416.53885945 -235.38660506 410.83594459 -240 405 C-240.7940625 404.01128906 -241.588125 403.02257812 -242.40625 402.00390625 C-266.9776499 370.86198961 -283.32468106 334.48759715 -291.25 295.6875 C-291.47671387 294.57942993 -291.47671387 294.57942993 -291.70800781 293.44897461 C-292.18439803 290.97158418 -292.60252786 288.49133778 -293 286 C-293.17805176 284.88423584 -293.35610352 283.76847168 -293.53955078 282.61889648 C-295.19998488 270.98027732 -295.3987437 259.43103747 -295.375 247.6875 C-295.37445618 246.6738739 -295.37391235 245.6602478 -295.37335205 244.61590576 C-295.33347417 228.41878779 -294.46747801 212.87491635 -291 197 C-290.78037598 195.97374512 -290.56075195 194.94749023 -290.33447266 193.89013672 C-279.82149525 145.98280374 -255.85138923 104.15003587 -222 69 C-221.2471875 68.2059375 -220.494375 67.411875 -219.71875 66.59375 C-214.53885945 61.24402697 -208.83594459 56.61339494 -203 52 C-202.01128906 51.2059375 -201.02257812 50.411875 -200.00390625 49.59375 C-167.66655102 24.07913264 -130.33332447 7.86607287 -90 0 C-89.17274414 -0.16661133 -88.34548828 -0.33322266 -87.49316406 -0.50488281 C-59.91781494 -5.80488028 -27.50199116 -5.57960557 0 0 Z M-131 120 C-131 138.48 -131 156.96 -131 176 C-103.61 176 -76.22 176 -48 176 C-52.7314797 184.28008948 -57.45253682 192.50553529 -62.4375 200.625 C-63.63830308 202.58836907 -64.83880913 204.55191983 -66.0390625 206.515625 C-66.67102539 207.54880859 -67.30298828 208.58199219 -67.95410156 209.64648438 C-70.19334875 213.31692583 -72.42218908 216.9935415 -74.6484375 220.671875 C-75.43171725 221.96533491 -76.21500173 223.25879196 -76.99829102 224.55224609 C-78.15248018 226.45832939 -79.30625122 228.3646593 -80.45870972 230.27178955 C-81.52978265 232.04395336 -82.60260166 233.8150489 -83.67578125 235.5859375 C-84.29364502 236.6073584 -84.91150879 237.6287793 -85.5480957 238.68115234 C-87 241 -87 241 -88 242 C-88.07271741 244.35313555 -88.08370868 246.70833668 -88.0625 249.0625 C-88.05347656 250.35285156 -88.04445312 251.64320313 -88.03515625 252.97265625 C-88.02355469 253.97167969 -88.01195312 254.97070312 -88 256 C-86.23124512 256.029729 -86.23124512 256.029729 -84.42675781 256.06005859 C-79.99833949 256.13686681 -75.57021805 256.22545978 -71.14208984 256.31738281 C-69.2355745 256.35536505 -67.32899497 256.39026791 -65.42236328 256.421875 C-33.76721018 256.95305743 -33.76721018 256.95305743 -24.44140625 265.4140625 C-18.19939905 272.34139394 -17 279.96990753 -17 289 C-17.75237597 297.17033285 -20.14428645 304.68365938 -26.3125 310.3125 C-33.25150877 315.78049835 -41.22028118 317.81208568 -50 317 C-58.28775378 315.56380737 -64.39910664 312.06911476 -69.3125 305.15234375 C-72.46194555 299.51344676 -72.78814078 294.66522569 -74 288 C-94.79 288 -115.58 288 -137 288 C-137 311.90802931 -128.66984505 333.12095929 -111.80859375 350.22265625 C-91.2811265 369.28125285 -64.94086422 375.09515293 -37.68896484 374.15234375 C-15.7032697 372.90674054 4.53562339 364.5901481 21 350 C21.68449219 349.40960938 22.36898437 348.81921875 23.07421875 348.2109375 C37.60472953 334.79376645 46.45294592 314.31600527 47.38671875 294.75390625 C47.97861444 272.22569874 43.66921772 251.60314815 28.4921875 234.109375 C18.0965299 223.26945853 4.25710614 213.64838081 -11 212 C-5.34010156 201.69968793 0.88033319 191.81091951 7.21875 181.91796875 C11.67851565 174.95421123 16.07633187 167.95209279 20.43017578 160.92163086 C23.49958769 155.96840468 26.60842485 151.05511386 29.8359375 146.203125 C30.44236084 145.2737915 31.04878418 144.34445801 31.67358398 143.38696289 C32.8092814 141.64891357 33.96374471 139.92291025 35.14086914 138.21264648 C39.61310549 131.28878382 39 129.24428568 39 120 C-17.1 120 -73.2 120 -131 120 Z " fill="#000000" transform="translate(301,9)"/>
</svg>
